SplineFontDB: 3.2
FontName: Reijima-Regular
FullName: Reijima Regular
FamilyName: Reijima
Weight: Book
Copyright: Copyright (c) 2019 by Coji Morishita. All rights reserved.
Version: 1.000
ItalicAngle: 0
UnderlinePosition: -100
UnderlineWidth: 50
Ascent: 860
Descent: 140
InvalidEm: 0
sfntRevision: 0x00010000
LayerCount: 2
Layer: 0 1 "Back" 1
Layer: 1 1 "Fore" 0
XUID: [1021 531 -1996577725 1132266]
StyleMap: 0x0040
FSType: 8
OS2Version: 4
OS2_WeightWidthSlopeOnly: 0
OS2_UseTypoMetrics: 1
CreationTime: 1575364793
ModificationTime: 1707313396
PfmFamily: 81
TTFWeight: 400
TTFWidth: 5
LineGap: 0
VLineGap: 1000
Panose: 0 0 5 0 0 0 0 0 0 0
OS2TypoAscent: 960
OS2TypoAOffset: 0
OS2TypoDescent: -230
OS2TypoDOffset: 0
OS2TypoLinegap: 200
OS2WinAscent: 1060
OS2WinAOffset: 0
OS2WinDescent: 330
OS2WinDOffset: 0
HheadAscent: 1060
HheadAOffset: 0
HheadDescent: -230
HheadDOffset: 0
OS2SubXSize: 650
OS2SubYSize: 600
OS2SubXOff: 0
OS2SubYOff: 75
OS2SupXSize: 650
OS2SupYSize: 600
OS2SupXOff: 0
OS2SupYOff: 350
OS2StrikeYSize: 50
OS2StrikeYPos: 312
OS2CapHeight: 730
OS2XHeight: 520
OS2Vendor: 'M+  '
OS2CodePages: 0000019f.00000000
OS2UnicodeRanges: a00002ff.4000004b.00000000.00000000
Lookup: 1 0 0 "'aalt' Access All Alternates in Latin lookup 0" { "'aalt' Access All Alternates in Latin lookup 0 subtable"  } ['aalt' ('DFLT' <'dflt' > 'latn' <'AZE ' 'CAT ' 'CRT ' 'KAZ ' 'MOL ' 'ROM ' 'TAT ' 'TRK ' 'dflt' > ) ]
Lookup: 3 0 0 "'aalt' Access All Alternates in Latin lookup 1" { "'aalt' Access All Alternates in Latin lookup 1 subtable"  } ['aalt' ('DFLT' <'dflt' > 'latn' <'AZE ' 'CAT ' 'CRT ' 'KAZ ' 'MOL ' 'ROM ' 'TAT ' 'TRK ' 'dflt' > ) ]
Lookup: 6 0 0 "'ccmp' Glyph Composition/Decomposition in Latin lookup 2" { "'ccmp' Glyph Composition/Decomposition in Latin lookup 2 contextual 0"  "'ccmp' Glyph Composition/Decomposition in Latin lookup 2 contextual 1"  } ['ccmp' ('DFLT' <'dflt' > 'latn' <'AZE ' 'CAT ' 'CRT ' 'KAZ ' 'MOL ' 'ROM ' 'TAT ' 'TRK ' 'dflt' > ) ]

StartChar: .notdef
Encoding: 1114112 -1 0
Width: 500
Flags: W
LayerCount: 2
Fore
SplineSet
410 -140 m 1,0,-1
 93 -140 l 1,1,-1
 93 860 l 1,2,-1
 410 860 l 1,3,-1
 410 -140 l 1,0,-1
168 793 m 1,4,-1
 168 760 l 1,5,-1
 233 760 l 1,6,-1
 233 723 l 1,7,-1
 167 723 l 1,8,-1
 167 690 l 1,9,-1
 333 690 l 1,10,-1
 333 723 l 1,11,-1
 267 723 l 1,12,-1
 267 760 l 1,13,-1
 333 760 l 1,14,-1
 333 793 l 1,15,-1
 168 793 l 1,4,-1
167 664 m 1,16,-1
 167 560 l 1,17,-1
 333 560 l 1,18,-1
 333 594 l 1,19,-1
 267 594 l 1,20,-1
 267 664 l 1,21,-1
 167 664 l 1,16,-1
233 594 m 1,22,-1
 200 594 l 1,23,-1
 200 630 l 1,24,-1
 233 630 l 1,25,-1
 233 594 l 1,22,-1
167 533 m 1,26,-1
 167 500 l 1,27,-1
 233 500 l 1,28,-1
 233 463 l 1,29,-1
 167 463 l 1,30,-1
 167 430 l 1,31,-1
 267 430 l 1,32,-1
 267 500 l 1,33,-1
 333 500 l 1,34,-1
 333 533 l 1,35,-1
 167 533 l 1,26,-1
300 473 m 1,36,-1
 300 407 l 1,37,-1
 167 407 l 1,38,-1
 167 373 l 1,39,-1
 333 373 l 1,40,-1
 333 473 l 1,41,-1
 300 473 l 1,36,-1
233 351 m 1,42,-1
 233 295 l 1,43,-1
 267 295 l 1,44,-1
 267 318 l 1,45,-1
 300 318 l 1,46,-1
 300 271 l 1,47,-1
 200 271 l 1,48,-1
 200 351 l 1,49,-1
 167 351 l 1,50,-1
 167 238 l 1,51,-1
 333 238 l 1,52,-1
 333 351 l 1,53,-1
 233 351 l 1,42,-1
167 178 m 1,54,-1
 167 65 l 1,55,-1
 333 65 l 1,56,-1
 333 178 l 1,57,-1
 167 178 l 1,54,-1
300 98 m 1,58,-1
 200 98 l 1,59,-1
 200 145 l 1,60,-1
 300 145 l 1,61,-1
 300 98 l 1,58,-1
167 42 m 1,62,-1
 167 9 l 1,63,-1
 237 9 l 1,64,-1
 167 -38 l 1,65,-1
 167 -71 l 1,66,-1
 333 -71 l 1,67,-1
 333 -38 l 1,68,-1
 231 -38 l 1,69,-1
 301 9 l 1,70,-1
 333 9 l 1,71,-1
 333 42 l 1,72,-1
 167 42 l 1,62,-1
EndSplineSet
EndChar

StartChar: A
Encoding: 65 65 2
Width: 665
GlyphClass: 2
Flags: W
AnchorPoint: "Anchor-6" 333 730 basechar 0
AnchorPoint: "Anchor-5" 651 0 basechar 0
AnchorPoint: "Anchor-4" 333 0 basechar 0
LayerCount: 2
Fore
SplineSet
563 0 m 1,0,-1
 493 201 l 1,1,-1
 172 201 l 1,2,-1
 102 0 l 1,3,-1
 14 0 l 1,4,-1
 278 730 l 1,5,-1
 388 730 l 1,6,-1
 651 0 l 1,7,-1
 563 0 l 1,0,-1
197 274 m 1,8,-1
 468 274 l 1,9,-1
 334 661 l 1,10,-1
 332 661 l 1,11,-1
 197 274 l 1,8,-1
EndSplineSet
Substitution2: "Single Substitution lookup 21 subtable" ordfeminine
Substitution2: "'aalt' Access All Alternates in Latin lookup 0 subtable" ordfeminine
EndChar

StartChar: uni1EB2
Encoding: 7858 7858 8
Width: 665
GlyphClass: 2
Flags: W
AnchorPoint: "Anchor-6" 334 1114 basechar 0
AnchorPoint: "Anchor-5" 651 0 basechar 0
AnchorPoint: "Anchor-4" 333 0 basechar 0
LayerCount: 2
Fore
SplineSet
400.5 875.5 m 128,-1,1
 427 896 427 896 435 934 c 1,2,-1
 382 934 l 1,3,4
 388 949 388 949 392.5 971 c 128,-1,5
 397 993 397 993 397 1008 c 0,6,7
 397 1033 397 1033 380 1041.5 c 128,-1,8
 363 1050 363 1050 317 1050 c 0,9,10
 255 1050 255 1050 194 1033 c 1,11,-1
 186 1097 l 1,12,13
 254 1114 254 1114 334 1114 c 0,14,15
 391 1114 391 1114 422.5 1107 c 128,-1,16
 454 1100 454 1100 467.5 1083 c 128,-1,17
 481 1066 481 1066 481 1035 c 0,18,19
 481 1015 481 1015 477 990 c 128,-1,20
 473 965 473 965 466 944 c 1,21,-1
 522 944 l 1,22,23
 516 876 516 876 463.5 833 c 128,-1,24
 411 790 411 790 333 790 c 0,25,26
 254 790 254 790 201.5 833 c 128,-1,27
 149 876 149 876 143 944 c 1,28,-1
 228 944 l 1,29,30
 234 901 234 901 261.5 878 c 128,-1,31
 289 855 289 855 333 855 c 0,32,0
 374 855 374 855 400.5 875.5 c 128,-1,1
563 0 m 1,33,-1
 493 201 l 1,34,-1
 172 201 l 1,35,-1
 102 0 l 1,36,-1
 14 0 l 1,37,-1
 278 730 l 1,38,-1
 388 730 l 1,39,-1
 651 0 l 1,40,-1
 563 0 l 1,33,-1
197 274 m 1,41,-1
 468 274 l 1,42,-1
 334 661 l 1,43,-1
 332 661 l 1,44,-1
 197 274 l 1,41,-1
EndSplineSet
EndChar

StartChar: Aogonek
Encoding: 260 260 23
Width: 665
GlyphClass: 2
Flags: W
AnchorPoint: "Anchor-6" 333 730 basechar 0
AnchorPoint: "Anchor-5" 651 0 basechar 0
AnchorPoint: "Anchor-4" 333 0 basechar 0
LayerCount: 2
Fore
SplineSet
740 -197 m 1,0,1
 692 -218 692 -218 629 -218 c 0,2,3
 554 -218 554 -218 516.5 -191 c 128,-1,4
 479 -164 479 -164 479 -120 c 0,5,6
 479 -53 479 -53 561 7 c 1,7,-1
 493 201 l 1,8,-1
 172 201 l 1,9,-1
 102 0 l 1,10,-1
 14 0 l 1,11,-1
 278 730 l 1,12,-1
 388 730 l 1,13,-1
 651 0 l 1,14,15
 604 -27 604 -27 579 -54.5 c 128,-1,16
 554 -82 554 -82 554 -107 c 0,17,18
 554 -131 554 -131 576 -142 c 128,-1,19
 598 -153 598 -153 635 -153 c 0,20,21
 685 -153 685 -153 726 -134 c 1,22,-1
 740 -197 l 1,0,1
197 274 m 1,23,-1
 468 274 l 1,24,-1
 334 661 l 1,25,-1
 332 661 l 1,26,-1
 197 274 l 1,23,-1
EndSplineSet
EndChar

StartChar: Aring
Encoding: 197 197 24
Width: 665
GlyphClass: 2
Flags: W
AnchorPoint: "Anchor-6" 333 908 basechar 0
AnchorPoint: "Anchor-5" 651 0 basechar 0
AnchorPoint: "Anchor-4" 333 0 basechar 0
LayerCount: 2
Fore
SplineSet
493 201 m 1,0,-1
 172 201 l 1,1,-1
 102 0 l 1,2,-1
 14 0 l 1,3,-1
 273 717 l 1,4,5
 237 734 237 734 214.5 768.5 c 128,-1,6
 192 803 192 803 192 845 c 0,7,8
 192 883 192 883 211 916 c 128,-1,9
 230 949 230 949 262.5 968 c 128,-1,10
 295 987 295 987 334 987 c 0,11,12
 372 987 372 987 404.5 968 c 128,-1,13
 437 949 437 949 456 916 c 128,-1,14
 475 883 475 883 475 845 c 0,15,16
 475 803 475 803 452.5 768.5 c 128,-1,17
 430 734 430 734 393 716 c 1,18,-1
 651 0 l 1,19,-1
 563 0 l 1,20,-1
 493 201 l 1,0,-1
276 903 m 128,-1,22
 252 879 252 879 252 845 c 256,23,24
 252 811 252 811 276 787 c 128,-1,25
 300 763 300 763 334 763 c 256,26,27
 368 763 368 763 391.5 787 c 128,-1,28
 415 811 415 811 415 845 c 256,29,30
 415 879 415 879 391.5 903 c 128,-1,31
 368 927 368 927 334 927 c 256,32,21
 300 927 300 927 276 903 c 128,-1,22
197 274 m 1,33,-1
 468 274 l 1,34,-1
 334 661 l 1,35,-1
 332 661 l 1,36,-1
 197 274 l 1,33,-1
EndSplineSet
EndChar

StartChar: Aringacute
Encoding: 506 506 25
Width: 665
GlyphClass: 2
Flags: W
AnchorPoint: "Anchor-6" 333 908 basechar 0
AnchorPoint: "Anchor-5" 651 0 basechar 0
AnchorPoint: "Anchor-4" 333 0 basechar 0
LayerCount: 2
Fore
SplineSet
493 201 m 1,0,-1
 172 201 l 1,1,-1
 102 0 l 1,2,-1
 14 0 l 1,3,-1
 273 717 l 1,4,5
 237 734 237 734 214.5 768.5 c 128,-1,6
 192 803 192 803 192 845 c 0,7,8
 192 878 192 878 206.5 907.5 c 128,-1,9
 221 937 221 937 246 957 c 1,10,-1
 345 1158 l 1,11,-1
 446 1158 l 1,12,-1
 346 987 l 1,13,14
 400 982 400 982 437.5 941 c 128,-1,15
 475 900 475 900 475 845 c 0,16,17
 475 803 475 803 452.5 768.5 c 128,-1,18
 430 734 430 734 393 716 c 1,19,-1
 651 0 l 1,20,-1
 563 0 l 1,21,-1
 493 201 l 1,0,-1
276 903 m 128,-1,23
 252 879 252 879 252 845 c 256,24,25
 252 811 252 811 276 787 c 128,-1,26
 300 763 300 763 334 763 c 256,27,28
 368 763 368 763 391.5 787 c 128,-1,29
 415 811 415 811 415 845 c 256,30,31
 415 879 415 879 391.5 903 c 128,-1,32
 368 927 368 927 334 927 c 256,33,22
 300 927 300 927 276 903 c 128,-1,23
197 274 m 1,34,-1
 468 274 l 1,35,-1
 334 661 l 1,36,-1
 332 661 l 1,37,-1
 197 274 l 1,34,-1
EndSplineSet
EndChar

StartChar: AE
Encoding: 198 198 27
Width: 840
GlyphClass: 2
Flags: W
AnchorPoint: "Anchor-6" 453 730 basechar 0
AnchorPoint: "Anchor-4" 453 0 basechar 0
LayerCount: 2
Fore
SplineSet
774 658 m 1,0,-1
 490 658 l 1,1,-1
 490 420 l 1,2,-1
 754 420 l 1,3,-1
 754 350 l 1,4,-1
 490 350 l 1,5,-1
 490 72 l 1,6,-1
 774 72 l 1,7,-1
 774 0 l 1,8,-1
 410 0 l 1,9,-1
 410 201 l 1,10,-1
 189 201 l 1,11,-1
 103 0 l 1,12,-1
 14 0 l 1,13,-1
 336 730 l 1,14,-1
 774 730 l 1,15,-1
 774 658 l 1,0,-1
220 274 m 1,16,-1
 410 274 l 1,17,-1
 410 663 l 1,18,-1
 387 663 l 1,19,-1
 220 274 l 1,16,-1
EndSplineSet
EndChar

StartChar: B
Encoding: 66 66 29
Width: 635
Flags: W
LayerCount: 2
Fore
SplineSet
598 203 m 0,1,2
 598 100 598 100 522.5 50 c 128,-1,3
 447 0 447 0 292 0 c 2,4,-1
 85 0 l 1,5,-1
 85 730 l 1,6,-1
 288 730 l 2,7,8
 427 730 427 730 496 686.5 c 128,-1,9
 565 643 565 643 565 554 c 0,10,11
 565 488 565 488 529.5 446 c 128,-1,12
 494 404 494 404 426 390 c 1,13,-1
 426 388 l 1,14,0
 598 361 598 361 598 203 c 0,1,2
165 658 m 1,15,-1
 165 420 l 1,16,-1
 292 420 l 2,17,18
 391 420 391 420 438 449.5 c 128,-1,19
 485 479 485 479 485 541 c 0,20,21
 485 602 485 602 438.5 630 c 128,-1,22
 392 658 392 658 292 658 c 2,23,-1
 165 658 l 1,15,-1
462.5 105.5 m 128,-1,25
 517 139 517 139 517 211 c 256,26,27
 517 283 517 283 462.5 316.5 c 128,-1,28
 408 350 408 350 292 350 c 2,29,-1
 165 350 l 1,30,-1
 165 72 l 1,31,-1
 292 72 l 2,32,24
 408 72 408 72 462.5 105.5 c 128,-1,25
EndSplineSet
EndChar

StartChar: C
Encoding: 67 67 30
Width: 689
GlyphClass: 2
Flags: W
AnchorPoint: "Anchor-6" 380 730 basechar 0
AnchorPoint: "Anchor-4" 380 0 basechar 0
LayerCount: 2
Fore
SplineSet
210.5 35.5 m 128,-1,1
 129 81 129 81 85.5 165.5 c 128,-1,2
 42 250 42 250 42 365 c 256,3,4
 42 480 42 480 85.5 564.5 c 128,-1,5
 129 649 129 649 210.5 694.5 c 128,-1,6
 292 740 292 740 403 740 c 0,7,8
 538 740 538 740 638 674 c 1,9,-1
 603 609 l 1,10,11
 513 667 513 667 406 667 c 0,12,13
 320 667 320 667 256 630.5 c 128,-1,14
 192 594 192 594 158 525.5 c 128,-1,15
 124 457 124 457 124 365 c 256,16,17
 124 273 124 273 158 204.5 c 128,-1,18
 192 136 192 136 256 99.5 c 128,-1,19
 320 63 320 63 406 63 c 0,20,21
 513 63 513 63 603 121 c 1,22,-1
 638 56 l 1,23,24
 538 -10 538 -10 403 -10 c 0,25,0
 292 -10 292 -10 210.5 35.5 c 128,-1,1
EndSplineSet
EndChar

StartChar: Ccedilla
Encoding: 199 199 33
Width: 689
GlyphClass: 2
Flags: W
AnchorPoint: "Anchor-6" 380 730 basechar 0
AnchorPoint: "Anchor-4" 380 0 basechar 0
LayerCount: 2
Fore
SplineSet
638 56 m 1,0,1
 554 1 554 1 448 -8 c 1,2,3
 510 -62 510 -62 510 -120 c 0,4,5
 510 -164 510 -164 472.5 -191 c 128,-1,6
 435 -218 435 -218 360 -218 c 0,7,8
 298 -218 298 -218 250 -197 c 1,9,-1
 264 -135 l 1,10,11
 307 -154 307 -154 354 -154 c 0,12,13
 391 -154 391 -154 413 -142.5 c 128,-1,14
 435 -131 435 -131 435 -107 c 0,15,16
 435 -61 435 -61 350 -7 c 1,17,18
 254 3 254 3 185 51 c 128,-1,19
 116 99 116 99 79 179 c 128,-1,20
 42 259 42 259 42 365 c 0,21,22
 42 480 42 480 85.5 564.5 c 128,-1,23
 129 649 129 649 210.5 694.5 c 128,-1,24
 292 740 292 740 403 740 c 0,25,26
 538 740 538 740 638 674 c 1,27,-1
 603 609 l 1,28,29
 513 667 513 667 406 667 c 0,30,31
 320 667 320 667 256 630.5 c 128,-1,32
 192 594 192 594 158 525.5 c 128,-1,33
 124 457 124 457 124 365 c 256,34,35
 124 273 124 273 158 204.5 c 128,-1,36
 192 136 192 136 256 99.5 c 128,-1,37
 320 63 320 63 406 63 c 0,38,39
 513 63 513 63 603 121 c 1,40,-1
 638 56 l 1,0,1
EndSplineSet
EndChar

StartChar: D
Encoding: 68 68 36
Width: 681
GlyphClass: 2
Flags: W
AnchorPoint: "Anchor-6" 341 730 basechar 0
AnchorPoint: "Anchor-4" 341 0 basechar 0
LayerCount: 2
Fore
SplineSet
268 730 m 2,0,1
 454 730 454 730 546 639.5 c 128,-1,2
 638 549 638 549 638 365 c 256,3,4
 638 181 638 181 546 90.5 c 128,-1,5
 454 0 454 0 268 0 c 2,6,-1
 85 0 l 1,7,-1
 85 730 l 1,8,-1
 268 730 l 2,0,1
488 143.5 m 128,-1,10
 557 214 557 214 557 365 c 256,11,12
 557 516 557 516 488 586.5 c 128,-1,13
 419 657 419 657 273 657 c 2,14,-1
 165 657 l 1,15,-1
 165 73 l 1,16,-1
 273 73 l 2,17,9
 419 73 419 73 488 143.5 c 128,-1,10
EndSplineSet
EndChar

StartChar: Eth
Encoding: 208 208 38
Width: 732
GlyphClass: 2
Flags: W
AnchorPoint: "Anchor-6" 392 730 basechar 0
AnchorPoint: "Anchor-4" 392 0 basechar 0
LayerCount: 2
Fore
SplineSet
598 639.5 m 128,-1,1
 690 549 690 549 690 365 c 256,2,3
 690 181 690 181 598 90.5 c 128,-1,4
 506 0 506 0 320 0 c 2,5,-1
 136 0 l 1,6,-1
 136 332 l 1,7,-1
 28 332 l 1,8,-1
 28 398 l 1,9,-1
 136 398 l 1,10,-1
 136 730 l 1,11,-1
 320 730 l 2,12,0
 506 730 506 730 598 639.5 c 128,-1,1
539.5 143.5 m 128,-1,14
 608 214 608 214 608 365 c 256,15,16
 608 516 608 516 539.5 586.5 c 128,-1,17
 471 657 471 657 324 657 c 2,18,-1
 216 657 l 1,19,-1
 216 398 l 1,20,-1
 443 398 l 1,21,-1
 443 332 l 1,22,-1
 216 332 l 1,23,-1
 216 73 l 1,24,-1
 324 73 l 2,25,13
 471 73 471 73 539.5 143.5 c 128,-1,14
EndSplineSet
EndChar

StartChar: E
Encoding: 69 69 42
Width: 595
GlyphClass: 2
Flags: W
AnchorPoint: "Anchor-6" 310 730 basechar 0
AnchorPoint: "Anchor-5" 528 0 basechar 0
AnchorPoint: "Anchor-4" 310 0 basechar 0
LayerCount: 2
Fore
SplineSet
85 730 m 1,0,-1
 528 730 l 1,1,-1
 528 658 l 1,2,-1
 165 658 l 1,3,-1
 165 420 l 1,4,-1
 508 420 l 1,5,-1
 508 350 l 1,6,-1
 165 350 l 1,7,-1
 165 72 l 1,8,-1
 528 72 l 1,9,-1
 528 0 l 1,10,-1
 85 0 l 1,11,-1
 85 730 l 1,0,-1
EndSplineSet
EndChar

StartChar: Eogonek
Encoding: 280 280 60
Width: 595
GlyphClass: 2
Flags: W
AnchorPoint: "Anchor-6" 310 730 basechar 0
AnchorPoint: "Anchor-5" 528 0 basechar 0
AnchorPoint: "Anchor-4" 310 0 basechar 0
LayerCount: 2
Fore
SplineSet
617 -197 m 1,0,1
 569 -218 569 -218 506 -218 c 0,2,3
 431 -218 431 -218 393.5 -191 c 128,-1,4
 356 -164 356 -164 356 -120 c 0,5,6
 356 -56 356 -56 429 0 c 1,7,-1
 85 0 l 1,8,-1
 85 730 l 1,9,-1
 528 730 l 1,10,-1
 528 658 l 1,11,-1
 165 658 l 1,12,-1
 165 420 l 1,13,-1
 508 420 l 1,14,-1
 508 350 l 1,15,-1
 165 350 l 1,16,-1
 165 72 l 1,17,-1
 528 72 l 1,18,-1
 528 0 l 1,19,20
 481 -27 481 -27 456 -54.5 c 128,-1,21
 431 -82 431 -82 431 -107 c 0,22,23
 431 -131 431 -131 453 -142 c 128,-1,24
 475 -153 475 -153 512 -153 c 0,25,26
 562 -153 562 -153 603 -134 c 1,27,-1
 617 -197 l 1,0,1
EndSplineSet
EndChar

StartChar: F
Encoding: 70 70 62
Width: 580
Flags: W
LayerCount: 2
Fore
SplineSet
85 730 m 1,0,-1
 528 730 l 1,1,-1
 528 657 l 1,2,-1
 165 657 l 1,3,-1
 165 410 l 1,4,-1
 508 410 l 1,5,-1
 508 338 l 1,6,-1
 165 338 l 1,7,-1
 165 0 l 1,8,-1
 85 0 l 1,9,-1
 85 730 l 1,0,-1
EndSplineSet
EndChar

StartChar: G
Encoding: 71 71 63
Width: 775
GlyphClass: 2
Flags: W
AnchorPoint: "Anchor-6" 407 730 basechar 0
AnchorPoint: "Anchor-4" 407 0 basechar 0
LayerCount: 2
Fore
SplineSet
702 418 m 1,0,-1
 702 46 l 1,1,2
 648 20 648 20 576 5 c 128,-1,3
 504 -10 504 -10 432 -10 c 0,4,5
 311 -10 311 -10 223.5 35 c 128,-1,6
 136 80 136 80 89 164 c 128,-1,7
 42 248 42 248 42 365 c 256,8,9
 42 482 42 482 89 566 c 128,-1,10
 136 650 136 650 223.5 695 c 128,-1,11
 311 740 311 740 432 740 c 0,12,13
 575 740 575 740 676 678 c 1,14,-1
 643 615 l 1,15,16
 551 668 551 668 432 668 c 0,17,18
 285 668 285 668 204.5 589 c 128,-1,19
 124 510 124 510 124 365 c 256,20,21
 124 220 124 220 204.5 141 c 128,-1,22
 285 62 285 62 432 62 c 0,23,24
 480 62 480 62 530.5 71 c 128,-1,25
 581 80 581 80 622 96 c 1,26,-1
 622 348 l 1,27,-1
 362 348 l 1,28,-1
 362 418 l 1,29,-1
 702 418 l 1,0,-1
EndSplineSet
EndChar

StartChar: H
Encoding: 72 72 69
Width: 710
GlyphClass: 2
Flags: W
AnchorPoint: "Anchor-6" 355 730 basechar 0
AnchorPoint: "Anchor-4" 355 0 basechar 0
LayerCount: 2
Fore
SplineSet
545 730 m 1,0,-1
 625 730 l 1,1,-1
 625 0 l 1,2,-1
 545 0 l 1,3,-1
 545 350 l 1,4,-1
 165 350 l 1,5,-1
 165 0 l 1,6,-1
 85 0 l 1,7,-1
 85 730 l 1,8,-1
 165 730 l 1,9,-1
 165 423 l 1,10,-1
 545 423 l 1,11,-1
 545 730 l 1,0,-1
EndSplineSet
EndChar

StartChar: Hbar
Encoding: 294 294 70
Width: 784
GlyphClass: 2
Flags: W
AnchorPoint: "Anchor-6" 392 730 basechar 0
AnchorPoint: "Anchor-4" 392 0 basechar 0
LayerCount: 2
Fore
SplineSet
755 629 m 1,0,-1
 755 563 l 1,1,-1
 662 563 l 1,2,-1
 662 0 l 1,3,-1
 582 0 l 1,4,-1
 582 350 l 1,5,-1
 202 350 l 1,6,-1
 202 0 l 1,7,-1
 122 0 l 1,8,-1
 122 563 l 1,9,-1
 29 563 l 1,10,-1
 29 629 l 1,11,-1
 122 629 l 1,12,-1
 122 730 l 1,13,-1
 202 730 l 1,14,-1
 202 629 l 1,15,-1
 582 629 l 1,16,-1
 582 730 l 1,17,-1
 662 730 l 1,18,-1
 662 629 l 1,19,-1
 755 629 l 1,0,-1
582 423 m 1,20,-1
 582 563 l 1,21,-1
 202 563 l 1,22,-1
 202 423 l 1,23,-1
 582 423 l 1,20,-1
EndSplineSet
EndChar

StartChar: I
Encoding: 73 73 72
Width: 270
GlyphClass: 2
Flags: W
AnchorPoint: "Anchor-6" 135 730 basechar 0
AnchorPoint: "Anchor-5" 176 0 basechar 0
AnchorPoint: "Anchor-4" 135 0 basechar 0
LayerCount: 2
Fore
SplineSet
94 730 m 1,0,-1
 176 730 l 1,1,-1
 176 0 l 1,2,-1
 94 0 l 1,3,-1
 94 730 l 1,0,-1
EndSplineSet
EndChar

StartChar: Iogonek
Encoding: 302 302 84
Width: 270
GlyphClass: 2
Flags: W
AnchorPoint: "Anchor-6" 135 730 basechar 0
AnchorPoint: "Anchor-5" 176 0 basechar 0
AnchorPoint: "Anchor-4" 135 0 basechar 0
LayerCount: 2
Fore
SplineSet
265 -197 m 1,0,1
 217 -218 217 -218 154 -218 c 0,2,3
 79 -218 79 -218 41.5 -191 c 128,-1,4
 4 -164 4 -164 4 -120 c 0,5,6
 4 -51 4 -51 94 13 c 1,7,-1
 94 730 l 1,8,-1
 176 730 l 1,9,-1
 176 0 l 1,10,11
 129 -27 129 -27 104 -54.5 c 128,-1,12
 79 -82 79 -82 79 -107 c 0,13,14
 79 -131 79 -131 101 -142 c 128,-1,15
 123 -153 123 -153 160 -153 c 0,16,17
 210 -153 210 -153 251 -134 c 1,18,-1
 265 -197 l 1,0,1
EndSplineSet
EndChar

StartChar: J
Encoding: 74 74 86
Width: 561
GlyphClass: 2
Flags: W
AnchorPoint: "Anchor-6" 281 730 basechar 0
AnchorPoint: "Anchor-4" 281 0 basechar 0
LayerCount: 2
Fore
SplineSet
112 4.5 m 128,-1,1
 56 19 56 19 10 47 c 1,2,-1
 39 114 l 1,3,4
 81 90 81 90 128 76.5 c 128,-1,5
 175 63 175 63 222 63 c 0,6,7
 314 63 314 63 358.5 116 c 128,-1,8
 403 169 403 169 403 280 c 2,9,-1
 403 730 l 1,10,-1
 485 730 l 1,11,-1
 485 280 l 2,12,13
 485 132 485 132 422 61 c 128,-1,14
 359 -10 359 -10 229 -10 c 0,15,0
 168 -10 168 -10 112 4.5 c 128,-1,1
EndSplineSet
EndChar

StartChar: K
Encoding: 75 75 88
Width: 638
GlyphClass: 2
Flags: W
AnchorPoint: "Anchor-6" 300 730 basechar 0
AnchorPoint: "Anchor-4" 300 0 basechar 0
LayerCount: 2
Fore
SplineSet
85 730 m 1,0,-1
 165 730 l 1,1,-1
 165 415 l 1,2,-1
 167 415 l 1,3,-1
 503 730 l 1,4,-1
 605 730 l 1,5,-1
 239 387 l 1,6,-1
 615 0 l 1,7,-1
 514 0 l 1,8,-1
 167 359 l 1,9,-1
 165 359 l 1,10,-1
 165 0 l 1,11,-1
 85 0 l 1,12,-1
 85 730 l 1,0,-1
EndSplineSet
EndChar

StartChar: L
Encoding: 76 76 90
Width: 585
GlyphClass: 2
Flags: W
AnchorPoint: "Anchor-7" 565 730 basechar 0
AnchorPoint: "Anchor-6" 293 730 basechar 0
AnchorPoint: "Anchor-4" 293 0 basechar 0
LayerCount: 2
Fore
SplineSet
85 730 m 1,0,-1
 167 730 l 1,1,-1
 167 73 l 1,2,-1
 545 73 l 1,3,-1
 545 0 l 1,4,-1
 85 0 l 1,5,-1
 85 730 l 1,0,-1
EndSplineSet
EndChar

StartChar: Lslash
Encoding: 321 321 97
Width: 672
GlyphClass: 2
Flags: W
AnchorPoint: "Anchor-7" 652 730 basechar 0
AnchorPoint: "Anchor-6" 379 730 basechar 0
AnchorPoint: "Anchor-4" 379 0 basechar 0
LayerCount: 2
Fore
SplineSet
254 73 m 1,0,-1
 632 73 l 1,1,-1
 632 0 l 1,2,-1
 172 0 l 1,3,-1
 172 310 l 1,4,-1
 39 253 l 1,5,-1
 12 315 l 1,6,-1
 172 384 l 1,7,-1
 172 730 l 1,8,-1
 254 730 l 1,9,-1
 254 419 l 1,10,-1
 389 477 l 1,11,-1
 415 415 l 1,12,-1
 254 346 l 1,13,-1
 254 73 l 1,0,-1
EndSplineSet
EndChar

StartChar: M
Encoding: 77 77 98
Width: 863
Flags: W
LayerCount: 2
Fore
SplineSet
85 730 m 1,0,-1
 189 730 l 1,1,-1
 431 247 l 1,2,-1
 433 247 l 1,3,-1
 675 730 l 1,4,-1
 778 730 l 1,5,-1
 778 0 l 1,6,-1
 698 0 l 1,7,-1
 698 606 l 1,8,-1
 696 606 l 1,9,-1
 470 155 l 1,10,-1
 393 155 l 1,11,-1
 167 606 l 1,12,-1
 165 606 l 1,13,-1
 165 0 l 1,14,-1
 85 0 l 1,15,-1
 85 730 l 1,0,-1
EndSplineSet
EndChar

StartChar: N
Encoding: 78 78 99
Width: 720
GlyphClass: 2
Flags: W
AnchorPoint: "Anchor-6" 360 730 basechar 0
AnchorPoint: "Anchor-4" 360 0 basechar 0
LayerCount: 2
Fore
SplineSet
85 730 m 1,0,-1
 176 730 l 1,1,-1
 553 127 l 1,2,-1
 555 127 l 1,3,-1
 555 730 l 1,4,-1
 635 730 l 1,5,-1
 635 0 l 1,6,-1
 544 0 l 1,7,-1
 167 603 l 1,8,-1
 165 603 l 1,9,-1
 165 0 l 1,10,-1
 85 0 l 1,11,-1
 85 730 l 1,0,-1
EndSplineSet
EndChar

StartChar: Eng
Encoding: 330 330 104
Width: 720
GlyphClass: 2
Flags: W
AnchorPoint: "Anchor-6" 360 730 basechar 0
AnchorPoint: "Anchor-4" 360 0 basechar 0
LayerCount: 2
Fore
SplineSet
635 730 m 1,0,-1
 635 -38 l 2,1,2
 635 -132 635 -132 596 -175 c 128,-1,3
 557 -218 557 -218 471 -218 c 0,4,5
 422 -218 422 -218 368 -202 c 1,6,-1
 382 -135 l 1,7,8
 419 -148 419 -148 456 -148 c 0,9,10
 509 -148 509 -148 532.5 -122.5 c 128,-1,11
 556 -97 556 -97 556 -38 c 2,12,-1
 556 -19 l 1,13,-1
 167 596 l 1,14,-1
 165 596 l 1,15,-1
 165 0 l 1,16,-1
 85 0 l 1,17,-1
 85 730 l 1,18,-1
 176 730 l 1,19,-1
 553 134 l 1,20,-1
 555 134 l 1,21,-1
 555 730 l 1,22,-1
 635 730 l 1,0,-1
EndSplineSet
EndChar

StartChar: O
Encoding: 79 79 107
Width: 802
GlyphClass: 2
Flags: W
AnchorPoint: "Anchor-7" 591 690 basechar 0
AnchorPoint: "Anchor-6" 401 730 basechar 0
AnchorPoint: "Anchor-5" 457 0 basechar 0
AnchorPoint: "Anchor-4" 401 0 basechar 0
LayerCount: 2
Fore
SplineSet
211.5 36 m 128,-1,1
 130 82 130 82 86 167 c 128,-1,2
 42 252 42 252 42 365 c 256,3,4
 42 478 42 478 86 563 c 128,-1,5
 130 648 130 648 211.5 694 c 128,-1,6
 293 740 293 740 401 740 c 256,7,8
 509 740 509 740 590.5 694 c 128,-1,9
 672 648 672 648 716 563 c 128,-1,10
 760 478 760 478 760 365 c 256,11,12
 760 252 760 252 716 167 c 128,-1,13
 672 82 672 82 590.5 36 c 128,-1,14
 509 -10 509 -10 401 -10 c 256,15,0
 293 -10 293 -10 211.5 36 c 128,-1,1
547.5 99.5 m 128,-1,17
 610 136 610 136 644 204.5 c 128,-1,18
 678 273 678 273 678 365 c 256,19,20
 678 457 678 457 644 525.5 c 128,-1,21
 610 594 610 594 547.5 630.5 c 128,-1,22
 485 667 485 667 401 667 c 256,23,24
 317 667 317 667 254.5 630.5 c 128,-1,25
 192 594 192 594 158 525.5 c 128,-1,26
 124 457 124 457 124 365 c 256,27,28
 124 273 124 273 158 204.5 c 128,-1,29
 192 136 192 136 254.5 99.5 c 128,-1,30
 317 63 317 63 401 63 c 256,31,16
 485 63 485 63 547.5 99.5 c 128,-1,17
EndSplineSet
Substitution2: "Single Substitution lookup 21 subtable" ordmasculine
Substitution2: "'aalt' Access All Alternates in Latin lookup 0 subtable" ordmasculine
EndChar

StartChar: Ohorn
Encoding: 416 416 123
Width: 819
GlyphClass: 2
Flags: W
AnchorPoint: "Anchor-7" 805 842 basechar 0
AnchorPoint: "Anchor-6" 401 730 basechar 0
AnchorPoint: "Anchor-5" 457 0 basechar 0
AnchorPoint: "Anchor-4" 401 0 basechar 0
LayerCount: 2
Fore
SplineSet
760 643 m 128,-1,1
 736 610 736 610 691 603 c 1,2,3
 760 506 760 506 760 365 c 0,4,5
 760 252 760 252 716 167 c 128,-1,6
 672 82 672 82 590.5 36 c 128,-1,7
 509 -10 509 -10 401 -10 c 256,8,9
 293 -10 293 -10 211.5 36 c 128,-1,10
 130 82 130 82 86 167 c 128,-1,11
 42 252 42 252 42 365 c 256,12,13
 42 478 42 478 86 563 c 128,-1,14
 130 648 130 648 211.5 694 c 128,-1,15
 293 740 293 740 401 740 c 0,16,17
 530 740 530 740 621 674 c 1,18,19
 632 671 632 671 644 671 c 0,20,21
 673 671 673 671 688 689 c 128,-1,22
 703 707 703 707 703 741 c 0,23,24
 703 764 703 764 697 793.5 c 128,-1,25
 691 823 691 823 683 842 c 1,26,-1
 765 842 l 1,27,28
 784 785 784 785 784 731 c 0,29,0
 784 676 784 676 760 643 c 128,-1,1
547.5 99.5 m 128,-1,31
 610 136 610 136 644 204.5 c 128,-1,32
 678 273 678 273 678 365 c 256,33,34
 678 457 678 457 644 525.5 c 128,-1,35
 610 594 610 594 547.5 630.5 c 128,-1,36
 485 667 485 667 401 667 c 256,37,38
 317 667 317 667 254.5 630.5 c 128,-1,39
 192 594 192 594 158 525.5 c 128,-1,40
 124 457 124 457 124 365 c 256,41,42
 124 273 124 273 158 204.5 c 128,-1,43
 192 136 192 136 254.5 99.5 c 128,-1,44
 317 63 317 63 401 63 c 256,45,30
 485 63 485 63 547.5 99.5 c 128,-1,31
EndSplineSet
EndChar

StartChar: uni01EA
Encoding: 490 490 132
Width: 802
GlyphClass: 2
Flags: W
AnchorPoint: "Anchor-7" 591 690 basechar 0
AnchorPoint: "Anchor-6" 401 730 basechar 0
AnchorPoint: "Anchor-5" 457 0 basechar 0
AnchorPoint: "Anchor-4" 401 0 basechar 0
LayerCount: 2
Fore
SplineSet
360 -107 m 0,1,2
 360 -131 360 -131 382 -142 c 128,-1,3
 404 -153 404 -153 441 -153 c 0,4,5
 491 -153 491 -153 532 -134 c 1,6,-1
 546 -197 l 1,7,8
 498 -218 498 -218 435 -218 c 0,9,10
 360 -218 360 -218 322.5 -191 c 128,-1,11
 285 -164 285 -164 285 -120 c 0,12,13
 285 -60 285 -60 349 -7 c 1,14,15
 256 4 256 4 186.5 52.5 c 128,-1,16
 117 101 117 101 79.5 181.5 c 128,-1,17
 42 262 42 262 42 365 c 0,18,19
 42 478 42 478 86 563 c 128,-1,20
 130 648 130 648 211.5 694 c 128,-1,21
 293 740 293 740 401 740 c 256,22,23
 509 740 509 740 590.5 694 c 128,-1,24
 672 648 672 648 716 563 c 128,-1,25
 760 478 760 478 760 365 c 0,26,27
 760 260 760 260 721.5 178.5 c 128,-1,28
 683 97 683 97 611.5 49 c 128,-1,29
 540 1 540 1 444 -8 c 1,30,0
 360 -61 360 -61 360 -107 c 0,1,2
158 204.5 m 128,-1,32
 192 136 192 136 254.5 99.5 c 128,-1,33
 317 63 317 63 401 63 c 256,34,35
 485 63 485 63 547.5 99.5 c 128,-1,36
 610 136 610 136 644 204.5 c 128,-1,37
 678 273 678 273 678 365 c 256,38,39
 678 457 678 457 644 525.5 c 128,-1,40
 610 594 610 594 547.5 630.5 c 128,-1,41
 485 667 485 667 401 667 c 256,42,43
 317 667 317 667 254.5 630.5 c 128,-1,44
 192 594 192 594 158 525.5 c 128,-1,45
 124 457 124 457 124 365 c 256,46,31
 124 273 124 273 158 204.5 c 128,-1,32
EndSplineSet
EndChar

StartChar: Oslash
Encoding: 216 216 133
Width: 802
GlyphClass: 2
Flags: W
AnchorPoint: "Anchor-7" 591 690 basechar 0
AnchorPoint: "Anchor-6" 401 730 basechar 0
AnchorPoint: "Anchor-5" 457 0 basechar 0
AnchorPoint: "Anchor-4" 401 0 basechar 0
LayerCount: 2
Fore
SplineSet
732.5 525 m 128,-1,1
 760 453 760 453 760 365 c 0,2,3
 760 252 760 252 716 167 c 128,-1,4
 672 82 672 82 590.5 36 c 128,-1,5
 509 -10 509 -10 401 -10 c 0,6,7
 286 -10 286 -10 202 42 c 1,8,-1
 148 -30 l 1,9,-1
 94 10 l 1,10,-1
 149 83 l 1,11,12
 97 133 97 133 69.5 205 c 128,-1,13
 42 277 42 277 42 365 c 0,14,15
 42 478 42 478 86 563 c 128,-1,16
 130 648 130 648 211.5 694 c 128,-1,17
 293 740 293 740 401 740 c 0,18,19
 516 740 516 740 600 688 c 1,20,-1
 654 760 l 1,21,-1
 708 720 l 1,22,-1
 653 647 l 1,23,0
 705 597 705 597 732.5 525 c 128,-1,1
142.5 241.5 m 128,-1,25
 161 186 161 186 196 147 c 1,26,-1
 554 626 l 1,27,28
 490 667 490 667 401 667 c 0,29,30
 317 667 317 667 254.5 630.5 c 128,-1,31
 192 594 192 594 158 525.5 c 128,-1,32
 124 457 124 457 124 365 c 0,33,24
 124 297 124 297 142.5 241.5 c 128,-1,25
547.5 99.5 m 128,-1,35
 610 136 610 136 644 204.5 c 128,-1,36
 678 273 678 273 678 365 c 0,37,38
 678 433 678 433 659.5 488.5 c 128,-1,39
 641 544 641 544 606 583 c 1,40,-1
 248 104 l 1,41,42
 312 63 312 63 401 63 c 0,43,34
 485 63 485 63 547.5 99.5 c 128,-1,35
EndSplineSet
EndChar

StartChar: OE
Encoding: 338 338 137
Width: 1004
GlyphClass: 2
Flags: W
AnchorPoint: "Anchor-6" 720 730 basechar 0
AnchorPoint: "Anchor-5" 938 0 basechar 0
AnchorPoint: "Anchor-4" 720 0 basechar 0
LayerCount: 2
Fore
SplineSet
575 658 m 1,0,-1
 575 420 l 1,1,-1
 918 420 l 1,2,-1
 918 350 l 1,3,-1
 575 350 l 1,4,-1
 575 72 l 1,5,-1
 938 72 l 1,6,-1
 938 0 l 1,7,-1
 495 0 l 1,8,9
 447 -10 447 -10 401 -10 c 0,10,11
 293 -10 293 -10 211.5 36 c 128,-1,12
 130 82 130 82 86 167 c 128,-1,13
 42 252 42 252 42 365 c 256,14,15
 42 478 42 478 86 563 c 128,-1,16
 130 648 130 648 211.5 694 c 128,-1,17
 293 740 293 740 401 740 c 0,18,19
 447 740 447 740 495 730 c 1,20,-1
 938 730 l 1,21,-1
 938 658 l 1,22,-1
 575 658 l 1,0,-1
495 78 m 1,24,-1
 495 652 l 1,25,26
 453 667 453 667 401 667 c 0,27,28
 317 667 317 667 254.5 630.5 c 128,-1,29
 192 594 192 594 158 525.5 c 128,-1,30
 124 457 124 457 124 365 c 256,31,32
 124 273 124 273 158 204.5 c 128,-1,33
 192 136 192 136 254.5 99.5 c 128,-1,34
 317 63 317 63 401 63 c 0,35,23
 453 63 453 63 495 78 c 1,24,-1
EndSplineSet
EndChar

StartChar: P
Encoding: 80 80 138
Width: 597
Flags: W
LayerCount: 2
Fore
SplineSet
493.5 675.5 m 128,-1,1
 568 621 568 621 568 505 c 0,2,3
 568 390 568 390 496 334.5 c 128,-1,4
 424 279 424 279 275 279 c 2,5,-1
 165 279 l 1,6,-1
 165 0 l 1,7,-1
 85 0 l 1,8,-1
 85 730 l 1,9,-1
 262 730 l 2,10,0
 419 730 419 730 493.5 675.5 c 128,-1,1
434.5 387.5 m 128,-1,12
 487 424 487 424 487 504 c 256,13,14
 487 584 487 584 434.5 620.5 c 128,-1,15
 382 657 382 657 265 657 c 2,16,-1
 165 657 l 1,17,-1
 165 351 l 1,18,-1
 265 351 l 2,19,11
 382 351 382 351 434.5 387.5 c 128,-1,12
EndSplineSet
EndChar

StartChar: Thorn
Encoding: 222 222 139
Width: 597
Flags: W
LayerCount: 2
Fore
SplineSet
494 545.5 m 128,-1,1
 568 491 568 491 568 375 c 0,2,3
 568 260 568 260 496 205 c 128,-1,4
 424 150 424 150 275 150 c 2,5,-1
 165 150 l 1,6,-1
 165 0 l 1,7,-1
 85 0 l 1,8,-1
 85 730 l 1,9,-1
 165 730 l 1,10,-1
 165 600 l 1,11,-1
 262 600 l 2,12,0
 420 600 420 600 494 545.5 c 128,-1,1
434.5 258 m 128,-1,14
 487 294 487 294 487 374 c 256,15,16
 487 454 487 454 434.5 490.5 c 128,-1,17
 382 527 382 527 265 527 c 2,18,-1
 165 527 l 1,19,-1
 165 222 l 1,20,-1
 265 222 l 2,21,13
 382 222 382 222 434.5 258 c 128,-1,14
EndSplineSet
EndChar

StartChar: Q
Encoding: 81 81 140
Width: 809
Flags: W
LayerCount: 2
Fore
SplineSet
774 -81 m 1,1,-1
 711 -127 l 1,2,3
 662 -70 662 -70 582 -40 c 128,-1,4
 502 -10 502 -10 401 -10 c 0,5,6
 293 -10 293 -10 211.5 36 c 128,-1,7
 130 82 130 82 86 167 c 128,-1,8
 42 252 42 252 42 365 c 256,9,10
 42 478 42 478 86 563 c 128,-1,11
 130 648 130 648 211.5 694 c 128,-1,12
 293 740 293 740 401 740 c 256,13,14
 509 740 509 740 590.5 694 c 128,-1,15
 672 648 672 648 716 563 c 128,-1,16
 760 478 760 478 760 365 c 0,17,18
 760 245 760 245 708.5 158 c 128,-1,19
 657 71 657 71 564 30 c 1,20,0
 698 -2 698 -2 774 -81 c 1,1,-1
158 204.5 m 128,-1,22
 192 136 192 136 254.5 99.5 c 128,-1,23
 317 63 317 63 401 63 c 256,24,25
 485 63 485 63 547.5 99.5 c 128,-1,26
 610 136 610 136 644 204.5 c 128,-1,27
 678 273 678 273 678 365 c 256,28,29
 678 457 678 457 644 525.5 c 128,-1,30
 610 594 610 594 547.5 630.5 c 128,-1,31
 485 667 485 667 401 667 c 256,32,33
 317 667 317 667 254.5 630.5 c 128,-1,34
 192 594 192 594 158 525.5 c 128,-1,35
 124 457 124 457 124 365 c 256,36,21
 124 273 124 273 158 204.5 c 128,-1,22
EndSplineSet
EndChar

StartChar: R
Encoding: 82 82 141
Width: 626
GlyphClass: 2
Flags: W
AnchorPoint: "Anchor-6" 303 730 basechar 0
AnchorPoint: "Anchor-4" 303 0 basechar 0
LayerCount: 2
Fore
SplineSet
234 318 m 1,0,-1
 165 318 l 1,1,-1
 165 0 l 1,2,-1
 85 0 l 1,3,-1
 85 730 l 1,4,-1
 275 730 l 2,5,6
 427 730 427 730 497.5 681 c 128,-1,7
 568 632 568 632 568 525 c 0,8,9
 568 427 568 427 509 376.5 c 128,-1,10
 450 326 450 326 327 319 c 1,11,-1
 592 0 l 1,12,-1
 496 0 l 1,13,-1
 234 318 l 1,0,-1
165 389 m 1,14,-1
 278 389 l 2,15,16
 389 389 389 389 438 420 c 128,-1,17
 487 451 487 451 487 522 c 256,18,19
 487 593 487 593 438 625 c 128,-1,20
 389 657 389 657 278 657 c 2,21,-1
 165 657 l 1,22,-1
 165 389 l 1,14,-1
EndSplineSet
EndChar

StartChar: S
Encoding: 83 83 147
Width: 610
GlyphClass: 2
Flags: W
AnchorPoint: "Anchor-6" 303 730 basechar 0
AnchorPoint: "Anchor-4" 303 0 basechar 0
LayerCount: 2
Fore
SplineSet
166.5 5.5 m 128,-1,1
 105 21 105 21 57 50 c 1,2,-1
 86 119 l 1,3,4
 132 92 132 92 186.5 77.5 c 128,-1,5
 241 63 241 63 296 63 c 0,6,7
 379 63 379 63 425 96.5 c 128,-1,8
 471 130 471 130 471 192 c 0,9,10
 471 234 471 234 449 260.5 c 128,-1,11
 427 287 427 287 392 302 c 128,-1,12
 357 317 357 317 297 335 c 0,13,14
 217 360 217 360 167 385 c 128,-1,15
 117 410 117 410 88 449.5 c 128,-1,16
 59 489 59 489 59 549 c 0,17,18
 59 639 59 639 124 689.5 c 128,-1,19
 189 740 189 740 306 740 c 0,20,21
 367 740 367 740 431 726.5 c 128,-1,22
 495 713 495 713 536 691 c 1,23,-1
 507 622 l 1,24,25
 470 642 470 642 415.5 654.5 c 128,-1,26
 361 667 361 667 310 667 c 0,27,28
 230 667 230 667 186 636.5 c 128,-1,29
 142 606 142 606 141 549 c 0,30,31
 141 510 141 510 162.5 485 c 128,-1,32
 184 460 184 460 218 445 c 128,-1,33
 252 430 252 430 311 413 c 0,34,35
 392 387 392 387 442.5 361.5 c 128,-1,36
 493 336 493 336 523 295.5 c 128,-1,37
 553 255 553 255 553 192 c 0,38,39
 554 97 554 97 486 43.5 c 128,-1,40
 418 -10 418 -10 296 -10 c 0,41,0
 228 -10 228 -10 166.5 5.5 c 128,-1,1
EndSplineSet
EndChar

StartChar: Scedilla
Encoding: 350 350 150
Width: 610
GlyphClass: 2
Flags: W
AnchorPoint: "Anchor-6" 303 730 basechar 0
AnchorPoint: "Anchor-4" 303 0 basechar 0
LayerCount: 2
Fore
SplineSet
506 62 m 128,-1,1
 458 11 458 11 370 -4 c 1,2,3
 437 -60 437 -60 437 -120 c 0,4,5
 437 -164 437 -164 399.5 -191 c 128,-1,6
 362 -218 362 -218 287 -218 c 0,7,8
 225 -218 225 -218 177 -197 c 1,9,-1
 191 -135 l 1,10,11
 234 -154 234 -154 281 -154 c 0,12,13
 318 -154 318 -154 340.5 -142.5 c 128,-1,14
 363 -131 363 -131 363 -107 c 0,15,16
 363 -85 363 -85 342 -60 c 128,-1,17
 321 -35 321 -35 281 -10 c 1,18,19
 218 -8 218 -8 160.5 7 c 128,-1,20
 103 22 103 22 57 50 c 1,21,-1
 86 119 l 1,22,23
 132 92 132 92 186.5 77.5 c 128,-1,24
 241 63 241 63 296 63 c 0,25,26
 379 63 379 63 425 96.5 c 128,-1,27
 471 130 471 130 471 192 c 0,28,29
 471 234 471 234 449 260.5 c 128,-1,30
 427 287 427 287 392 302 c 128,-1,31
 357 317 357 317 297 335 c 0,32,33
 217 360 217 360 167 385 c 128,-1,34
 117 410 117 410 88 449.5 c 128,-1,35
 59 489 59 489 59 549 c 0,36,37
 59 639 59 639 124 689.5 c 128,-1,38
 189 740 189 740 306 740 c 0,39,40
 367 740 367 740 431 726.5 c 128,-1,41
 495 713 495 713 536 691 c 1,42,-1
 507 622 l 1,43,44
 470 642 470 642 415.5 654.5 c 128,-1,45
 361 667 361 667 310 667 c 0,46,47
 230 667 230 667 186 636.5 c 128,-1,48
 142 606 142 606 141 549 c 0,49,50
 141 510 141 510 162.5 485 c 128,-1,51
 184 460 184 460 218 445 c 128,-1,52
 252 430 252 430 311 413 c 0,53,54
 392 387 392 387 442.5 361.5 c 128,-1,55
 493 336 493 336 523 295.5 c 128,-1,56
 553 255 553 255 553 192 c 0,57,0
 554 113 554 113 506 62 c 128,-1,1
EndSplineSet
Substitution2: "'locl' Localized Forms in Latin lookup 4 subtable" uni0218
Substitution2: "'aalt' Access All Alternates in Latin lookup 0 subtable" uni0218
EndChar

StartChar: uni1E9E
Encoding: 7838 7838 153
Width: 667
Flags: W
LayerCount: 2
Fore
SplineSet
266 10 m 1,1,-1
 278 81 l 1,2,3
 331 63 331 63 386 63 c 0,4,5
 470 63 470 63 515 96 c 128,-1,6
 560 129 560 129 560 190 c 0,7,8
 560 254 560 254 512 285.5 c 128,-1,9
 464 317 464 317 366 317 c 2,10,-1
 353 317 l 1,11,-1
 353 393 l 1,12,-1
 484 565 l 1,13,14
 481 667 481 667 332 667 c 0,15,16
 244 667 244 667 204.5 628.5 c 128,-1,17
 165 590 165 590 165 504 c 2,18,-1
 165 0 l 1,19,-1
 85 0 l 1,20,-1
 85 504 l 2,21,22
 85 623 85 623 146 681.5 c 128,-1,23
 207 740 207 740 332 740 c 0,24,25
 564 740 564 740 564 544 c 1,26,-1
 439 381 l 1,27,-1
 439 379 l 1,28,29
 537 374 537 374 589.5 325 c 128,-1,30
 642 276 642 276 642 190 c 0,31,32
 642 93 642 93 578.5 41.5 c 128,-1,33
 515 -10 515 -10 396 -10 c 0,34,0
 326 -10 326 -10 266 10 c 1,1,-1
EndSplineSet
EndChar

StartChar: uni018F
Encoding: 399 399 154
Width: 756
Flags: W
LayerCount: 2
Fore
SplineSet
616.5 643 m 128,-1,1
 714 546 714 546 714 365 c 0,2,3
 714 248 714 248 673.5 163.5 c 128,-1,4
 633 79 633 79 557 34.5 c 128,-1,5
 481 -10 481 -10 375 -10 c 0,6,7
 270 -10 270 -10 194.5 34 c 128,-1,8
 119 78 119 78 79.5 161 c 128,-1,9
 40 244 40 244 40 360 c 0,10,11
 40 384 40 384 42 398 c 1,12,-1
 634 398 l 1,13,14
 631 531 631 531 557.5 599 c 128,-1,15
 484 667 484 667 342 667 c 0,16,17
 278 667 278 667 214.5 653.5 c 128,-1,18
 151 640 151 640 95 615 c 1,19,-1
 78 684 l 1,20,21
 132 710 132 710 200 725 c 128,-1,22
 268 740 268 740 337 740 c 0,23,0
 519 740 519 740 616.5 643 c 128,-1,1
560 130 m 128,-1,25
 626 197 626 197 633 325 c 1,26,-1
 121 325 l 1,27,28
 128 197 128 197 194 130 c 128,-1,29
 260 63 260 63 377 63 c 256,30,24
 494 63 494 63 560 130 c 128,-1,25
EndSplineSet
EndChar

StartChar: T
Encoding: 84 84 155
Width: 629
GlyphClass: 2
Flags: W
AnchorPoint: "Anchor-8" 273 0 basechar 0
AnchorPoint: "Anchor-6" 315 730 basechar 0
AnchorPoint: "Anchor-4" 315 0 basechar 0
LayerCount: 2
Fore
SplineSet
273 657 m 1,0,-1
 28 657 l 1,1,-1
 28 730 l 1,2,-1
 601 730 l 1,3,-1
 601 657 l 1,4,-1
 355 657 l 1,5,-1
 355 0 l 1,6,-1
 273 0 l 1,7,-1
 273 657 l 1,0,-1
EndSplineSet
EndChar

StartChar: Tbar
Encoding: 358 358 156
Width: 685
GlyphClass: 2
Flags: W
AnchorPoint: "Anchor-8" 301 0 basechar 0
AnchorPoint: "Anchor-6" 343 730 basechar 0
AnchorPoint: "Anchor-4" 343 0 basechar 0
LayerCount: 2
Fore
SplineSet
629 657 m 1,0,-1
 383 657 l 1,1,-1
 383 348 l 1,2,-1
 566 348 l 1,3,-1
 566 282 l 1,4,-1
 383 282 l 1,5,-1
 383 0 l 1,6,-1
 301 0 l 1,7,-1
 301 282 l 1,8,-1
 119 282 l 1,9,-1
 119 348 l 1,10,-1
 301 348 l 1,11,-1
 301 657 l 1,12,-1
 56 657 l 1,13,-1
 56 730 l 1,14,-1
 629 730 l 1,15,-1
 629 657 l 1,0,-1
EndSplineSet
EndChar

StartChar: uni0162
Encoding: 354 354 158
Width: 629
GlyphClass: 2
Flags: W
AnchorPoint: "Anchor-8" 273 0 basechar 0
AnchorPoint: "Anchor-6" 315 730 basechar 0
AnchorPoint: "Anchor-4" 315 0 basechar 0
LayerCount: 2
Fore
SplineSet
355 657 m 1,0,-1
 355 14 l 1,1,2
 446 -49 446 -49 446 -120 c 0,3,4
 446 -164 446 -164 408.5 -191 c 128,-1,5
 371 -218 371 -218 296 -218 c 0,6,7
 233 -218 233 -218 185 -197 c 1,8,-1
 199 -134 l 1,9,10
 240 -153 240 -153 290 -153 c 0,11,12
 327 -153 327 -153 349 -142 c 128,-1,13
 371 -131 371 -131 371 -107 c 0,14,15
 371 -82 371 -82 346 -54.5 c 128,-1,16
 321 -27 321 -27 274 0 c 1,17,-1
 273 0 l 1,18,-1
 273 657 l 1,19,-1
 28 657 l 1,20,-1
 28 730 l 1,21,-1
 601 730 l 1,22,-1
 601 657 l 1,23,-1
 355 657 l 1,0,-1
EndSplineSet
Substitution2: "'locl' Localized Forms in Latin lookup 4 subtable" uni021A
Substitution2: "'aalt' Access All Alternates in Latin lookup 0 subtable" uni021A
EndChar

StartChar: U
Encoding: 85 85 160
Width: 699
GlyphClass: 2
Flags: W
AnchorPoint: "Anchor-7" 613 690 basechar 0
AnchorPoint: "Anchor-6" 350 730 basechar 0
AnchorPoint: "Anchor-5" 470 10 basechar 0
AnchorPoint: "Anchor-4" 350 0 basechar 0
LayerCount: 2
Fore
SplineSet
145.5 61 m 128,-1,1
 76 132 76 132 76 270 c 2,2,-1
 76 730 l 1,3,-1
 156 730 l 1,4,-1
 156 279 l 2,5,6
 156 168 156 168 203.5 115.5 c 128,-1,7
 251 63 251 63 350 63 c 256,8,9
 449 63 449 63 496 115.5 c 128,-1,10
 543 168 543 168 543 279 c 2,11,-1
 543 730 l 1,12,-1
 623 730 l 1,13,-1
 623 270 l 2,14,15
 623 132 623 132 553.5 61 c 128,-1,16
 484 -10 484 -10 350 -10 c 0,17,0
 215 -10 215 -10 145.5 61 c 128,-1,1
EndSplineSet
EndChar

StartChar: Uhorn
Encoding: 431 431 169
Width: 779
GlyphClass: 2
Flags: W
AnchorPoint: "Anchor-7" 827 842 basechar 0
AnchorPoint: "Anchor-6" 350 730 basechar 0
AnchorPoint: "Anchor-5" 470 10 basechar 0
AnchorPoint: "Anchor-4" 350 0 basechar 0
LayerCount: 2
Fore
SplineSet
806 731 m 0,1,2
 806 670 806 670 776 636 c 128,-1,3
 746 602 746 602 692 602 c 0,4,5
 660 602 660 602 623 615 c 1,6,-1
 623 270 l 2,7,8
 623 132 623 132 553.5 61 c 128,-1,9
 484 -10 484 -10 350 -10 c 0,10,11
 215 -10 215 -10 145.5 61 c 128,-1,12
 76 132 76 132 76 270 c 2,13,-1
 76 730 l 1,14,-1
 156 730 l 1,15,-1
 156 279 l 2,16,17
 156 168 156 168 203.5 115.5 c 128,-1,18
 251 63 251 63 350 63 c 256,19,20
 449 63 449 63 496 115.5 c 128,-1,21
 543 168 543 168 543 279 c 2,22,-1
 543 730 l 1,23,-1
 623 730 l 1,24,-1
 623 683 l 1,25,26
 644 671 644 671 666 671 c 0,27,28
 695 671 695 671 710 689 c 128,-1,29
 725 707 725 707 725 741 c 0,30,31
 725 764 725 764 719 793.5 c 128,-1,32
 713 823 713 823 705 842 c 1,33,-1
 787 842 l 1,34,0
 806 785 806 785 806 731 c 0,1,2
EndSplineSet
EndChar

StartChar: Uogonek
Encoding: 370 370 178
Width: 699
GlyphClass: 2
Flags: W
AnchorPoint: "Anchor-7" 613 690 basechar 0
AnchorPoint: "Anchor-6" 350 730 basechar 0
AnchorPoint: "Anchor-5" 470 10 basechar 0
AnchorPoint: "Anchor-4" 350 0 basechar 0
LayerCount: 2
Fore
SplineSet
396.5 -46.5 m 128,-1,1
 373 -73 373 -73 373 -97 c 256,2,3
 373 -121 373 -121 395 -132 c 128,-1,4
 417 -143 417 -143 454 -143 c 0,5,6
 504 -143 504 -143 545 -124 c 1,7,-1
 559 -187 l 1,8,9
 511 -208 511 -208 448 -208 c 0,10,11
 373 -208 373 -208 335.5 -181 c 128,-1,12
 298 -154 298 -154 298 -110 c 0,13,14
 298 -57 298 -57 348 -10 c 1,15,16
 214 -9 214 -9 145 62 c 128,-1,17
 76 133 76 133 76 270 c 2,18,-1
 76 730 l 1,19,-1
 156 730 l 1,20,-1
 156 279 l 2,21,22
 156 168 156 168 203.5 115.5 c 128,-1,23
 251 63 251 63 350 63 c 256,24,25
 449 63 449 63 496 115.5 c 128,-1,26
 543 168 543 168 543 279 c 2,27,-1
 543 730 l 1,28,-1
 623 730 l 1,29,-1
 623 270 l 2,30,31
 623 165 623 165 583 98.5 c 128,-1,32
 543 32 543 32 464 6 c 1,33,0
 420 -20 420 -20 396.5 -46.5 c 128,-1,1
EndSplineSet
EndChar

StartChar: V
Encoding: 86 86 181
Width: 665
Flags: W
LayerCount: 2
Fore
SplineSet
14 730 m 1,0,-1
 102 730 l 1,1,-1
 332 80 l 1,2,-1
 334 80 l 1,3,-1
 563 730 l 1,4,-1
 651 730 l 1,5,-1
 386 0 l 1,6,-1
 280 0 l 1,7,-1
 14 730 l 1,0,-1
EndSplineSet
EndChar

StartChar: W
Encoding: 87 87 182
Width: 917
GlyphClass: 2
Flags: W
AnchorPoint: "Anchor-6" 458 730 basechar 0
AnchorPoint: "Anchor-4" 458 0 basechar 0
LayerCount: 2
Fore
SplineSet
461 644 m 1,0,-1
 459 644 l 1,1,-1
 309 0 l 1,2,-1
 208 0 l 1,3,-1
 28 730 l 1,4,-1
 110 730 l 1,5,-1
 257 86 l 1,6,-1
 259 86 l 1,7,-1
 409 730 l 1,8,-1
 513 730 l 1,9,-1
 664 86 l 1,10,-1
 666 86 l 1,11,-1
 813 730 l 1,12,-1
 892 730 l 1,13,-1
 712 0 l 1,14,-1
 611 0 l 1,15,-1
 461 644 l 1,0,-1
EndSplineSet
EndChar

StartChar: X
Encoding: 88 88 187
Width: 688
Flags: W
LayerCount: 2
Fore
SplineSet
286 368 m 1,0,-1
 55 730 l 1,1,-1
 146 730 l 1,2,-1
 343 416 l 1,3,-1
 345 416 l 1,4,-1
 542 730 l 1,5,-1
 633 730 l 1,6,-1
 402 368 l 1,7,-1
 637 0 l 1,8,-1
 546 0 l 1,9,-1
 345 320 l 1,10,-1
 343 320 l 1,11,-1
 142 0 l 1,12,-1
 51 0 l 1,13,-1
 286 368 l 1,0,-1
EndSplineSet
EndChar

StartChar: Y
Encoding: 89 89 188
Width: 643
GlyphClass: 2
Flags: W
AnchorPoint: "Anchor-6" 322 730 basechar 0
AnchorPoint: "Anchor-4" 322 0 basechar 0
LayerCount: 2
Fore
SplineSet
280 302 m 1,0,-1
 8 730 l 1,1,-1
 100 730 l 1,2,-1
 321 377 l 1,3,-1
 323 377 l 1,4,-1
 543 730 l 1,5,-1
 635 730 l 1,6,-1
 363 302 l 1,7,-1
 363 0 l 1,8,-1
 280 0 l 1,9,-1
 280 302 l 1,0,-1
EndSplineSet
EndChar

StartChar: Z
Encoding: 90 90 197
Width: 636
GlyphClass: 2
Flags: W
AnchorPoint: "Anchor-6" 318 730 basechar 0
AnchorPoint: "Anchor-4" 318 0 basechar 0
LayerCount: 2
Fore
SplineSet
68 73 m 1,0,-1
 469 655 l 1,1,-1
 469 657 l 1,2,-1
 68 657 l 1,3,-1
 68 730 l 1,4,-1
 568 730 l 1,5,-1
 568 657 l 1,6,-1
 167 75 l 1,7,-1
 167 73 l 1,8,-1
 568 73 l 1,9,-1
 568 0 l 1,10,-1
 68 0 l 1,11,-1
 68 73 l 1,0,-1
EndSplineSet
EndChar

StartChar: a
Encoding: 97 97 201
Width: 535
GlyphClass: 2
Flags: W
AnchorPoint: "Anchor-6" 261 520 basechar 0
AnchorPoint: "Anchor-5" 466 0 basechar 0
AnchorPoint: "Anchor-4" 261 0 basechar 0
LayerCount: 2
Fore
SplineSet
384 510 m 128,-1,1
 427 490 427 490 446.5 445.5 c 128,-1,2
 466 401 466 401 466 326 c 2,3,-1
 466 0 l 1,4,-1
 390 0 l 1,5,-1
 390 77 l 1,6,-1
 388 77 l 1,7,8
 360 37 360 37 310 13.5 c 128,-1,9
 260 -10 260 -10 201 -10 c 0,10,11
 122 -10 122 -10 76 31.5 c 128,-1,12
 30 73 30 73 30 144 c 0,13,14
 30 235 30 235 110 284.5 c 128,-1,15
 190 334 190 334 339 334 c 2,16,-1
 387 334 l 1,17,18
 386 384 386 384 374.5 411.5 c 128,-1,19
 363 439 363 439 337 451 c 128,-1,20
 311 463 311 463 264 463 c 0,21,22
 162 463 162 463 71 419 c 1,23,-1
 49 481 l 1,24,25
 149 530 149 530 269 530 c 0,26,0
 341 530 341 530 384 510 c 128,-1,1
302.5 75.5 m 128,-1,28
 341 96 341 96 364 130.5 c 128,-1,29
 387 165 387 165 387 205 c 2,30,-1
 387 270 l 1,31,-1
 339 270 l 2,32,33
 228 270 228 270 168.5 239 c 128,-1,34
 109 208 109 208 109 150 c 0,35,36
 109 107 109 107 139.5 81 c 128,-1,37
 170 55 170 55 220 55 c 0,38,27
 264 55 264 55 302.5 75.5 c 128,-1,28
EndSplineSet
Substitution2: "Single Substitution lookup 21 subtable" ordfeminine
Substitution2: "'aalt' Access All Alternates in Latin lookup 0 subtable" ordfeminine
EndChar

StartChar: uni1EB3
Encoding: 7859 7859 207
Width: 535
GlyphClass: 2
Flags: W
AnchorPoint: "Anchor-6" 263 904 basechar 0
AnchorPoint: "Anchor-5" 466 0 basechar 0
AnchorPoint: "Anchor-4" 261 0 basechar 0
LayerCount: 2
Fore
SplineSet
328.5 665.5 m 128,-1,1
 355 686 355 686 363 724 c 1,2,-1
 311 724 l 1,3,4
 317 739 317 739 321.5 761 c 128,-1,5
 326 783 326 783 326 798 c 0,6,7
 326 823 326 823 309 831.5 c 128,-1,8
 292 840 292 840 246 840 c 0,9,10
 184 840 184 840 123 823 c 1,11,-1
 115 887 l 1,12,13
 183 904 183 904 263 904 c 0,14,15
 320 904 320 904 351.5 897 c 128,-1,16
 383 890 383 890 396.5 873 c 128,-1,17
 410 856 410 856 410 825 c 0,18,19
 410 805 410 805 406 780 c 128,-1,20
 402 755 402 755 395 734 c 1,21,-1
 450 734 l 1,22,23
 444 666 444 666 391.5 623 c 128,-1,24
 339 580 339 580 261 580 c 0,25,26
 182 580 182 580 129.5 623 c 128,-1,27
 77 666 77 666 71 734 c 1,28,-1
 156 734 l 1,29,30
 162 691 162 691 189.5 668 c 128,-1,31
 217 645 217 645 261 645 c 0,32,0
 302 645 302 645 328.5 665.5 c 128,-1,1
384 510 m 128,-1,34
 427 490 427 490 446.5 445.5 c 128,-1,35
 466 401 466 401 466 326 c 2,36,-1
 466 0 l 1,37,-1
 390 0 l 1,38,-1
 390 77 l 1,39,-1
 388 77 l 1,40,41
 360 37 360 37 310 13.5 c 128,-1,42
 260 -10 260 -10 201 -10 c 0,43,44
 122 -10 122 -10 76 31.5 c 128,-1,45
 30 73 30 73 30 144 c 0,46,47
 30 235 30 235 110 284.5 c 128,-1,48
 190 334 190 334 339 334 c 2,49,-1
 387 334 l 1,50,51
 386 384 386 384 374.5 411.5 c 128,-1,52
 363 439 363 439 337 451 c 128,-1,53
 311 463 311 463 264 463 c 0,54,55
 162 463 162 463 71 419 c 1,56,-1
 49 481 l 1,57,58
 149 530 149 530 269 530 c 0,59,33
 341 530 341 530 384 510 c 128,-1,34
302.5 75.5 m 128,-1,61
 341 96 341 96 364 130.5 c 128,-1,62
 387 165 387 165 387 205 c 2,63,-1
 387 270 l 1,64,-1
 339 270 l 2,65,66
 228 270 228 270 168.5 239 c 128,-1,67
 109 208 109 208 109 150 c 0,68,69
 109 107 109 107 139.5 81 c 128,-1,70
 170 55 170 55 220 55 c 0,71,60
 264 55 264 55 302.5 75.5 c 128,-1,61
EndSplineSet
EndChar

StartChar: aogonek
Encoding: 261 261 222
Width: 535
GlyphClass: 2
Flags: W
AnchorPoint: "Anchor-6" 261 520 basechar 0
AnchorPoint: "Anchor-5" 466 0 basechar 0
AnchorPoint: "Anchor-4" 261 0 basechar 0
LayerCount: 2
Fore
SplineSet
555 -197 m 1,0,1
 507 -218 507 -218 444 -218 c 0,2,3
 369 -218 369 -218 331.5 -191 c 128,-1,4
 294 -164 294 -164 294 -120 c 0,5,6
 294 -48 294 -48 390 17 c 1,7,-1
 390 77 l 1,8,-1
 388 77 l 1,9,10
 360 37 360 37 310 13.5 c 128,-1,11
 260 -10 260 -10 201 -10 c 0,12,13
 122 -10 122 -10 76 31.5 c 128,-1,14
 30 73 30 73 30 144 c 0,15,16
 30 235 30 235 110 284.5 c 128,-1,17
 190 334 190 334 339 334 c 2,18,-1
 387 334 l 1,19,20
 386 384 386 384 374.5 411.5 c 128,-1,21
 363 439 363 439 337 451 c 128,-1,22
 311 463 311 463 264 463 c 0,23,24
 162 463 162 463 71 419 c 1,25,-1
 49 481 l 1,26,27
 149 530 149 530 269 530 c 0,28,29
 341 530 341 530 384 510 c 128,-1,30
 427 490 427 490 446.5 445.5 c 128,-1,31
 466 401 466 401 466 326 c 2,32,-1
 466 0 l 1,33,34
 419 -27 419 -27 394 -54.5 c 128,-1,35
 369 -82 369 -82 369 -107 c 0,36,37
 369 -131 369 -131 391 -142 c 128,-1,38
 413 -153 413 -153 450 -153 c 0,39,40
 500 -153 500 -153 541 -134 c 1,41,-1
 555 -197 l 1,0,1
302.5 75.5 m 128,-1,43
 341 96 341 96 364 130.5 c 128,-1,44
 387 165 387 165 387 205 c 2,45,-1
 387 270 l 1,46,-1
 339 270 l 2,47,48
 228 270 228 270 168.5 239 c 128,-1,49
 109 208 109 208 109 150 c 0,50,51
 109 107 109 107 139.5 81 c 128,-1,52
 170 55 170 55 220 55 c 0,53,42
 264 55 264 55 302.5 75.5 c 128,-1,43
EndSplineSet
EndChar

StartChar: aring
Encoding: 229 229 223
Width: 535
GlyphClass: 2
Flags: W
AnchorPoint: "Anchor-6" 261 723 basechar 0
AnchorPoint: "Anchor-5" 466 0 basechar 0
AnchorPoint: "Anchor-4" 261 0 basechar 0
LayerCount: 2
Fore
SplineSet
430.5 472 m 128,-1,1
 466 425 466 425 466 326 c 2,2,-1
 466 0 l 1,3,-1
 390 0 l 1,4,-1
 390 77 l 1,5,-1
 388 77 l 1,6,7
 360 37 360 37 310 13.5 c 128,-1,8
 260 -10 260 -10 201 -10 c 0,9,10
 122 -10 122 -10 76 31.5 c 128,-1,11
 30 73 30 73 30 144 c 0,12,13
 30 235 30 235 110 284.5 c 128,-1,14
 190 334 190 334 339 334 c 2,15,-1
 387 334 l 1,16,17
 386 384 386 384 374.5 411.5 c 128,-1,18
 363 439 363 439 337 451 c 128,-1,19
 311 463 311 463 264 463 c 0,20,21
 162 463 162 463 71 419 c 1,22,-1
 49 481 l 1,23,24
 124 518 124 518 212 527 c 1,25,26
 171 542 171 542 145.5 578.5 c 128,-1,27
 120 615 120 615 120 660 c 0,28,29
 120 698 120 698 139 731 c 128,-1,30
 158 764 158 764 190.5 783 c 128,-1,31
 223 802 223 802 262 802 c 0,32,33
 300 802 300 802 332.5 783 c 128,-1,34
 365 764 365 764 384 731 c 128,-1,35
 403 698 403 698 403 660 c 0,36,37
 403 616 403 616 378.5 580 c 128,-1,38
 354 544 354 544 314 528 c 1,39,0
 395 519 395 519 430.5 472 c 128,-1,1
204 602 m 128,-1,41
 228 578 228 578 262 578 c 256,42,43
 296 578 296 578 319.5 602 c 128,-1,44
 343 626 343 626 343 660 c 256,45,46
 343 694 343 694 319.5 718 c 128,-1,47
 296 742 296 742 262 742 c 256,48,49
 228 742 228 742 204 718 c 128,-1,50
 180 694 180 694 180 660 c 256,51,40
 180 626 180 626 204 602 c 128,-1,41
302.5 75.5 m 128,-1,53
 341 96 341 96 364 130.5 c 128,-1,54
 387 165 387 165 387 205 c 2,55,-1
 387 270 l 1,56,-1
 339 270 l 2,57,58
 228 270 228 270 168.5 239 c 128,-1,59
 109 208 109 208 109 150 c 0,60,61
 109 107 109 107 139.5 81 c 128,-1,62
 170 55 170 55 220 55 c 0,63,52
 264 55 264 55 302.5 75.5 c 128,-1,53
EndSplineSet
EndChar

StartChar: aringacute
Encoding: 507 507 224
Width: 535
GlyphClass: 2
Flags: W
AnchorPoint: "Anchor-6" 261 723 basechar 0
AnchorPoint: "Anchor-5" 466 0 basechar 0
AnchorPoint: "Anchor-4" 261 0 basechar 0
LayerCount: 2
Fore
SplineSet
430.5 472 m 128,-1,1
 466 425 466 425 466 326 c 2,2,-1
 466 0 l 1,3,-1
 390 0 l 1,4,-1
 390 77 l 1,5,-1
 388 77 l 1,6,7
 360 37 360 37 310 13.5 c 128,-1,8
 260 -10 260 -10 201 -10 c 0,9,10
 122 -10 122 -10 76 31.5 c 128,-1,11
 30 73 30 73 30 144 c 0,12,13
 30 235 30 235 110 284.5 c 128,-1,14
 190 334 190 334 339 334 c 2,15,-1
 387 334 l 1,16,17
 386 384 386 384 374.5 411.5 c 128,-1,18
 363 439 363 439 337 451 c 128,-1,19
 311 463 311 463 264 463 c 0,20,21
 162 463 162 463 71 419 c 1,22,-1
 49 481 l 1,23,24
 124 518 124 518 212 527 c 1,25,26
 171 542 171 542 145.5 578.5 c 128,-1,27
 120 615 120 615 120 660 c 0,28,29
 120 694 120 694 135 723.5 c 128,-1,30
 150 753 150 753 176 773 c 1,31,-1
 274 973 l 1,32,-1
 375 973 l 1,33,-1
 275 801 l 1,34,35
 329 796 329 796 366 755.5 c 128,-1,36
 403 715 403 715 403 660 c 0,37,38
 403 616 403 616 378.5 580 c 128,-1,39
 354 544 354 544 314 528 c 1,40,0
 395 519 395 519 430.5 472 c 128,-1,1
204 602 m 128,-1,42
 228 578 228 578 262 578 c 256,43,44
 296 578 296 578 319.5 602 c 128,-1,45
 343 626 343 626 343 660 c 256,46,47
 343 694 343 694 319.5 718 c 128,-1,48
 296 742 296 742 262 742 c 256,49,50
 228 742 228 742 204 718 c 128,-1,51
 180 694 180 694 180 660 c 256,52,41
 180 626 180 626 204 602 c 128,-1,42
302.5 75.5 m 128,-1,54
 341 96 341 96 364 130.5 c 128,-1,55
 387 165 387 165 387 205 c 2,56,-1
 387 270 l 1,57,-1
 339 270 l 2,58,59
 228 270 228 270 168.5 239 c 128,-1,60
 109 208 109 208 109 150 c 0,61,62
 109 107 109 107 139.5 81 c 128,-1,63
 170 55 170 55 220 55 c 0,64,53
 264 55 264 55 302.5 75.5 c 128,-1,54
EndSplineSet
EndChar

StartChar: ae
Encoding: 230 230 226
Width: 894
GlyphClass: 2
Flags: W
AnchorPoint: "Anchor-6" 447 520 basechar 0
AnchorPoint: "Anchor-4" 447 0 basechar 0
LayerCount: 2
Fore
SplineSet
856 229 m 1,1,-1
 464 229 l 1,2,3
 468 144 468 144 514.5 100.5 c 128,-1,4
 561 57 561 57 647 57 c 0,5,6
 689 57 689 57 732 67 c 128,-1,7
 775 77 775 77 808 94 c 1,8,-1
 827 33 l 1,9,10
 788 13 788 13 740 1.5 c 128,-1,11
 692 -10 692 -10 643 -10 c 0,12,13
 568 -10 568 -10 513.5 16.5 c 128,-1,14
 459 43 459 43 427 94 c 1,15,16
 396 44 396 44 342 17 c 128,-1,17
 288 -10 288 -10 216 -10 c 0,18,19
 130 -10 130 -10 80.5 31 c 128,-1,20
 31 72 31 72 31 143 c 0,21,22
 31 235 31 235 111 284.5 c 128,-1,23
 191 334 191 334 339 334 c 2,24,-1
 387 334 l 1,25,26
 386 384 386 384 374.5 412 c 128,-1,27
 363 440 363 440 336.5 451.5 c 128,-1,28
 310 463 310 463 263 463 c 0,29,30
 162 463 162 463 71 419 c 1,31,-1
 49 481 l 1,32,33
 149 530 149 530 269 530 c 0,34,35
 338 530 338 530 380 511 c 128,-1,36
 422 492 422 492 442 450 c 1,37,38
 505 530 505 530 625 530 c 0,39,40
 737 530 737 530 797 460.5 c 128,-1,41
 857 391 857 391 857 260 c 0,42,0
 857 238 857 238 856 229 c 1,1,-1
465 293 m 1,44,-1
 782 293 l 1,45,46
 773 465 773 465 625 465 c 0,47,43
 475 465 475 465 465 293 c 1,44,-1
387 270 m 1,48,-1
 339 270 l 2,49,50
 227 270 227 270 168 239 c 128,-1,51
 109 208 109 208 109 149 c 0,52,53
 109 106 109 106 139.5 80.5 c 128,-1,54
 170 55 170 55 220 55 c 0,55,56
 264 55 264 55 302.5 75.5 c 128,-1,57
 341 96 341 96 364 130.5 c 128,-1,58
 387 165 387 165 387 205 c 2,59,-1
 387 270 l 1,48,-1
EndSplineSet
EndChar

StartChar: b
Encoding: 98 98 228
Width: 581
Flags: W
LayerCount: 2
Fore
SplineSet
485.5 459.5 m 128,-1,1
 539 389 539 389 539 260 c 256,2,3
 539 131 539 131 485.5 60.5 c 128,-1,4
 432 -10 432 -10 334 -10 c 0,5,6
 277 -10 277 -10 229.5 13.5 c 128,-1,7
 182 37 182 37 154 80 c 1,8,-1
 152 80 l 1,9,-1
 152 0 l 1,10,-1
 76 0 l 1,11,-1
 76 750 l 1,12,-1
 155 750 l 1,13,-1
 155 440 l 1,14,-1
 157 440 l 1,15,16
 184 483 184 483 230.5 506.5 c 128,-1,17
 277 530 277 530 334 530 c 0,18,0
 432 530 432 530 485.5 459.5 c 128,-1,1
420 111 m 128,-1,20
 459 165 459 165 459 260 c 256,21,22
 459 355 459 355 420 409 c 128,-1,23
 381 463 381 463 313 463 c 0,24,25
 269 463 269 463 232.5 439.5 c 128,-1,26
 196 416 196 416 175.5 375 c 128,-1,27
 155 334 155 334 155 283 c 2,28,-1
 155 237 l 2,29,30
 155 186 155 186 175.5 145 c 128,-1,31
 196 104 196 104 232.5 80.5 c 128,-1,32
 269 57 269 57 313 57 c 0,33,19
 381 57 381 57 420 111 c 128,-1,20
EndSplineSet
EndChar

StartChar: c
Encoding: 99 99 229
Width: 523
GlyphClass: 2
Flags: W
AnchorPoint: "Anchor-6" 275 520 basechar 0
AnchorPoint: "Anchor-4" 275 0 basechar 0
LayerCount: 2
Fore
SplineSet
107.5 61.5 m 128,-1,1
 38 133 38 133 38 260 c 256,2,3
 38 387 38 387 107.5 458.5 c 128,-1,4
 177 530 177 530 302 530 c 0,5,6
 387 530 387 530 458 493 c 1,7,-1
 435 432 l 1,8,9
 372 463 372 463 306 463 c 0,10,11
 216 463 216 463 166.5 410 c 128,-1,12
 117 357 117 357 117 260 c 256,13,14
 117 163 117 163 166.5 110 c 128,-1,15
 216 57 216 57 306 57 c 0,16,17
 372 57 372 57 435 88 c 1,18,-1
 458 27 l 1,19,20
 387 -10 387 -10 302 -10 c 0,21,0
 177 -10 177 -10 107.5 61.5 c 128,-1,1
EndSplineSet
EndChar

StartChar: ccedilla
Encoding: 231 231 232
Width: 523
GlyphClass: 2
Flags: W
AnchorPoint: "Anchor-6" 275 520 basechar 0
AnchorPoint: "Anchor-4" 275 0 basechar 0
LayerCount: 2
Fore
SplineSet
458 27 m 1,0,1
 408 1 408 1 350 -7 c 1,2,3
 413 -61 413 -61 413 -120 c 0,4,5
 413 -164 413 -164 375.5 -191 c 128,-1,6
 338 -218 338 -218 263 -218 c 0,7,8
 201 -218 201 -218 153 -197 c 1,9,-1
 167 -135 l 1,10,11
 210 -154 210 -154 257 -154 c 0,12,13
 294 -154 294 -154 316.5 -142.5 c 128,-1,14
 339 -131 339 -131 339 -107 c 0,15,16
 339 -84 339 -84 317 -58.5 c 128,-1,17
 295 -33 295 -33 253 -7 c 1,18,19
 151 7 151 7 94.5 76.5 c 128,-1,20
 38 146 38 146 38 260 c 0,21,22
 38 387 38 387 107.5 458.5 c 128,-1,23
 177 530 177 530 302 530 c 0,24,25
 387 530 387 530 458 493 c 1,26,-1
 435 432 l 1,27,28
 372 463 372 463 306 463 c 0,29,30
 216 463 216 463 166.5 410 c 128,-1,31
 117 357 117 357 117 260 c 256,32,33
 117 163 117 163 166.5 110 c 128,-1,34
 216 57 216 57 306 57 c 0,35,36
 372 57 372 57 435 88 c 1,37,-1
 458 27 l 1,0,1
EndSplineSet
EndChar

StartChar: d
Encoding: 100 100 235
Width: 581
Flags: W
LayerCount: 2
Fore
SplineSet
505 750 m 1,0,-1
 505 0 l 1,1,-1
 429 0 l 1,2,-1
 429 80 l 1,3,-1
 427 80 l 1,4,5
 399 37 399 37 351.5 13.5 c 128,-1,6
 304 -10 304 -10 247 -10 c 0,7,8
 149 -10 149 -10 95.5 60.5 c 128,-1,9
 42 131 42 131 42 260 c 256,10,11
 42 389 42 389 95.5 459.5 c 128,-1,12
 149 530 149 530 247 530 c 0,13,14
 304 530 304 530 350.5 506.5 c 128,-1,15
 397 483 397 483 424 440 c 1,16,-1
 426 440 l 1,17,-1
 426 750 l 1,18,-1
 505 750 l 1,0,-1
348.5 80.5 m 128,-1,20
 385 104 385 104 405.5 145 c 128,-1,21
 426 186 426 186 426 237 c 2,22,-1
 426 283 l 2,23,24
 426 334 426 334 405.5 375 c 128,-1,25
 385 416 385 416 348.5 439.5 c 128,-1,26
 312 463 312 463 268 463 c 0,27,28
 200 463 200 463 161 409 c 128,-1,29
 122 355 122 355 122 260 c 256,30,31
 122 165 122 165 161 111 c 128,-1,32
 200 57 200 57 268 57 c 0,33,19
 312 57 312 57 348.5 80.5 c 128,-1,20
EndSplineSet
EndChar

StartChar: eth
Encoding: 240 240 236
Width: 582
Flags: W
LayerCount: 2
Fore
SplineSet
412 619 m 1,0,1
 470 544 470 544 502.5 449 c 128,-1,2
 535 354 535 354 535 254 c 0,3,4
 535 129 535 129 470 59.5 c 128,-1,5
 405 -10 405 -10 287 -10 c 0,6,7
 170 -10 170 -10 104 56.5 c 128,-1,8
 38 123 38 123 38 241 c 0,9,10
 38 353 38 353 102 416.5 c 128,-1,11
 166 480 166 480 276 480 c 0,12,13
 373 480 373 480 428 428 c 1,14,-1
 430 429 l 1,15,16
 399 523 399 523 341 591 c 1,17,-1
 112 500 l 1,18,-1
 85 563 l 1,19,-1
 290 644 l 1,20,21
 215 709 215 709 133 724 c 1,22,-1
 150 790 l 1,23,24
 267 770 267 770 364 674 c 1,25,-1
 525 738 l 1,26,-1
 552 675 l 1,27,-1
 412 619 l 1,0,1
411.5 105.5 m 128,-1,29
 456 154 456 154 456 241 c 0,30,31
 456 324 456 324 412.5 368.5 c 128,-1,32
 369 413 369 413 287 413 c 256,33,34
 205 413 205 413 161 368.5 c 128,-1,35
 117 324 117 324 117 241 c 0,36,37
 117 154 117 154 162 105.5 c 128,-1,38
 207 57 207 57 287 57 c 256,39,28
 367 57 367 57 411.5 105.5 c 128,-1,29
EndSplineSet
EndChar

StartChar: dcroat
Encoding: 273 273 238
Width: 646
Flags: W
LayerCount: 2
Fore
SplineSet
618 592 m 1,0,-1
 505 592 l 1,1,-1
 505 0 l 1,2,-1
 429 0 l 1,3,-1
 429 80 l 1,4,-1
 427 80 l 1,5,6
 399 37 399 37 351.5 13.5 c 128,-1,7
 304 -10 304 -10 247 -10 c 0,8,9
 149 -10 149 -10 95.5 60.5 c 128,-1,10
 42 131 42 131 42 260 c 256,11,12
 42 389 42 389 95.5 459.5 c 128,-1,13
 149 530 149 530 247 530 c 0,14,15
 304 530 304 530 350.5 506.5 c 128,-1,16
 397 483 397 483 424 440 c 1,17,-1
 426 440 l 1,18,-1
 426 592 l 1,19,-1
 198 592 l 1,20,-1
 198 658 l 1,21,-1
 426 658 l 1,22,-1
 426 750 l 1,23,-1
 505 750 l 1,24,-1
 505 658 l 1,25,-1
 618 658 l 1,26,-1
 618 592 l 1,0,-1
348.5 80.5 m 128,-1,28
 385 104 385 104 405.5 145 c 128,-1,29
 426 186 426 186 426 237 c 2,30,-1
 426 283 l 2,31,32
 426 334 426 334 405.5 375 c 128,-1,33
 385 416 385 416 348.5 439.5 c 128,-1,34
 312 463 312 463 268 463 c 0,35,36
 200 463 200 463 161 409 c 128,-1,37
 122 355 122 355 122 260 c 256,38,39
 122 165 122 165 161 111 c 128,-1,40
 200 57 200 57 268 57 c 0,41,27
 312 57 312 57 348.5 80.5 c 128,-1,28
EndSplineSet
EndChar

StartChar: e
Encoding: 101 101 240
Width: 545
GlyphClass: 2
Flags: W
AnchorPoint: "Anchor-6" 276 520 basechar 0
AnchorPoint: "Anchor-5" 482 30 basechar 0
AnchorPoint: "Anchor-4" 276 0 basechar 0
LayerCount: 2
Fore
SplineSet
508 229 m 1,0,-1
 116 229 l 1,1,2
 125 57 125 57 309 57 c 0,3,4
 390 57 390 57 462 89 c 1,5,-1
 482 26 l 1,6,7
 401 -10 401 -10 305 -10 c 0,8,9
 177 -10 177 -10 107.5 60 c 128,-1,10
 38 130 38 130 38 260 c 0,11,12
 38 388 38 388 101 459 c 128,-1,13
 164 530 164 530 277 530 c 0,14,15
 389 530 389 530 449 460 c 128,-1,16
 509 390 509 390 509 260 c 1,17,-1
 508 229 l 1,0,-1
117 293 m 1,19,-1
 434 293 l 1,20,21
 425 465 425 465 277 465 c 0,22,18
 127 465 127 465 117 293 c 1,19,-1
EndSplineSet
EndChar

StartChar: eogonek
Encoding: 281 281 258
Width: 545
GlyphClass: 2
Flags: W
AnchorPoint: "Anchor-6" 276 520 basechar 0
AnchorPoint: "Anchor-5" 482 30 basechar 0
AnchorPoint: "Anchor-4" 276 0 basechar 0
LayerCount: 2
Fore
SplineSet
571 -167 m 1,0,1
 523 -188 523 -188 460 -188 c 0,2,3
 385 -188 385 -188 347.5 -161 c 128,-1,4
 310 -134 310 -134 310 -90 c 0,5,6
 310 -47 310 -47 343 -8 c 1,7,8
 317 -10 317 -10 305 -10 c 0,9,10
 177 -10 177 -10 107.5 60 c 128,-1,11
 38 130 38 130 38 260 c 0,12,13
 38 388 38 388 101 459 c 128,-1,14
 164 530 164 530 277 530 c 0,15,16
 389 530 389 530 449 460 c 128,-1,17
 509 390 509 390 509 260 c 1,18,-1
 508 229 l 1,19,-1
 116 229 l 1,20,21
 125 57 125 57 309 57 c 0,22,23
 390 57 390 57 462 89 c 1,24,-1
 481 30 l 1,25,-1
 482 30 l 1,26,27
 482 30 482 30 481.5 29.5 c 128,-1,28
 481 29 481 29 481 29 c 1,29,-1
 482 26 l 1,30,31
 477 23 477 23 471.5 21.5 c 128,-1,32
 466 20 466 20 462 18 c 0,33,34
 425 -6 425 -6 405 -30.5 c 128,-1,35
 385 -55 385 -55 385 -77 c 0,36,37
 385 -101 385 -101 407 -112 c 128,-1,38
 429 -123 429 -123 466 -123 c 0,39,40
 516 -123 516 -123 557 -104 c 1,41,-1
 571 -167 l 1,0,1
117 293 m 1,43,-1
 434 293 l 1,44,45
 425 465 425 465 277 465 c 0,46,42
 127 465 127 465 117 293 c 1,43,-1
EndSplineSet
EndChar

StartChar: uni0259
Encoding: 601 601 260
Width: 546
GlyphClass: 2
Flags: W
AnchorPoint: "Anchor-6" 269 520 basechar 0
AnchorPoint: "Anchor-5" 63 490 basechar 0
AnchorPoint: "Anchor-4" 269 0 basechar 0
LayerCount: 2
Fore
SplineSet
438 460 m 128,-1,1
 507 390 507 390 507 260 c 0,2,3
 507 132 507 132 444.5 61 c 128,-1,4
 382 -10 382 -10 268 -10 c 0,5,6
 156 -10 156 -10 96 60 c 128,-1,7
 36 130 36 130 36 260 c 0,8,9
 36 273 36 273 38 291 c 1,10,-1
 430 291 l 1,11,12
 420 463 420 463 237 463 c 0,13,14
 155 463 155 463 83 431 c 1,15,-1
 64 494 l 1,16,17
 102 511 102 511 148 520.5 c 128,-1,18
 194 530 194 530 241 530 c 0,19,0
 369 530 369 530 438 460 c 128,-1,1
429 227 m 1,21,-1
 111 227 l 1,22,23
 120 55 120 55 268 55 c 0,24,20
 419 55 419 55 429 227 c 1,21,-1
EndSplineSet
EndChar

StartChar: f
Encoding: 102 102 261
Width: 443
Flags: W
LayerCount: 2
Fore
SplineSet
23 453 m 1,0,-1
 23 520 l 1,1,-1
 166 520 l 1,2,-1
 166 587 l 2,3,4
 166 760 166 760 320 760 c 0,5,6
 370 760 370 760 420 745 c 1,7,-1
 406 680 l 1,8,9
 370 693 370 693 332 693 c 0,10,11
 285 693 285 693 265.5 669 c 128,-1,12
 246 645 246 645 246 587 c 2,13,-1
 246 520 l 1,14,-1
 414 520 l 1,15,-1
 414 453 l 1,16,-1
 246 453 l 1,17,-1
 246 0 l 1,18,-1
 166 0 l 1,19,-1
 166 453 l 1,20,-1
 23 453 l 1,0,-1
EndSplineSet
EndChar

StartChar: g
Encoding: 103 103 262
Width: 581
GlyphClass: 2
Flags: W
AnchorPoint: "Anchor-6" 287 520 basechar 0
AnchorPoint: "Anchor-4" 287 -140 basechar 0
LayerCount: 2
Fore
SplineSet
504 520 m 1,0,-1
 504 40 l 2,1,2
 504 -230 504 -230 252 -230 c 0,3,4
 153 -230 153 -230 57 -189 c 1,5,-1
 77 -127 l 1,6,7
 159 -163 159 -163 242 -163 c 0,8,9
 336 -163 336 -163 380.5 -113.5 c 128,-1,10
 425 -64 425 -64 425 40 c 2,11,-1
 425 80 l 1,12,-1
 423 80 l 1,13,14
 398 37 398 37 351 13.5 c 128,-1,15
 304 -10 304 -10 247 -10 c 0,16,17
 149 -10 149 -10 95.5 60.5 c 128,-1,18
 42 131 42 131 42 260 c 256,19,20
 42 389 42 389 95.5 459.5 c 128,-1,21
 149 530 149 530 247 530 c 0,22,23
 304 530 304 530 351 506.5 c 128,-1,24
 398 483 398 483 426 440 c 1,25,-1
 428 440 l 1,26,-1
 429 520 l 1,27,-1
 504 520 l 1,0,-1
348 80.5 m 128,-1,29
 384 104 384 104 404.5 145 c 128,-1,30
 425 186 425 186 425 237 c 2,31,-1
 425 283 l 2,32,33
 425 334 425 334 404.5 375 c 128,-1,34
 384 416 384 416 348 439.5 c 128,-1,35
 312 463 312 463 268 463 c 0,36,37
 200 463 200 463 160.5 408.5 c 128,-1,38
 121 354 121 354 121 260 c 256,39,40
 121 166 121 166 160.5 111.5 c 128,-1,41
 200 57 200 57 268 57 c 0,42,28
 312 57 312 57 348 80.5 c 128,-1,29
EndSplineSet
EndChar

StartChar: h
Encoding: 104 104 268
Width: 586
GlyphClass: 2
Flags: W
AnchorPoint: "Anchor-6" 284 750 basechar 0
AnchorPoint: "Anchor-4" 284 0 basechar 0
LayerCount: 2
Fore
SplineSet
517 320 m 2,1,-1
 517 0 l 1,2,-1
 437 0 l 1,3,-1
 437 306 l 2,4,5
 437 385 437 385 410.5 424 c 128,-1,6
 384 463 384 463 331 463 c 0,7,8
 285 463 285 463 244.5 436.5 c 128,-1,9
 204 410 204 410 179.5 366.5 c 128,-1,10
 155 323 155 323 155 273 c 2,11,-1
 155 0 l 1,12,-1
 76 0 l 1,13,-1
 76 750 l 1,14,-1
 155 750 l 1,15,-1
 155 433 l 1,16,-1
 157 433 l 1,17,18
 187 478 187 478 239 504 c 128,-1,19
 291 530 291 530 351 530 c 0,20,0
 517 530 517 530 517 320 c 2,1,-1
EndSplineSet
EndChar

StartChar: hbar
Encoding: 295 295 269
Width: 651
GlyphClass: 2
Flags: W
AnchorPoint: "Anchor-6" 349 750 basechar 0
AnchorPoint: "Anchor-4" 349 0 basechar 0
LayerCount: 2
Fore
SplineSet
541 478 m 128,-1,1
 582 426 582 426 582 320 c 2,2,-1
 582 0 l 1,3,-1
 503 0 l 1,4,-1
 503 306 l 2,5,6
 503 385 503 385 476.5 424 c 128,-1,7
 450 463 450 463 397 463 c 0,8,9
 351 463 351 463 310.5 436.5 c 128,-1,10
 270 410 270 410 245.5 366.5 c 128,-1,11
 221 323 221 323 221 273 c 2,12,-1
 221 0 l 1,13,-1
 142 0 l 1,14,-1
 142 592 l 1,15,-1
 29 592 l 1,16,-1
 29 658 l 1,17,-1
 142 658 l 1,18,-1
 142 750 l 1,19,-1
 221 750 l 1,20,-1
 221 658 l 1,21,-1
 449 658 l 1,22,-1
 449 592 l 1,23,-1
 221 592 l 1,24,-1
 221 433 l 1,25,-1
 223 433 l 1,26,27
 252 478 252 478 304 504 c 128,-1,28
 356 530 356 530 417 530 c 0,29,0
 500 530 500 530 541 478 c 128,-1,1
EndSplineSet
EndChar

StartChar: i
Encoding: 105 105 271
Width: 261
GlyphClass: 2
Flags: W
AnchorPoint: "Anchor-6" 131 520 basechar 0
AnchorPoint: "Anchor-5" 171 0 basechar 0
AnchorPoint: "Anchor-4" 131 0 basechar 0
LayerCount: 2
Fore
SplineSet
84 737 m 1,0,-1
 177 737 l 1,1,-1
 177 643 l 1,2,-1
 84 643 l 1,3,-1
 84 737 l 1,0,-1
91 520 m 1,4,-1
 171 520 l 1,5,-1
 171 0 l 1,6,-1
 91 0 l 1,7,-1
 91 520 l 1,4,-1
EndSplineSet
Substitution2: "Single Substitution lookup 19 subtable" dotlessi
Substitution2: "'locl' Localized Forms in Latin lookup 3 subtable" i.loclTRK
Substitution2: "'aalt' Access All Alternates in Latin lookup 0 subtable" i.loclTRK
EndChar

StartChar: dotlessi
Encoding: 305 305 272
Width: 248
GlyphClass: 2
Flags: W
AnchorPoint: "Anchor-6" 124 520 basechar 0
AnchorPoint: "Anchor-5" 164 0 basechar 0
AnchorPoint: "Anchor-4" 124 0 basechar 0
LayerCount: 2
Fore
SplineSet
84 520 m 1,0,-1
 164 520 l 1,1,-1
 164 0 l 1,2,-1
 84 0 l 1,3,-1
 84 520 l 1,0,-1
EndSplineSet
EndChar

StartChar: iogonek
Encoding: 303 303 284
Width: 248
GlyphClass: 2
Flags: W
AnchorPoint: "Anchor-6" 124 717 basechar 0
AnchorPoint: "Anchor-5" 164 0 basechar 0
AnchorPoint: "Anchor-4" 124 0 basechar 0
LayerCount: 2
Fore
SplineSet
176 717 m 1,0,-1
 176 613 l 1,1,-1
 72 613 l 1,2,-1
 72 717 l 1,3,-1
 176 717 l 1,0,-1
253 -197 m 1,4,5
 205 -218 205 -218 142 -218 c 0,6,7
 67 -218 67 -218 29.5 -191 c 128,-1,8
 -8 -164 -8 -164 -8 -120 c 0,9,10
 -8 -49 -8 -49 84 14 c 1,11,-1
 84 520 l 1,12,-1
 164 520 l 1,13,-1
 164 0 l 1,14,15
 117 -27 117 -27 92 -54.5 c 128,-1,16
 67 -82 67 -82 67 -107 c 0,17,18
 67 -131 67 -131 89 -142 c 128,-1,19
 111 -153 111 -153 148 -153 c 0,20,21
 198 -153 198 -153 239 -134 c 1,22,-1
 253 -197 l 1,4,5
EndSplineSet
EndChar

StartChar: j
Encoding: 106 106 286
Width: 317
GlyphClass: 2
Flags: W
AnchorPoint: "Anchor-6" 155 520 basechar 0
AnchorPoint: "Anchor-4" 155 -140 basechar 0
LayerCount: 2
Fore
SplineSet
139 737 m 1,0,-1
 233 737 l 1,1,-1
 233 643 l 1,2,-1
 139 643 l 1,3,-1
 139 737 l 1,0,-1
69 -149.5 m 128,-1,5
 113 -136 113 -136 129.5 -99.5 c 128,-1,6
 146 -63 146 -63 146 13 c 2,7,-1
 146 520 l 1,8,-1
 226 520 l 1,9,-1
 226 13 l 2,10,11
 226 -84 226 -84 200.5 -135.5 c 128,-1,12
 175 -187 175 -187 113.5 -208.5 c 128,-1,13
 52 -230 52 -230 -64 -230 c 1,14,-1
 -68 -163 l 1,15,4
 25 -163 25 -163 69 -149.5 c 128,-1,5
EndSplineSet
Substitution2: "Single Substitution lookup 19 subtable" uni0237
EndChar

StartChar: uni0237
Encoding: 567 567 287
Width: 310
GlyphClass: 2
Flags: W
AnchorPoint: "Anchor-6" 155 520 basechar 0
AnchorPoint: "Anchor-4" 155 -140 basechar 0
LayerCount: 2
Fore
SplineSet
69 -149.5 m 128,-1,1
 113 -136 113 -136 129.5 -99.5 c 128,-1,2
 146 -63 146 -63 146 13 c 2,3,-1
 146 520 l 1,4,-1
 226 520 l 1,5,-1
 226 13 l 2,6,7
 226 -84 226 -84 200.5 -135.5 c 128,-1,8
 175 -187 175 -187 113.5 -208.5 c 128,-1,9
 52 -230 52 -230 -64 -230 c 1,10,-1
 -68 -163 l 1,11,0
 25 -163 25 -163 69 -149.5 c 128,-1,1
EndSplineSet
EndChar

StartChar: k
Encoding: 107 107 289
Width: 554
GlyphClass: 2
Flags: W
AnchorPoint: "Anchor-6" 247 750 basechar 0
AnchorPoint: "Anchor-4" 247 0 basechar 0
LayerCount: 2
Fore
SplineSet
76 750 m 1,0,-1
 155 750 l 1,1,-1
 155 296 l 1,2,-1
 157 296 l 1,3,-1
 407 520 l 1,4,-1
 511 520 l 1,5,-1
 226 270 l 1,6,-1
 523 0 l 1,7,-1
 419 0 l 1,8,-1
 157 244 l 1,9,-1
 155 244 l 1,10,-1
 155 0 l 1,11,-1
 76 0 l 1,12,-1
 76 750 l 1,0,-1
EndSplineSet
EndChar

StartChar: kgreenlandic
Encoding: 312 312 291
Width: 554
GlyphClass: 2
Flags: W
AnchorPoint: "Anchor-6" 247 520 basechar 0
AnchorPoint: "Anchor-4" 247 0 basechar 0
LayerCount: 2
Fore
SplineSet
76 520 m 1,0,-1
 155 520 l 1,1,-1
 155 296 l 1,2,-1
 157 296 l 1,3,-1
 407 520 l 1,4,-1
 511 520 l 1,5,-1
 226 270 l 1,6,-1
 523 0 l 1,7,-1
 419 0 l 1,8,-1
 157 244 l 1,9,-1
 155 244 l 1,10,-1
 155 0 l 1,11,-1
 76 0 l 1,12,-1
 76 520 l 1,0,-1
EndSplineSet
EndChar

StartChar: l
Encoding: 108 108 292
Width: 248
GlyphClass: 2
Flags: W
AnchorPoint: "Anchor-7" 228 750 basechar 0
AnchorPoint: "Anchor-6" 124 750 basechar 0
AnchorPoint: "Anchor-4" 124 0 basechar 0
LayerCount: 2
Fore
SplineSet
84 750 m 1,0,-1
 164 750 l 1,1,-1
 164 0 l 1,2,-1
 84 0 l 1,3,-1
 84 750 l 1,0,-1
EndSplineSet
EndChar

StartChar: lslash
Encoding: 322 322 298
Width: 427
GlyphClass: 2
Flags: W
AnchorPoint: "Anchor-7" 318 750 basechar 0
AnchorPoint: "Anchor-6" 214 750 basechar 0
AnchorPoint: "Anchor-4" 214 0 basechar 0
LayerCount: 2
Fore
SplineSet
415 415 m 1,0,-1
 254 346 l 1,1,-1
 254 0 l 1,2,-1
 174 0 l 1,3,-1
 174 311 l 1,4,-1
 39 253 l 1,5,-1
 12 315 l 1,6,-1
 174 385 l 1,7,-1
 174 750 l 1,8,-1
 254 750 l 1,9,-1
 254 419 l 1,10,-1
 389 477 l 1,11,-1
 415 415 l 1,0,-1
EndSplineSet
EndChar

StartChar: m
Encoding: 109 109 299
Width: 815
Flags: W
LayerCount: 2
Fore
SplineSet
711.5 478.5 m 128,-1,1
 746 427 746 427 746 320 c 2,2,-1
 746 0 l 1,3,-1
 668 0 l 1,4,-1
 668 306 l 2,5,6
 668 383 668 383 646.5 423 c 128,-1,7
 625 463 625 463 582 463 c 0,8,9
 547 463 547 463 516.5 438.5 c 128,-1,10
 486 414 486 414 468 373 c 128,-1,11
 450 332 450 332 450 285 c 2,12,-1
 450 0 l 1,13,-1
 372 0 l 1,14,-1
 372 306 l 2,15,16
 372 383 372 383 350.5 423 c 128,-1,17
 329 463 329 463 286 463 c 0,18,19
 250 463 250 463 219.5 436.5 c 128,-1,20
 189 410 189 410 171.5 365 c 128,-1,21
 154 320 154 320 154 266 c 2,22,-1
 154 0 l 1,23,-1
 76 0 l 1,24,-1
 76 520 l 1,25,-1
 150 520 l 1,26,-1
 151 440 l 1,27,-1
 153 440 l 1,28,29
 179 483 179 483 219.5 506.5 c 128,-1,30
 260 530 260 530 309 530 c 0,31,32
 403 530 403 530 434 440 c 1,33,-1
 435 440 l 1,34,35
 463 482 463 482 509 506 c 128,-1,36
 555 530 555 530 606 530 c 0,37,0
 677 530 677 530 711.5 478.5 c 128,-1,1
EndSplineSet
EndChar

StartChar: n
Encoding: 110 110 300
Width: 586
GlyphClass: 2
Flags: W
AnchorPoint: "Anchor-6" 293 520 basechar 0
AnchorPoint: "Anchor-4" 293 0 basechar 0
LayerCount: 2
Fore
SplineSet
517 320 m 2,1,-1
 517 0 l 1,2,-1
 437 0 l 1,3,-1
 437 306 l 2,4,5
 437 463 437 463 328 463 c 0,6,7
 282 463 282 463 242.5 437 c 128,-1,8
 203 411 203 411 179 367 c 128,-1,9
 155 323 155 323 155 273 c 2,10,-1
 155 0 l 1,11,-1
 76 0 l 1,12,-1
 76 520 l 1,13,-1
 152 520 l 1,14,-1
 152 433 l 1,15,-1
 154 433 l 1,16,17
 184 478 184 478 235.5 504 c 128,-1,18
 287 530 287 530 348 530 c 0,19,0
 517 530 517 530 517 320 c 2,1,-1
EndSplineSet
EndChar

StartChar: eng
Encoding: 331 331 304
Width: 585
GlyphClass: 2
Flags: W
AnchorPoint: "Anchor-6" 293 520 basechar 0
AnchorPoint: "Anchor-4" 293 0 basechar 0
LayerCount: 2
Fore
SplineSet
516 320 m 2,1,-1
 516 -38 l 2,2,3
 516 -132 516 -132 477 -175 c 128,-1,4
 438 -218 438 -218 352 -218 c 0,5,6
 303 -218 303 -218 250 -202 c 1,7,-1
 263 -135 l 1,8,9
 302 -148 302 -148 338 -148 c 0,10,11
 391 -148 391 -148 414.5 -122.5 c 128,-1,12
 438 -97 438 -97 438 -38 c 2,13,-1
 438 307 l 2,14,15
 438 463 438 463 328 463 c 0,16,17
 282 463 282 463 242.5 437 c 128,-1,18
 203 411 203 411 179 367 c 128,-1,19
 155 323 155 323 155 273 c 2,20,-1
 155 0 l 1,21,-1
 76 0 l 1,22,-1
 76 520 l 1,23,-1
 152 520 l 1,24,-1
 152 425 l 1,25,-1
 154 425 l 1,26,27
 184 474 184 474 235 502 c 128,-1,28
 286 530 286 530 348 530 c 0,29,0
 516 530 516 530 516 320 c 2,1,-1
EndSplineSet
EndChar

StartChar: o
Encoding: 111 111 307
Width: 567
GlyphClass: 2
Flags: W
AnchorPoint: "Anchor-7" 441 480 basechar 0
AnchorPoint: "Anchor-6" 284 520 basechar 0
AnchorPoint: "Anchor-5" 343 0 basechar 0
AnchorPoint: "Anchor-4" 284 0 basechar 0
LayerCount: 2
Fore
SplineSet
103 61 m 128,-1,1
 38 132 38 132 38 260 c 256,2,3
 38 388 38 388 103 459 c 128,-1,4
 168 530 168 530 284 530 c 256,5,6
 400 530 400 530 464.5 458.5 c 128,-1,7
 529 387 529 387 529 260 c 256,8,9
 529 133 529 133 464.5 61.5 c 128,-1,10
 400 -10 400 -10 284 -10 c 256,11,0
 168 -10 168 -10 103 61 c 128,-1,1
407 109.5 m 128,-1,13
 450 162 450 162 450 260 c 256,14,15
 450 358 450 358 407 410.5 c 128,-1,16
 364 463 364 463 284 463 c 256,17,18
 204 463 204 463 160.5 410.5 c 128,-1,19
 117 358 117 358 117 260 c 256,20,21
 117 162 117 162 160.5 109.5 c 128,-1,22
 204 57 204 57 284 57 c 256,23,12
 364 57 364 57 407 109.5 c 128,-1,13
EndSplineSet
Substitution2: "Single Substitution lookup 21 subtable" ordmasculine
Substitution2: "'aalt' Access All Alternates in Latin lookup 0 subtable" ordmasculine
EndChar

StartChar: ohorn
Encoding: 417 417 323
Width: 610
GlyphClass: 2
Flags: W
AnchorPoint: "Anchor-7" 655 632 basechar 0
AnchorPoint: "Anchor-6" 284 520 basechar 0
AnchorPoint: "Anchor-5" 343 0 basechar 0
AnchorPoint: "Anchor-4" 284 0 basechar 0
LayerCount: 2
Fore
SplineSet
604 426 m 128,-1,1
 574 392 574 392 520 392 c 0,2,3
 510 392 510 392 505 393 c 1,4,5
 529 336 529 336 529 260 c 0,6,7
 529 133 529 133 464.5 61.5 c 128,-1,8
 400 -10 400 -10 284 -10 c 256,9,10
 168 -10 168 -10 103 61 c 128,-1,11
 38 132 38 132 38 260 c 256,12,13
 38 388 38 388 103 459 c 128,-1,14
 168 530 168 530 284 530 c 0,15,16
 385 530 385 530 449 474 c 0,17,18
 468 461 468 461 494 461 c 0,19,20
 523 461 523 461 538 479 c 128,-1,21
 553 497 553 497 553 531 c 0,22,23
 553 554 553 554 547 583.5 c 128,-1,24
 541 613 541 613 533 632 c 1,25,-1
 615 632 l 1,26,27
 634 575 634 575 634 521 c 0,28,0
 634 460 634 460 604 426 c 128,-1,1
407 109.5 m 128,-1,30
 450 162 450 162 450 260 c 256,31,32
 450 358 450 358 407 410.5 c 128,-1,33
 364 463 364 463 284 463 c 256,34,35
 204 463 204 463 160.5 410.5 c 128,-1,36
 117 358 117 358 117 260 c 256,37,38
 117 162 117 162 160.5 109.5 c 128,-1,39
 204 57 204 57 284 57 c 256,40,29
 364 57 364 57 407 109.5 c 128,-1,30
EndSplineSet
EndChar

StartChar: uni01EB
Encoding: 491 491 332
Width: 567
GlyphClass: 2
Flags: W
AnchorPoint: "Anchor-7" 441 480 basechar 0
AnchorPoint: "Anchor-6" 284 520 basechar 0
AnchorPoint: "Anchor-5" 343 0 basechar 0
AnchorPoint: "Anchor-4" 284 0 basechar 0
LayerCount: 2
Fore
SplineSet
246 -107 m 0,1,2
 246 -131 246 -131 268 -142 c 128,-1,3
 290 -153 290 -153 327 -153 c 0,4,5
 377 -153 377 -153 418 -134 c 1,6,-1
 432 -197 l 1,7,8
 384 -218 384 -218 321 -218 c 0,9,10
 246 -218 246 -218 208.5 -191 c 128,-1,11
 171 -164 171 -164 171 -120 c 0,12,13
 171 -62 171 -62 236 -6 c 1,14,15
 141 8 141 8 89.5 77.5 c 128,-1,16
 38 147 38 147 38 260 c 0,17,18
 38 388 38 388 103 459 c 128,-1,19
 168 530 168 530 284 530 c 256,20,21
 400 530 400 530 464.5 458.5 c 128,-1,22
 529 387 529 387 529 260 c 0,23,24
 529 147 529 147 477.5 77.5 c 128,-1,25
 426 8 426 8 332 -6 c 1,26,0
 246 -61 246 -61 246 -107 c 0,1,2
160.5 109.5 m 128,-1,28
 204 57 204 57 284 57 c 256,29,30
 364 57 364 57 407 109.5 c 128,-1,31
 450 162 450 162 450 260 c 256,32,33
 450 358 450 358 407 410.5 c 128,-1,34
 364 463 364 463 284 463 c 256,35,36
 204 463 204 463 160.5 410.5 c 128,-1,37
 117 358 117 358 117 260 c 256,38,27
 117 162 117 162 160.5 109.5 c 128,-1,28
EndSplineSet
EndChar

StartChar: oslash
Encoding: 248 248 333
Width: 567
GlyphClass: 2
Flags: W
AnchorPoint: "Anchor-7" 441 480 basechar 0
AnchorPoint: "Anchor-6" 284 520 basechar 0
AnchorPoint: "Anchor-5" 343 0 basechar 0
AnchorPoint: "Anchor-4" 284 0 basechar 0
LayerCount: 2
Fore
SplineSet
529 260 m 0,1,2
 529 133 529 133 464.5 61.5 c 128,-1,3
 400 -10 400 -10 284 -10 c 0,4,5
 203 -10 203 -10 147 25 c 1,6,-1
 108 -28 l 1,7,-1
 60 8 l 1,8,-1
 101 63 l 1,9,10
 38 135 38 135 38 260 c 0,11,12
 38 388 38 388 103 459 c 128,-1,13
 168 530 168 530 284 530 c 0,14,15
 365 530 365 530 421 495 c 1,16,-1
 460 548 l 1,17,-1
 508 512 l 1,18,-1
 467 456 l 1,19,0
 529 385 529 385 529 260 c 0,1,2
148 127 m 1,21,-1
 378 437 l 1,22,23
 340 463 340 463 284 463 c 0,24,25
 204 463 204 463 160.5 410.5 c 128,-1,26
 117 358 117 358 117 260 c 0,27,20
 117 178 117 178 148 127 c 1,21,-1
407 109.5 m 128,-1,29
 450 162 450 162 450 260 c 0,30,31
 450 344 450 344 420 393 c 1,32,-1
 190 83 l 1,33,34
 228 57 228 57 284 57 c 0,35,28
 364 57 364 57 407 109.5 c 128,-1,29
EndSplineSet
EndChar

StartChar: oe
Encoding: 339 339 337
Width: 957
Flags: W
LayerCount: 2
Fore
SplineSet
920 229 m 1,0,-1
 528 229 l 1,1,2
 532 144 532 144 578 100.5 c 128,-1,3
 624 57 624 57 710 57 c 0,4,5
 752 57 752 57 795 67 c 128,-1,6
 838 77 838 77 872 94 c 1,7,-1
 891 33 l 1,8,9
 852 13 852 13 803.5 1.5 c 128,-1,10
 755 -10 755 -10 706 -10 c 0,11,12
 631 -10 631 -10 576 17 c 128,-1,13
 521 44 521 44 489 96 c 1,14,15
 459 45 459 45 406.5 17.5 c 128,-1,16
 354 -10 354 -10 284 -10 c 0,17,18
 168 -10 168 -10 103 61 c 128,-1,19
 38 132 38 132 38 260 c 256,20,21
 38 388 38 388 103 459 c 128,-1,22
 168 530 168 530 284 530 c 0,23,24
 354 530 354 530 406 503 c 128,-1,25
 458 476 458 476 488 425 c 1,26,27
 518 476 518 476 569 503 c 128,-1,28
 620 530 620 530 689 530 c 0,29,30
 801 530 801 530 861 460 c 128,-1,31
 921 390 921 390 921 260 c 1,32,-1
 920 229 l 1,0,-1
529 293 m 1,34,-1
 846 293 l 1,35,36
 837 465 837 465 689 465 c 0,37,33
 539 465 539 465 529 293 c 1,34,-1
407 109.5 m 128,-1,39
 450 162 450 162 450 260 c 256,40,41
 450 358 450 358 407 410.5 c 128,-1,42
 364 463 364 463 284 463 c 256,43,44
 204 463 204 463 160.5 410.5 c 128,-1,45
 117 358 117 358 117 260 c 256,46,47
 117 162 117 162 160.5 109.5 c 128,-1,48
 204 57 204 57 284 57 c 256,49,38
 364 57 364 57 407 109.5 c 128,-1,39
EndSplineSet
EndChar

StartChar: p
Encoding: 112 112 338
Width: 577
Flags: W
LayerCount: 2
Fore
SplineSet
485.5 459.5 m 128,-1,1
 539 389 539 389 539 260 c 256,2,3
 539 131 539 131 485.5 60.5 c 128,-1,4
 432 -10 432 -10 334 -10 c 0,5,6
 277 -10 277 -10 230.5 13.5 c 128,-1,7
 184 37 184 37 157 80 c 1,8,-1
 155 80 l 1,9,-1
 155 -220 l 1,10,-1
 76 -220 l 1,11,-1
 76 520 l 1,12,-1
 152 520 l 1,13,-1
 152 440 l 1,14,-1
 154 440 l 1,15,16
 182 483 182 483 229.5 506.5 c 128,-1,17
 277 530 277 530 334 530 c 0,18,0
 432 530 432 530 485.5 459.5 c 128,-1,1
420 111 m 128,-1,20
 459 165 459 165 459 260 c 256,21,22
 459 355 459 355 420 409 c 128,-1,23
 381 463 381 463 313 463 c 0,24,25
 269 463 269 463 232.5 439.5 c 128,-1,26
 196 416 196 416 175.5 375 c 128,-1,27
 155 334 155 334 155 283 c 2,28,-1
 155 237 l 2,29,30
 155 186 155 186 175.5 145 c 128,-1,31
 196 104 196 104 232.5 80.5 c 128,-1,32
 269 57 269 57 313 57 c 0,33,19
 381 57 381 57 420 111 c 128,-1,20
EndSplineSet
EndChar

StartChar: thorn
Encoding: 254 254 339
Width: 581
Flags: W
LayerCount: 2
Fore
SplineSet
485.5 459.5 m 128,-1,1
 539 389 539 389 539 260 c 256,2,3
 539 131 539 131 485.5 60.5 c 128,-1,4
 432 -10 432 -10 334 -10 c 0,5,6
 277 -10 277 -10 230.5 13.5 c 128,-1,7
 184 37 184 37 157 80 c 1,8,-1
 155 80 l 1,9,-1
 155 -220 l 1,10,-1
 76 -220 l 1,11,-1
 76 750 l 1,12,-1
 155 750 l 1,13,-1
 155 440 l 1,14,-1
 157 440 l 1,15,16
 184 483 184 483 230.5 506.5 c 128,-1,17
 277 530 277 530 334 530 c 0,18,0
 432 530 432 530 485.5 459.5 c 128,-1,1
420 111 m 128,-1,20
 459 165 459 165 459 260 c 256,21,22
 459 355 459 355 420 409 c 128,-1,23
 381 463 381 463 313 463 c 0,24,25
 269 463 269 463 232.5 439.5 c 128,-1,26
 196 416 196 416 175.5 375 c 128,-1,27
 155 334 155 334 155 283 c 2,28,-1
 155 237 l 2,29,30
 155 186 155 186 175.5 145 c 128,-1,31
 196 104 196 104 232.5 80.5 c 128,-1,32
 269 57 269 57 313 57 c 0,33,19
 381 57 381 57 420 111 c 128,-1,20
EndSplineSet
EndChar

StartChar: q
Encoding: 113 113 340
Width: 577
Flags: W
LayerCount: 2
Fore
SplineSet
501 520 m 1,0,-1
 501 -220 l 1,1,-1
 422 -220 l 1,2,-1
 422 80 l 1,3,-1
 420 80 l 1,4,5
 393 37 393 37 346.5 13.5 c 128,-1,6
 300 -10 300 -10 243 -10 c 0,7,8
 145 -10 145 -10 91.5 60.5 c 128,-1,9
 38 131 38 131 38 260 c 256,10,11
 38 389 38 389 91.5 459.5 c 128,-1,12
 145 530 145 530 243 530 c 0,13,14
 300 530 300 530 347.5 506.5 c 128,-1,15
 395 483 395 483 423 440 c 1,16,-1
 425 440 l 1,17,-1
 425 520 l 1,18,-1
 501 520 l 1,0,-1
344.5 80.5 m 128,-1,20
 381 104 381 104 401.5 145 c 128,-1,21
 422 186 422 186 422 237 c 2,22,-1
 422 283 l 2,23,24
 422 334 422 334 401.5 375 c 128,-1,25
 381 416 381 416 344.5 439.5 c 128,-1,26
 308 463 308 463 264 463 c 0,27,28
 196 463 196 463 157 409 c 128,-1,29
 118 355 118 355 118 260 c 256,30,31
 118 165 118 165 157 111 c 128,-1,32
 196 57 196 57 264 57 c 0,33,19
 308 57 308 57 344.5 80.5 c 128,-1,20
EndSplineSet
EndChar

StartChar: r
Encoding: 114 114 341
Width: 413
GlyphClass: 2
Flags: W
AnchorPoint: "Anchor-6" 220 520 basechar 0
AnchorPoint: "Anchor-4" 220 0 basechar 0
LayerCount: 2
Fore
SplineSet
255 498.5 m 128,-1,1
 319 530 319 530 396 530 c 1,2,-1
 396 460 l 1,3,4
 330 460 330 460 275 434.5 c 128,-1,5
 220 409 220 409 188 363.5 c 128,-1,6
 156 318 156 318 156 260 c 2,7,-1
 156 0 l 1,8,-1
 76 0 l 1,9,-1
 76 520 l 1,10,-1
 152 520 l 1,11,-1
 153 412 l 1,12,-1
 155 412 l 1,13,0
 191 467 191 467 255 498.5 c 128,-1,1
EndSplineSet
EndChar

StartChar: s
Encoding: 115 115 347
Width: 482
GlyphClass: 2
Flags: W
AnchorPoint: "Anchor-6" 242 520 basechar 0
AnchorPoint: "Anchor-4" 242 0 basechar 0
LayerCount: 2
Fore
SplineSet
133.5 1 m 128,-1,1
 81 12 81 12 38 32 c 1,2,-1
 62 94 l 1,3,4
 142 57 142 57 230 57 c 0,5,6
 295 57 295 57 329.5 78 c 128,-1,7
 364 99 364 99 364 139 c 0,8,9
 364 176 364 176 334.5 195 c 128,-1,10
 305 214 305 214 231 233 c 0,11,12
 132 259 132 259 85.5 294 c 128,-1,13
 39 329 39 329 39 390 c 0,14,15
 39 457 39 457 90.5 493.5 c 128,-1,16
 142 530 142 530 237 530 c 0,17,18
 287 530 287 530 340 520 c 128,-1,19
 393 510 393 510 431 494 c 1,20,-1
 408 431 l 1,21,22
 373 447 373 447 330.5 455.5 c 128,-1,23
 288 464 288 464 247 464 c 0,24,25
 185 464 185 464 152 445 c 128,-1,26
 119 426 119 426 119 390 c 256,27,28
 119 354 119 354 148.5 335.5 c 128,-1,29
 178 317 178 317 247 300 c 0,30,31
 346 277 346 277 395 240 c 128,-1,32
 444 203 444 203 444 139 c 0,33,34
 444 67 444 67 390.5 28.5 c 128,-1,35
 337 -10 337 -10 239 -10 c 0,36,0
 186 -10 186 -10 133.5 1 c 128,-1,1
EndSplineSet
EndChar

StartChar: scedilla
Encoding: 351 351 350
Width: 482
GlyphClass: 2
Flags: W
AnchorPoint: "Anchor-6" 242 520 basechar 0
AnchorPoint: "Anchor-4" 242 0 basechar 0
LayerCount: 2
Fore
SplineSet
408.5 44 m 128,-1,1
 373 7 373 7 305 -5 c 1,2,3
 372 -60 372 -60 372 -120 c 0,4,5
 372 -164 372 -164 334.5 -191 c 128,-1,6
 297 -218 297 -218 222 -218 c 0,7,8
 159 -218 159 -218 111 -197 c 1,9,-1
 125 -135 l 1,10,11
 169 -154 169 -154 216 -154 c 0,12,13
 252 -154 252 -154 274.5 -142.5 c 128,-1,14
 297 -131 297 -131 297 -107 c 0,15,16
 297 -62 297 -62 216 -9 c 1,17,18
 120 -6 120 -6 38 32 c 1,19,-1
 62 94 l 1,20,21
 142 57 142 57 230 57 c 0,22,23
 295 57 295 57 329.5 78 c 128,-1,24
 364 99 364 99 364 139 c 0,25,26
 364 176 364 176 334.5 195 c 128,-1,27
 305 214 305 214 231 233 c 0,28,29
 132 259 132 259 85.5 294 c 128,-1,30
 39 329 39 329 39 390 c 0,31,32
 39 457 39 457 90.5 493.5 c 128,-1,33
 142 530 142 530 237 530 c 0,34,35
 287 530 287 530 340 520 c 128,-1,36
 393 510 393 510 431 494 c 1,37,-1
 408 431 l 1,38,39
 373 447 373 447 330.5 455.5 c 128,-1,40
 288 464 288 464 247 464 c 0,41,42
 185 464 185 464 152 445 c 128,-1,43
 119 426 119 426 119 390 c 256,44,45
 119 354 119 354 148.5 335.5 c 128,-1,46
 178 317 178 317 247 300 c 0,47,48
 346 277 346 277 395 240 c 128,-1,49
 444 203 444 203 444 139 c 0,50,0
 444 81 444 81 408.5 44 c 128,-1,1
EndSplineSet
Substitution2: "'locl' Localized Forms in Latin lookup 4 subtable" uni0219
Substitution2: "'aalt' Access All Alternates in Latin lookup 0 subtable" uni0219
EndChar

StartChar: germandbls
Encoding: 223 223 353
Width: 593
Flags: W
LayerCount: 2
Fore
SplineSet
216 10 m 1,1,-1
 228 80 l 1,2,3
 296 60 296 60 349 60 c 0,4,5
 406 60 406 60 440 88 c 128,-1,6
 474 116 474 116 474 163 c 0,7,8
 474 183 474 183 465.5 200.5 c 128,-1,9
 457 218 457 218 435.5 243.5 c 128,-1,10
 414 269 414 269 368 315 c 0,11,12
 336 348 336 348 323 368 c 128,-1,13
 310 388 310 388 310 405 c 0,14,15
 310 420 310 420 320 437 c 128,-1,16
 330 454 330 454 358 488 c 0,17,18
 402 538 402 538 418 566.5 c 128,-1,19
 434 595 434 595 434 619 c 0,20,21
 434 655 434 655 401 672.5 c 128,-1,22
 368 690 368 690 300 690 c 0,23,24
 243 690 243 690 212 677 c 128,-1,25
 181 664 181 664 168 632.5 c 128,-1,26
 155 601 155 601 155 543 c 2,27,-1
 155 0 l 1,28,-1
 76 0 l 1,29,-1
 76 544 l 2,30,31
 76 659 76 659 128 709.5 c 128,-1,32
 180 760 180 760 297 760 c 0,33,34
 400 760 400 760 455.5 724.5 c 128,-1,35
 511 689 511 689 511 623 c 0,36,37
 511 590 511 590 494.5 557.5 c 128,-1,38
 478 525 478 525 433 470 c 0,39,40
 408 439 408 439 399.5 425.5 c 128,-1,41
 391 412 391 412 391 405 c 0,42,43
 391 397 391 397 401.5 384 c 128,-1,44
 412 371 412 371 446 336 c 0,45,46
 507 274 507 274 529 236.5 c 128,-1,47
 551 199 551 199 551 155 c 0,48,49
 551 79 551 79 500 34.5 c 128,-1,50
 449 -10 449 -10 360 -10 c 0,51,0
 293 -10 293 -10 216 10 c 1,1,-1
EndSplineSet
EndChar

StartChar: t
Encoding: 116 116 354
Width: 468
GlyphClass: 2
Flags: W
AnchorPoint: "Anchor-8" 239 0 basechar 0
AnchorPoint: "Anchor-7" 446 520 basechar 0
AnchorPoint: "Anchor-6" 237 520 basechar 0
AnchorPoint: "Anchor-4" 237 0 basechar 0
LayerCount: 2
Fore
SplineSet
185 27 m 128,-1,1
 151 64 151 64 151 153 c 2,2,-1
 151 453 l 1,3,-1
 24 453 l 1,4,-1
 24 520 l 1,5,-1
 151 520 l 1,6,-1
 151 710 l 1,7,-1
 230 710 l 1,8,-1
 230 520 l 1,9,-1
 415 520 l 1,10,-1
 415 453 l 1,11,-1
 230 453 l 1,12,-1
 230 167 l 2,13,14
 230 124 230 124 238 100.5 c 128,-1,15
 246 77 246 77 265 67 c 128,-1,16
 284 57 284 57 319 57 c 0,17,18
 361 57 361 57 405 71 c 1,19,-1
 417 7 l 1,20,21
 357 -10 357 -10 301 -10 c 0,22,0
 219 -10 219 -10 185 27 c 128,-1,1
EndSplineSet
EndChar

StartChar: tbar
Encoding: 359 359 355
Width: 456
GlyphClass: 2
Flags: W
AnchorPoint: "Anchor-8" 239 0 basechar 0
AnchorPoint: "Anchor-7" 446 520 basechar 0
AnchorPoint: "Anchor-6" 237 520 basechar 0
AnchorPoint: "Anchor-4" 237 0 basechar 0
LayerCount: 2
Fore
SplineSet
417 7 m 1,0,1
 357 -10 357 -10 301 -10 c 0,2,3
 219 -10 219 -10 185 27 c 128,-1,4
 151 64 151 64 151 153 c 2,5,-1
 151 217 l 1,6,-1
 24 217 l 1,7,-1
 24 283 l 1,8,-1
 151 283 l 1,9,-1
 151 453 l 1,10,-1
 24 453 l 1,11,-1
 24 520 l 1,12,-1
 151 520 l 1,13,-1
 151 710 l 1,14,-1
 230 710 l 1,15,-1
 230 520 l 1,16,-1
 415 520 l 1,17,-1
 415 453 l 1,18,-1
 230 453 l 1,19,-1
 230 283 l 1,20,-1
 404 283 l 1,21,-1
 404 217 l 1,22,-1
 230 217 l 1,23,-1
 230 167 l 2,24,25
 230 124 230 124 238 100.5 c 128,-1,26
 246 77 246 77 265 67 c 128,-1,27
 284 57 284 57 319 57 c 0,28,29
 361 57 361 57 405 71 c 1,30,-1
 417 7 l 1,0,1
EndSplineSet
EndChar

StartChar: uni0163
Encoding: 355 355 357
Width: 468
GlyphClass: 2
Flags: W
AnchorPoint: "Anchor-8" 239 0 basechar 0
AnchorPoint: "Anchor-7" 446 520 basechar 0
AnchorPoint: "Anchor-6" 237 520 basechar 0
AnchorPoint: "Anchor-4" 237 0 basechar 0
LayerCount: 2
Fore
SplineSet
411 -120 m 0,1,2
 411 -164 411 -164 373.5 -191 c 128,-1,3
 336 -218 336 -218 261 -218 c 0,4,5
 198 -218 198 -218 150 -197 c 1,6,-1
 164 -134 l 1,7,8
 205 -153 205 -153 255 -153 c 0,9,10
 292 -153 292 -153 314 -142 c 128,-1,11
 336 -131 336 -131 336 -107 c 0,12,13
 336 -84 336 -84 313 -57.5 c 128,-1,14
 290 -31 290 -31 248 -5 c 1,15,16
 196 5 196 5 173.5 42.5 c 128,-1,17
 151 80 151 80 151 153 c 2,18,-1
 151 453 l 1,19,-1
 24 453 l 1,20,-1
 24 520 l 1,21,-1
 151 520 l 1,22,-1
 151 710 l 1,23,-1
 230 710 l 1,24,-1
 230 520 l 1,25,-1
 415 520 l 1,26,-1
 415 453 l 1,27,-1
 230 453 l 1,28,-1
 230 167 l 2,29,30
 230 124 230 124 238 100.5 c 128,-1,31
 246 77 246 77 265 67 c 128,-1,32
 284 57 284 57 319 57 c 0,33,34
 361 57 361 57 405 71 c 1,35,-1
 417 7 l 1,36,37
 389 -2 389 -2 347 -7 c 1,38,0
 411 -60 411 -60 411 -120 c 0,1,2
EndSplineSet
Substitution2: "'locl' Localized Forms in Latin lookup 4 subtable" uni021B
Substitution2: "'aalt' Access All Alternates in Latin lookup 0 subtable" uni021B
EndChar

StartChar: u
Encoding: 117 117 359
Width: 576
GlyphClass: 2
Flags: W
AnchorPoint: "Anchor-7" 489 480 basechar 0
AnchorPoint: "Anchor-6" 288 520 basechar 0
AnchorPoint: "Anchor-5" 499 0 basechar 0
AnchorPoint: "Anchor-4" 288 0 basechar 0
LayerCount: 2
Fore
SplineSet
499 520 m 1,0,-1
 499 0 l 1,1,-1
 423 0 l 1,2,-1
 423 86 l 1,3,-1
 421 86 l 1,4,5
 389 41 389 41 339.5 15.5 c 128,-1,6
 290 -10 290 -10 232 -10 c 0,7,8
 69 -10 69 -10 69 200 c 2,9,-1
 69 520 l 1,10,-1
 148 520 l 1,11,-1
 148 214 l 2,12,13
 148 57 148 57 253 57 c 0,14,15
 297 57 297 57 335.5 83 c 128,-1,16
 374 109 374 109 397 153 c 128,-1,17
 420 197 420 197 420 247 c 2,18,-1
 420 520 l 1,19,-1
 499 520 l 1,0,-1
EndSplineSet
EndChar

StartChar: uhorn
Encoding: 432 432 368
Width: 639
GlyphClass: 2
Flags: W
AnchorPoint: "Anchor-7" 703 632 basechar 0
AnchorPoint: "Anchor-6" 288 520 basechar 0
AnchorPoint: "Anchor-5" 499 0 basechar 0
AnchorPoint: "Anchor-4" 288 0 basechar 0
LayerCount: 2
Fore
SplineSet
682 521 m 0,1,2
 682 460 682 460 652 426 c 128,-1,3
 622 392 622 392 568 392 c 0,4,5
 536 392 536 392 499 405 c 1,6,-1
 499 0 l 1,7,-1
 423 0 l 1,8,-1
 423 86 l 1,9,-1
 421 86 l 1,10,11
 389 41 389 41 339.5 15.5 c 128,-1,12
 290 -10 290 -10 232 -10 c 0,13,14
 69 -10 69 -10 69 200 c 2,15,-1
 69 520 l 1,16,-1
 148 520 l 1,17,-1
 148 214 l 2,18,19
 148 57 148 57 253 57 c 0,20,21
 297 57 297 57 335.5 83 c 128,-1,22
 374 109 374 109 397 153 c 128,-1,23
 420 197 420 197 420 247 c 2,24,-1
 420 520 l 1,25,-1
 499 520 l 1,26,-1
 499 473 l 1,27,28
 520 461 520 461 542 461 c 0,29,30
 571 461 571 461 586 479 c 128,-1,31
 601 497 601 497 601 531 c 0,32,33
 601 554 601 554 595 583.5 c 128,-1,34
 589 613 589 613 581 632 c 1,35,-1
 663 632 l 1,36,0
 682 575 682 575 682 521 c 0,1,2
EndSplineSet
EndChar

StartChar: uogonek
Encoding: 371 371 377
Width: 576
GlyphClass: 2
Flags: W
AnchorPoint: "Anchor-7" 489 480 basechar 0
AnchorPoint: "Anchor-6" 288 520 basechar 0
AnchorPoint: "Anchor-5" 499 0 basechar 0
AnchorPoint: "Anchor-4" 288 0 basechar 0
LayerCount: 2
Fore
SplineSet
588 -197 m 1,0,1
 540 -218 540 -218 477 -218 c 0,2,3
 402 -218 402 -218 364.5 -191 c 128,-1,4
 327 -164 327 -164 327 -120 c 0,5,6
 327 -48 327 -48 423 17 c 1,7,-1
 423 86 l 1,8,-1
 421 86 l 1,9,10
 389 41 389 41 339.5 15.5 c 128,-1,11
 290 -10 290 -10 232 -10 c 0,12,13
 69 -10 69 -10 69 200 c 2,14,-1
 69 520 l 1,15,-1
 148 520 l 1,16,-1
 148 214 l 2,17,18
 148 57 148 57 253 57 c 0,19,20
 297 57 297 57 335.5 83 c 128,-1,21
 374 109 374 109 397 153 c 128,-1,22
 420 197 420 197 420 247 c 2,23,-1
 420 520 l 1,24,-1
 499 520 l 1,25,-1
 499 0 l 1,26,27
 452 -27 452 -27 427 -54.5 c 128,-1,28
 402 -82 402 -82 402 -107 c 0,29,30
 402 -131 402 -131 424 -142 c 128,-1,31
 446 -153 446 -153 483 -153 c 0,32,33
 533 -153 533 -153 574 -134 c 1,34,-1
 588 -197 l 1,0,1
EndSplineSet
EndChar

StartChar: v
Encoding: 118 118 380
Width: 517
Flags: W
LayerCount: 2
Fore
SplineSet
12 520 m 1,0,-1
 98 520 l 1,1,-1
 258 58 l 1,2,-1
 260 58 l 1,3,-1
 419 520 l 1,4,-1
 505 520 l 1,5,-1
 314 0 l 1,6,-1
 203 0 l 1,7,-1
 12 520 l 1,0,-1
EndSplineSet
EndChar

StartChar: w
Encoding: 119 119 381
Width: 776
GlyphClass: 2
Flags: W
AnchorPoint: "Anchor-6" 388 520 basechar 0
AnchorPoint: "Anchor-4" 388 0 basechar 0
LayerCount: 2
Fore
SplineSet
27 520 m 1,0,-1
 113 520 l 1,1,-1
 223 77 l 1,2,-1
 225 77 l 1,3,-1
 334 520 l 1,4,-1
 442 520 l 1,5,-1
 551 77 l 1,6,-1
 553 77 l 1,7,-1
 663 520 l 1,8,-1
 749 520 l 1,9,-1
 601 0 l 1,10,-1
 498 0 l 1,11,-1
 389 436 l 1,12,-1
 387 436 l 1,13,-1
 278 0 l 1,14,-1
 175 0 l 1,15,-1
 27 520 l 1,0,-1
EndSplineSet
EndChar

StartChar: x
Encoding: 120 120 386
Width: 538
Flags: W
LayerCount: 2
Fore
SplineSet
213 262 m 1,0,-1
 42 520 l 1,1,-1
 133 520 l 1,2,-1
 268 307 l 1,3,-1
 270 307 l 1,4,-1
 405 520 l 1,5,-1
 496 520 l 1,6,-1
 325 262 l 1,7,-1
 500 0 l 1,8,-1
 409 0 l 1,9,-1
 270 218 l 1,10,-1
 268 218 l 1,11,-1
 129 0 l 1,12,-1
 38 0 l 1,13,-1
 213 262 l 1,0,-1
EndSplineSet
EndChar

StartChar: y
Encoding: 121 121 387
Width: 521
GlyphClass: 2
Flags: W
AnchorPoint: "Anchor-6" 261 520 basechar 0
AnchorPoint: "Anchor-4" 261 0 basechar 0
LayerCount: 2
Fore
SplineSet
424 520 m 1,0,-1
 512 520 l 1,1,-1
 206 -220 l 1,2,-1
 121 -220 l 1,3,-1
 220 -2 l 1,4,-1
 15 520 l 1,5,-1
 102 520 l 1,6,-1
 258 91 l 1,7,-1
 260 91 l 1,8,-1
 424 520 l 1,0,-1
EndSplineSet
EndChar

StartChar: z
Encoding: 122 122 396
Width: 509
GlyphClass: 2
Flags: W
AnchorPoint: "Anchor-6" 255 520 basechar 0
AnchorPoint: "Anchor-4" 255 0 basechar 0
LayerCount: 2
Fore
SplineSet
53 67 m 1,0,-1
 357 451 l 1,1,-1
 357 453 l 1,2,-1
 53 453 l 1,3,-1
 53 520 l 1,4,-1
 456 520 l 1,5,-1
 456 453 l 1,6,-1
 152 69 l 1,7,-1
 152 67 l 1,8,-1
 456 67 l 1,9,-1
 456 0 l 1,10,-1
 53 0 l 1,11,-1
 53 67 l 1,0,-1
EndSplineSet
EndChar

StartChar: f_f
Encoding: 1114114 -1 400
Width: 796
GlyphClass: 3
Flags: W
LayerCount: 2
Fore
SplineSet
599 520 m 1,0,-1
 767 520 l 1,1,-1
 767 453 l 1,2,-1
 599 453 l 1,3,-1
 599 0 l 1,4,-1
 519 0 l 1,5,-1
 519 453 l 1,6,-1
 246 453 l 1,7,-1
 246 0 l 1,8,-1
 166 0 l 1,9,-1
 166 453 l 1,10,-1
 23 453 l 1,11,-1
 23 520 l 1,12,-1
 166 520 l 1,13,-1
 166 587 l 2,14,15
 166 760 166 760 320 760 c 0,16,17
 370 760 370 760 420 745 c 1,18,-1
 406 680 l 1,19,20
 370 693 370 693 332 693 c 0,21,22
 285 693 285 693 265.5 669 c 128,-1,23
 246 645 246 645 246 587 c 2,24,-1
 246 520 l 1,25,-1
 519 520 l 1,26,-1
 519 587 l 2,27,28
 519 760 519 760 673 760 c 0,29,30
 724 760 724 760 773 745 c 1,31,-1
 759 680 l 1,32,33
 723 693 723 693 685 693 c 0,34,35
 638 693 638 693 618.5 669 c 128,-1,36
 599 645 599 645 599 587 c 2,37,-1
 599 520 l 1,0,-1
EndSplineSet
Ligature2: "'liga' Standard Ligatures in Latin lookup 14 subtable" f f
EndChar

StartChar: ordfeminine
Encoding: 170 170 405
Width: 438
Flags: W
LayerCount: 2
Fore
SplineSet
339 700 m 128,-1,1
 376 662 376 662 376 575 c 2,2,-1
 376 314 l 1,3,-1
 302 314 l 1,4,-1
 302 368 l 1,5,-1
 300 368 l 1,6,7
 280 340 280 340 242.5 323 c 128,-1,8
 205 306 205 306 163 306 c 0,9,10
 102 306 102 306 64.5 340.5 c 128,-1,11
 27 375 27 375 27 431 c 0,12,13
 27 503 27 503 90.5 541.5 c 128,-1,14
 154 580 154 580 271 580 c 2,15,-1
 300 580 l 1,16,17
 299 637 299 637 278 659 c 128,-1,18
 257 681 257 681 206 681 c 0,19,20
 131 681 131 681 58 643 c 1,21,-1
 44 700 l 1,22,23
 128 738 128 738 217 738 c 0,24,0
 302 738 302 738 339 700 c 128,-1,1
266.5 396.5 m 128,-1,26
 300 428 300 428 300 475 c 2,27,-1
 300 526 l 1,28,-1
 264 526 l 2,29,30
 181 526 181 526 138 503.5 c 128,-1,31
 95 481 95 481 95 437 c 0,32,33
 95 404 95 404 118.5 384.5 c 128,-1,34
 142 365 142 365 182 365 c 0,35,25
 233 365 233 365 266.5 396.5 c 128,-1,26
EndSplineSet
EndChar

StartChar: ordmasculine
Encoding: 186 186 406
Width: 461
Flags: W
LayerCount: 2
Fore
SplineSet
85.5 363 m 128,-1,1
 34 420 34 420 34 522 c 0,2,3
 34 625 34 625 85.5 681.5 c 128,-1,4
 137 738 137 738 230 738 c 0,5,6
 324 738 324 738 375 681.5 c 128,-1,7
 426 625 426 625 426 522 c 0,8,9
 426 420 426 420 374.5 363 c 128,-1,10
 323 306 323 306 230 306 c 256,11,0
 137 306 137 306 85.5 363 c 128,-1,1
320 406.5 m 128,-1,13
 351 446 351 446 351 522 c 256,14,15
 351 598 351 598 320 637.5 c 128,-1,16
 289 677 289 677 230 677 c 0,17,18
 172 677 172 677 141 637 c 128,-1,19
 110 597 110 597 110 522 c 256,20,21
 110 447 110 447 141 407 c 128,-1,22
 172 367 172 367 230 367 c 0,23,12
 289 367 289 367 320 406.5 c 128,-1,13
EndSplineSet
EndChar

StartChar: zero.lf
Encoding: 1114117 -1 417
Width: 620
Flags: W
LayerCount: 2
Fore
SplineSet
43 365 m 256,1,2
 43 740 43 740 310 740 c 256,3,4
 577 740 577 740 577 365 c 256,5,6
 577 -10 577 -10 310 -10 c 256,7,0
 43 -10 43 -10 43 365 c 256,1,2
449.5 137.5 m 128,-1,9
 495 212 495 212 495 365 c 256,10,11
 495 518 495 518 449.5 592.5 c 128,-1,12
 404 667 404 667 310 667 c 256,13,14
 216 667 216 667 170.5 592.5 c 128,-1,15
 125 518 125 518 125 365 c 256,16,17
 125 212 125 212 170.5 137.5 c 128,-1,18
 216 63 216 63 310 63 c 256,19,8
 404 63 404 63 449.5 137.5 c 128,-1,9
EndSplineSet
Substitution2: "'tnum' Tabular Numbers in Latin lookup 11 subtable" zero
AlternateSubs2: "'aalt' Access All Alternates in Latin lookup 1 subtable" zero
EndChar

StartChar: one.lf
Encoding: 1114118 -1 418
Width: 620
Flags: W
LayerCount: 2
Fore
SplineSet
322 625 m 1,0,-1
 320 625 l 1,1,-1
 92 413 l 1,2,-1
 54 481 l 1,3,-1
 320 730 l 1,4,-1
 404 730 l 1,5,-1
 404 0 l 1,6,-1
 322 0 l 1,7,-1
 322 625 l 1,0,-1
EndSplineSet
Substitution2: "'tnum' Tabular Numbers in Latin lookup 11 subtable" one
AlternateSubs2: "'aalt' Access All Alternates in Latin lookup 1 subtable" one
EndChar

StartChar: two.lf
Encoding: 1114119 -1 419
Width: 620
Flags: W
LayerCount: 2
Fore
SplineSet
294 270.5 m 128,-1,1
 374 351 374 351 409 411.5 c 128,-1,2
 444 472 444 472 444 527 c 0,3,4
 444 591 444 591 403 629 c 128,-1,5
 362 667 362 667 292 667 c 0,6,7
 243 667 243 667 191.5 647.5 c 128,-1,8
 140 628 140 628 90 591 c 1,9,-1
 59 659 l 1,10,11
 107 696 107 696 172.5 718 c 128,-1,12
 238 740 238 740 302 740 c 0,13,14
 404 740 404 740 465 683.5 c 128,-1,15
 526 627 526 627 526 533 c 0,16,17
 526 469 526 469 493.5 403.5 c 128,-1,18
 461 338 461 338 389 259 c 128,-1,19
 317 180 317 180 194 75 c 1,20,-1
 194 73 l 1,21,-1
 534 73 l 1,22,-1
 534 0 l 1,23,-1
 74 0 l 1,24,-1
 74 73 l 1,25,0
 214 190 214 190 294 270.5 c 128,-1,1
EndSplineSet
Substitution2: "'tnum' Tabular Numbers in Latin lookup 11 subtable" two
AlternateSubs2: "'aalt' Access All Alternates in Latin lookup 1 subtable" two
EndChar

StartChar: three.lf
Encoding: 1114120 -1 420
Width: 620
Flags: W
LayerCount: 2
Fore
SplineSet
70 47 m 1,1,-1
 98 111 l 1,2,3
 180 62 180 62 272 62 c 0,4,5
 360 62 360 62 406.5 102.5 c 128,-1,6
 453 143 453 143 453 220 c 0,7,8
 453 294 453 294 405 327 c 128,-1,9
 357 360 357 360 246 360 c 2,10,-1
 179 360 l 1,11,-1
 179 431 l 1,12,-1
 416 656 l 1,13,-1
 416 658 l 1,14,-1
 80 658 l 1,15,-1
 80 730 l 1,16,-1
 525 730 l 1,17,-1
 525 657 l 1,18,-1
 287 432 l 1,19,-1
 287 430 l 1,20,-1
 309 430 l 2,21,22
 421 430 421 430 478 377.5 c 128,-1,23
 535 325 535 325 535 222 c 0,24,25
 535 111 535 111 468.5 50.5 c 128,-1,26
 402 -10 402 -10 279 -10 c 0,27,0
 165 -10 165 -10 70 47 c 1,1,-1
EndSplineSet
Substitution2: "'tnum' Tabular Numbers in Latin lookup 11 subtable" three
AlternateSubs2: "'aalt' Access All Alternates in Latin lookup 1 subtable" three
EndChar

StartChar: four.lf
Encoding: 1114121 -1 421
Width: 620
Flags: W
LayerCount: 2
Fore
SplineSet
375 165 m 1,0,-1
 15 165 l 1,1,-1
 15 239 l 1,2,-1
 375 730 l 1,3,-1
 455 730 l 1,4,-1
 455 239 l 1,5,-1
 578 239 l 1,6,-1
 578 165 l 1,7,-1
 455 165 l 1,8,-1
 455 0 l 1,9,-1
 375 0 l 1,10,-1
 375 165 l 1,0,-1
375 239 m 1,11,-1
 375 601 l 1,12,-1
 373 601 l 1,13,-1
 110 241 l 1,14,-1
 110 239 l 1,15,-1
 375 239 l 1,11,-1
EndSplineSet
Substitution2: "'tnum' Tabular Numbers in Latin lookup 11 subtable" four
AlternateSubs2: "'aalt' Access All Alternates in Latin lookup 1 subtable" four
EndChar

StartChar: five.lf
Encoding: 1114122 -1 422
Width: 620
Flags: W
LayerCount: 2
Fore
SplineSet
76 41 m 1,1,-1
 101 107 l 1,2,3
 182 62 182 62 271 62 c 0,4,5
 362 62 362 62 412 108 c 128,-1,6
 462 154 462 154 462 237 c 0,7,8
 462 311 462 311 420 350.5 c 128,-1,9
 378 390 378 390 298 390 c 0,10,11
 259 390 259 390 229 380 c 128,-1,12
 199 370 199 370 168 345 c 1,13,-1
 98 345 l 1,14,-1
 122 730 l 1,15,-1
 513 730 l 1,16,-1
 513 658 l 1,17,-1
 195 658 l 1,18,-1
 178 425 l 1,19,-1
 180 425 l 1,20,21
 210 444 210 444 239.5 452 c 128,-1,22
 269 460 269 460 308 460 c 0,23,24
 421 460 421 460 482.5 402 c 128,-1,25
 544 344 544 344 544 237 c 0,26,27
 544 121 544 121 472.5 55.5 c 128,-1,28
 401 -10 401 -10 275 -10 c 0,29,0
 165 -10 165 -10 76 41 c 1,1,-1
EndSplineSet
Substitution2: "'tnum' Tabular Numbers in Latin lookup 11 subtable" five
AlternateSubs2: "'aalt' Access All Alternates in Latin lookup 1 subtable" five
EndChar

StartChar: six.lf
Encoding: 1114123 -1 423
Width: 621
Flags: W
LayerCount: 2
Fore
SplineSet
119 59 m 128,-1,1
 50 128 50 128 50 251 c 0,2,3
 50 389 50 389 95.5 495 c 128,-1,4
 141 601 141 601 225 664 c 128,-1,5
 309 727 309 727 424 739 c 1,6,-1
 439 667 l 1,7,8
 327 653 327 653 253.5 590.5 c 128,-1,9
 180 528 180 528 150 422 c 1,10,-1
 152 421 l 1,11,12
 221 487 221 487 328 487 c 0,13,14
 441 487 441 487 506.5 421 c 128,-1,15
 572 355 572 355 572 241 c 0,16,17
 572 125 572 125 502 57.5 c 128,-1,18
 432 -10 432 -10 311 -10 c 0,19,0
 188 -10 188 -10 119 59 c 128,-1,1
442 111.5 m 128,-1,21
 489 158 489 158 489 240 c 256,22,23
 489 322 489 322 442 368 c 128,-1,24
 395 414 395 414 311 414 c 256,25,26
 227 414 227 414 180.5 368.5 c 128,-1,27
 134 323 134 323 134 240 c 0,28,29
 134 159 134 159 181 112 c 128,-1,30
 228 65 228 65 311 65 c 0,31,20
 395 65 395 65 442 111.5 c 128,-1,21
EndSplineSet
Substitution2: "'tnum' Tabular Numbers in Latin lookup 11 subtable" six
AlternateSubs2: "'aalt' Access All Alternates in Latin lookup 1 subtable" six
EndChar

StartChar: seven.lf
Encoding: 1114124 -1 424
Width: 620
Flags: W
LayerCount: 2
Fore
SplineSet
461 655 m 1,1,-1
 461 657 l 1,2,-1
 74 657 l 1,3,-1
 74 730 l 1,4,-1
 550 730 l 1,5,-1
 550 663 l 1,6,7
 467 523 467 523 397 362 c 128,-1,8
 327 201 327 201 262 0 c 1,9,-1
 172 0 l 1,10,0
 294 369 294 369 461 655 c 1,1,-1
EndSplineSet
Substitution2: "'tnum' Tabular Numbers in Latin lookup 11 subtable" seven
AlternateSubs2: "'aalt' Access All Alternates in Latin lookup 1 subtable" seven
EndChar

StartChar: eight.lf
Encoding: 1114125 -1 425
Width: 620
Flags: W
LayerCount: 2
Fore
SplineSet
115 44.5 m 128,-1,1
 43 99 43 99 43 193 c 0,2,3
 43 262 43 262 86 308.5 c 128,-1,4
 129 355 129 355 216 382 c 1,5,-1
 216 384 l 1,6,7
 148 410 148 410 109 458.5 c 128,-1,8
 70 507 70 507 70 567 c 0,9,10
 70 646 70 646 135 693 c 128,-1,11
 200 740 200 740 310 740 c 0,12,13
 382 740 382 740 436.5 718.5 c 128,-1,14
 491 697 491 697 521 658 c 128,-1,15
 551 619 551 619 551 567 c 0,16,17
 551 509 551 509 512.5 464 c 128,-1,18
 474 419 474 419 403 392 c 1,19,-1
 403 390 l 1,20,21
 577 337 577 337 577 193 c 0,22,23
 577 99 577 99 505.5 44.5 c 128,-1,24
 434 -10 434 -10 310 -10 c 0,25,0
 187 -10 187 -10 115 44.5 c 128,-1,1
427.5 475 m 128,-1,27
 470 511 470 511 470 560 c 0,28,29
 470 611 470 611 427 640.5 c 128,-1,30
 384 670 384 670 310 670 c 256,31,32
 236 670 236 670 193 640.5 c 128,-1,33
 150 611 150 611 150 560 c 0,34,35
 150 510 150 510 192.5 474 c 128,-1,36
 235 438 235 438 310 425 c 1,37,26
 385 439 385 439 427.5 475 c 128,-1,27
445 97 m 128,-1,39
 495 134 495 134 495 197 c 0,40,41
 495 255 495 255 448.5 292 c 128,-1,42
 402 329 402 329 305 347 c 1,43,44
 125 311 125 311 125 197 c 0,45,46
 125 134 125 134 175 97 c 128,-1,47
 225 60 225 60 310 60 c 256,48,38
 395 60 395 60 445 97 c 128,-1,39
EndSplineSet
Substitution2: "'tnum' Tabular Numbers in Latin lookup 11 subtable" eight
AlternateSubs2: "'aalt' Access All Alternates in Latin lookup 1 subtable" eight
EndChar

StartChar: nine.lf
Encoding: 1114126 -1 426
Width: 617
Flags: W
LayerCount: 2
Fore
SplineSet
497.5 671 m 128,-1,1
 566 602 566 602 566 479 c 0,2,3
 566 341 566 341 521 235 c 128,-1,4
 476 129 476 129 392 66 c 128,-1,5
 308 3 308 3 193 -9 c 1,6,-1
 178 63 l 1,7,8
 290 77 290 77 363.5 139.5 c 128,-1,9
 437 202 437 202 467 308 c 1,10,-1
 465 309 l 1,11,12
 396 243 396 243 289 243 c 0,13,14
 176 243 176 243 110.5 309 c 128,-1,15
 45 375 45 375 45 489 c 0,16,17
 45 605 45 605 115 672.5 c 128,-1,18
 185 740 185 740 306 740 c 0,19,0
 429 740 429 740 497.5 671 c 128,-1,1
175 618.5 m 128,-1,21
 128 572 128 572 128 490 c 256,22,23
 128 408 128 408 175 362 c 128,-1,24
 222 316 222 316 306 316 c 256,25,26
 390 316 390 316 436.5 361.5 c 128,-1,27
 483 407 483 407 483 490 c 0,28,29
 483 571 483 571 436 618 c 128,-1,30
 389 665 389 665 306 665 c 0,31,20
 222 665 222 665 175 618.5 c 128,-1,21
EndSplineSet
Substitution2: "'tnum' Tabular Numbers in Latin lookup 11 subtable" nine
AlternateSubs2: "'aalt' Access All Alternates in Latin lookup 1 subtable" nine
EndChar

StartChar: uni2070
Encoding: 8304 8304 427
Width: 373
Flags: W
LayerCount: 2
Fore
SplineSet
66.5 342 m 128,-1,1
 27 398 27 398 27 511 c 256,2,3
 27 624 27 624 66.5 680 c 128,-1,4
 106 736 106 736 187 736 c 0,5,6
 347 736 347 736 347 511 c 256,7,8
 347 286 347 286 187 286 c 0,9,0
 106 286 106 286 66.5 342 c 128,-1,1
252 391 m 128,-1,11
 273 429 273 429 273 511 c 256,12,13
 273 593 273 593 252 631 c 128,-1,14
 231 669 231 669 187 669 c 256,15,16
 143 669 143 669 122 631 c 128,-1,17
 101 593 101 593 101 511 c 256,18,19
 101 429 101 429 122 391 c 128,-1,20
 143 353 143 353 187 353 c 256,21,10
 231 353 231 353 252 391 c 128,-1,11
EndSplineSet
EndChar

StartChar: uni00B9
Encoding: 185 185 428
Width: 360
Flags: W
LayerCount: 2
Fore
SplineSet
174 635 m 1,0,-1
 172 635 l 1,1,-1
 51 520 l 1,2,-1
 14 581 l 1,3,-1
 174 730 l 1,4,-1
 249 730 l 1,5,-1
 249 292 l 1,6,-1
 174 292 l 1,7,-1
 174 635 l 1,0,-1
EndSplineSet
EndChar

StartChar: uni00B2
Encoding: 178 178 429
Width: 373
Flags: W
LayerCount: 2
Fore
SplineSet
165 465 m 128,-1,1
 207 506 207 506 224.5 535 c 128,-1,2
 242 564 242 564 242 592 c 0,3,4
 242 627 242 627 220 648 c 128,-1,5
 198 669 198 669 160 669 c 0,6,7
 104 669 104 669 51 625 c 1,8,-1
 32 690 l 1,9,10
 61 711 61 711 100 723.5 c 128,-1,11
 139 736 139 736 178 736 c 0,12,13
 244 736 244 736 280 702.5 c 128,-1,14
 316 669 316 669 316 608 c 0,15,16
 316 552 316 552 279 495.5 c 128,-1,17
 242 439 242 439 153 361 c 1,18,-1
 153 359 l 1,19,-1
 320 359 l 1,20,-1
 320 292 l 1,21,-1
 44 292 l 1,22,-1
 44 359 l 1,23,0
 123 424 123 424 165 465 c 128,-1,1
EndSplineSet
EndChar

StartChar: uni00B3
Encoding: 179 179 430
Width: 373
Flags: W
LayerCount: 2
Fore
SplineSet
38 316 m 1,1,-1
 54 377 l 1,2,3
 101 353 101 353 149 353 c 0,4,5
 195 353 195 353 219 372 c 128,-1,6
 243 391 243 391 243 426 c 256,7,8
 243 461 243 461 218.5 477 c 128,-1,9
 194 493 194 493 139 493 c 2,10,-1
 103 493 l 1,11,-1
 103 557 l 1,12,-1
 215 662 l 1,13,-1
 215 664 l 1,14,-1
 44 664 l 1,15,-1
 44 730 l 1,16,-1
 311 730 l 1,17,-1
 311 664 l 1,18,-1
 187 548 l 1,19,-1
 187 546 l 1,20,-1
 194 546 l 2,21,22
 254 545 254 545 285.5 513.5 c 128,-1,23
 317 482 317 482 317 424 c 0,24,25
 317 358 317 358 277 322 c 128,-1,26
 237 286 237 286 165 286 c 0,27,0
 95 286 95 286 38 316 c 1,1,-1
EndSplineSet
EndChar

StartChar: uni2074
Encoding: 8308 8308 431
Width: 373
Flags: W
LayerCount: 2
Fore
SplineSet
207 379 m 1,0,-1
 3 379 l 1,1,-1
 3 446 l 1,2,-1
 210 730 l 1,3,-1
 280 730 l 1,4,-1
 280 446 l 1,5,-1
 341 446 l 1,6,-1
 341 379 l 1,7,-1
 280 379 l 1,8,-1
 280 292 l 1,9,-1
 207 292 l 1,10,-1
 207 379 l 1,0,-1
210 443 m 1,11,-1
 210 627 l 1,12,-1
 208 627 l 1,13,-1
 76 445 l 1,14,-1
 76 443 l 1,15,-1
 210 443 l 1,11,-1
EndSplineSet
EndChar

StartChar: fraction
Encoding: 8260 8260 432
Width: 513
Flags: W
LayerCount: 2
Fore
SplineSet
421 730 m 1,0,-1
 499 730 l 1,1,-1
 92 0 l 1,2,-1
 14 0 l 1,3,-1
 421 730 l 1,0,-1
EndSplineSet
EndChar

StartChar: onehalf
Encoding: 189 189 433
Width: 860
Flags: W
LayerCount: 2
Fore
SplineSet
187 635 m 1,0,-1
 66 520 l 1,1,-1
 29 581 l 1,2,-1
 189 730 l 1,3,-1
 264 730 l 1,4,-1
 264 292 l 1,5,-1
 189 292 l 1,6,-1
 189 635 l 1,7,-1
 187 635 l 1,0,-1
591 730 m 1,8,-1
 669 730 l 1,9,-1
 262 0 l 1,10,-1
 184 0 l 1,11,-1
 591 730 l 1,8,-1
645 173 m 128,-1,13
 687 214 687 214 704.5 243 c 128,-1,14
 722 272 722 272 722 300 c 0,15,16
 722 335 722 335 700 356 c 128,-1,17
 678 377 678 377 640 377 c 0,18,19
 584 377 584 377 531 333 c 1,20,-1
 512 398 l 1,21,22
 541 419 541 419 580 431.5 c 128,-1,23
 619 444 619 444 658 444 c 0,24,25
 724 444 724 444 760 410.5 c 128,-1,26
 796 377 796 377 796 316 c 0,27,28
 796 260 796 260 759 203.5 c 128,-1,29
 722 147 722 147 633 69 c 1,30,-1
 633 67 l 1,31,-1
 800 67 l 1,32,-1
 800 0 l 1,33,-1
 524 0 l 1,34,-1
 524 67 l 1,35,12
 603 132 603 132 645 173 c 128,-1,13
EndSplineSet
Ligature2: "'frac' Diagonal Fractions in Latin lookup 7 subtable" one slash two
EndChar

StartChar: onequarter
Encoding: 188 188 434
Width: 823
Flags: W
LayerCount: 2
Fore
SplineSet
187 635 m 1,0,-1
 66 520 l 1,1,-1
 29 581 l 1,2,-1
 189 730 l 1,3,-1
 264 730 l 1,4,-1
 264 292 l 1,5,-1
 189 292 l 1,6,-1
 189 635 l 1,7,-1
 187 635 l 1,0,-1
591 730 m 1,8,-1
 669 730 l 1,9,-1
 262 0 l 1,10,-1
 184 0 l 1,11,-1
 591 730 l 1,8,-1
442 87 m 1,12,-1
 442 154 l 1,13,-1
 649 438 l 1,14,-1
 719 438 l 1,15,-1
 719 154 l 1,16,-1
 780 154 l 1,17,-1
 780 87 l 1,18,-1
 719 87 l 1,19,-1
 719 0 l 1,20,-1
 645 0 l 1,21,-1
 645 87 l 1,22,-1
 442 87 l 1,12,-1
649 335 m 1,23,-1
 647 335 l 1,24,-1
 515 153 l 1,25,-1
 515 151 l 1,26,-1
 649 151 l 1,27,-1
 649 335 l 1,23,-1
EndSplineSet
Ligature2: "'frac' Diagonal Fractions in Latin lookup 7 subtable" one slash four
EndChar

StartChar: threequarters
Encoding: 190 190 435
Width: 801
Flags: W
LayerCount: 2
Fore
SplineSet
43 316 m 1,1,-1
 59 377 l 1,2,3
 106 353 106 353 154 353 c 0,4,5
 200 353 200 353 223.5 372 c 128,-1,6
 247 391 247 391 247 426 c 256,7,8
 247 461 247 461 222.5 477 c 128,-1,9
 198 493 198 493 143 493 c 2,10,-1
 108 493 l 1,11,-1
 108 557 l 1,12,-1
 219 662 l 1,13,-1
 219 664 l 1,14,-1
 48 664 l 1,15,-1
 48 730 l 1,16,-1
 315 730 l 1,17,-1
 315 664 l 1,18,-1
 191 548 l 1,19,-1
 191 546 l 1,20,-1
 198 546 l 2,21,22
 258 545 258 545 289.5 513.5 c 128,-1,23
 321 482 321 482 321 424 c 0,24,25
 321 358 321 358 281.5 322 c 128,-1,26
 242 286 242 286 169 286 c 0,27,0
 99 286 99 286 43 316 c 1,1,-1
570 730 m 1,28,-1
 647 730 l 1,29,-1
 240 0 l 1,30,-1
 163 0 l 1,31,-1
 570 730 l 1,28,-1
420 87 m 1,32,-1
 420 154 l 1,33,-1
 627 438 l 1,34,-1
 697 438 l 1,35,-1
 697 154 l 1,36,-1
 758 154 l 1,37,-1
 758 87 l 1,38,-1
 697 87 l 1,39,-1
 697 0 l 1,40,-1
 624 0 l 1,41,-1
 624 87 l 1,42,-1
 420 87 l 1,32,-1
627 335 m 1,43,-1
 625 335 l 1,44,-1
 493 153 l 1,45,-1
 493 151 l 1,46,-1
 627 151 l 1,47,-1
 627 335 l 1,43,-1
EndSplineSet
Ligature2: "'frac' Diagonal Fractions in Latin lookup 7 subtable" three slash four
EndChar

StartChar: period
Encoding: 46 46 436
Width: 317
Flags: W
LayerCount: 2
Fore
SplineSet
94 107 m 1,0,-1
 200 107 l 1,1,-1
 200 0 l 1,2,-1
 94 0 l 1,3,-1
 94 107 l 1,0,-1
EndSplineSet
EndChar

StartChar: comma
Encoding: 44 44 437
Width: 317
Flags: W
LayerCount: 2
Fore
SplineSet
111 130 m 1,0,-1
 205 130 l 1,1,-1
 102 -170 l 1,2,-1
 28 -170 l 1,3,-1
 111 130 l 1,0,-1
EndSplineSet
EndChar

StartChar: colon
Encoding: 58 58 438
Width: 317
Flags: W
LayerCount: 2
Fore
SplineSet
94 520 m 1,0,-1
 200 520 l 1,1,-1
 200 413 l 1,2,-1
 94 413 l 1,3,-1
 94 520 l 1,0,-1
94 107 m 1,4,-1
 200 107 l 1,5,-1
 200 0 l 1,6,-1
 94 0 l 1,7,-1
 94 107 l 1,4,-1
EndSplineSet
Substitution2: "'aalt' Access All Alternates in Latin lookup 0 subtable" uniFF1A
EndChar

StartChar: semicolon
Encoding: 59 59 439
Width: 317
Flags: W
LayerCount: 2
Fore
SplineSet
111 520 m 1,0,-1
 217 520 l 1,1,-1
 217 413 l 1,2,-1
 111 413 l 1,3,-1
 111 520 l 1,0,-1
123 130 m 1,4,-1
 217 130 l 1,5,-1
 104 -170 l 1,6,-1
 30 -170 l 1,7,-1
 123 130 l 1,4,-1
EndSplineSet
EndChar

StartChar: exclam
Encoding: 33 33 441
Width: 294
Flags: W
LayerCount: 2
Fore
SplineSet
100 730 m 1,0,-1
 194 730 l 1,1,-1
 184 207 l 1,2,-1
 110 207 l 1,3,-1
 100 730 l 1,0,-1
94 107 m 1,4,-1
 200 107 l 1,5,-1
 200 0 l 1,6,-1
 94 0 l 1,7,-1
 94 107 l 1,4,-1
EndSplineSet
Substitution2: "'aalt' Access All Alternates in Latin lookup 0 subtable" uniFF01
EndChar

StartChar: exclamdown
Encoding: 161 161 442
Width: 294
Flags: W
LayerCount: 2
Fore
SplineSet
94 520 m 1,0,-1
 200 520 l 1,1,-1
 200 413 l 1,2,-1
 94 413 l 1,3,-1
 94 520 l 1,0,-1
110 313 m 1,4,-1
 184 313 l 1,5,-1
 194 -210 l 1,6,-1
 100 -210 l 1,7,-1
 110 313 l 1,4,-1
EndSplineSet
EndChar

StartChar: question
Encoding: 63 63 443
Width: 555
Flags: W
LayerCount: 2
Fore
SplineSet
215.5 322.5 m 128,-1,1
 248 371 248 371 329 427 c 0,2,3
 389 467 389 467 414.5 500 c 128,-1,4
 440 533 440 533 440 570 c 0,5,6
 440 620 440 620 397 643.5 c 128,-1,7
 354 667 354 667 263 667 c 0,8,9
 158 667 158 667 48 631 c 1,10,-1
 30 703 l 1,11,12
 143 740 143 740 273 740 c 0,13,14
 399 740 399 740 461 700.5 c 128,-1,15
 523 661 523 661 523 580 c 0,16,17
 523 525 523 525 492 481 c 128,-1,18
 461 437 461 437 390 389 c 0,19,20
 321 342 321 342 292.5 301.5 c 128,-1,21
 264 261 264 261 263 207 c 1,22,-1
 183 207 l 1,23,0
 183 274 183 274 215.5 322.5 c 128,-1,1
170 107 m 1,24,-1
 276 107 l 1,25,-1
 276 0 l 1,26,-1
 170 0 l 1,27,-1
 170 107 l 1,24,-1
EndSplineSet
Substitution2: "'aalt' Access All Alternates in Latin lookup 0 subtable" uniFF1F
EndChar

StartChar: questiondown
Encoding: 191 191 444
Width: 555
Flags: W
LayerCount: 2
Fore
SplineSet
279 413 m 1,0,-1
 279 520 l 1,1,-1
 386 520 l 1,2,-1
 386 413 l 1,3,-1
 279 413 l 1,0,-1
339.5 197.5 m 128,-1,5
 307 149 307 149 226 93 c 0,6,7
 167 52 167 52 141.5 19.5 c 128,-1,8
 116 -13 116 -13 116 -50 c 0,9,10
 116 -100 116 -100 158.5 -123.5 c 128,-1,11
 201 -147 201 -147 292 -147 c 0,12,13
 397 -147 397 -147 507 -111 c 1,14,-1
 525 -183 l 1,15,16
 412 -220 412 -220 282 -220 c 0,17,18
 156 -220 156 -220 94 -180.5 c 128,-1,19
 32 -141 32 -141 32 -60 c 0,20,21
 32 -5 32 -5 63 39 c 128,-1,22
 94 83 94 83 166 131 c 0,23,24
 235 177 235 177 263 218 c 128,-1,25
 291 259 291 259 292 313 c 1,26,-1
 372 313 l 1,27,4
 372 246 372 246 339.5 197.5 c 128,-1,5
EndSplineSet
EndChar

StartChar: bullet
Encoding: 8226 8226 446
Width: 303
Flags: W
LayerCount: 2
Fore
SplineSet
97.5 235.5 m 128,-1,1
 75 258 75 258 75 290 c 256,2,3
 75 322 75 322 97.5 344.5 c 128,-1,4
 120 367 120 367 152 367 c 256,5,6
 184 367 184 367 206.5 344.5 c 128,-1,7
 229 322 229 322 229 290 c 0,8,9
 229 259 229 259 206.5 236 c 128,-1,10
 184 213 184 213 152 213 c 256,11,0
 120 213 120 213 97.5 235.5 c 128,-1,1
EndSplineSet
EndChar

StartChar: asterisk
Encoding: 42 42 447
Width: 507
Flags: W
LayerCount: 2
Fore
SplineSet
96 379 m 1,0,-1
 200 520 l 1,1,-1
 34 571 l 1,2,-1
 55 637 l 1,3,-1
 220 583 l 1,4,-1
 219 756 l 1,5,-1
 288 756 l 1,6,-1
 286 583 l 1,7,-1
 451 637 l 1,8,-1
 473 571 l 1,9,-1
 306 520 l 1,10,-1
 410 379 l 1,11,-1
 354 339 l 1,12,-1
 253 481 l 1,13,-1
 153 339 l 1,14,-1
 96 379 l 1,0,-1
EndSplineSet
EndChar

StartChar: numbersign
Encoding: 35 35 448
Width: 665
Flags: W
LayerCount: 2
Fore
SplineSet
622 488 m 1,0,-1
 503 488 l 1,1,-1
 464 262 l 1,2,-1
 569 262 l 1,3,-1
 569 192 l 1,4,-1
 450 192 l 1,5,-1
 417 0 l 1,6,-1
 343 0 l 1,7,-1
 377 192 l 1,8,-1
 224 192 l 1,9,-1
 190 0 l 1,10,-1
 116 0 l 1,11,-1
 150 192 l 1,12,-1
 43 192 l 1,13,-1
 43 262 l 1,14,-1
 163 262 l 1,15,-1
 202 488 l 1,16,-1
 96 488 l 1,17,-1
 96 558 l 1,18,-1
 215 558 l 1,19,-1
 245 730 l 1,20,-1
 319 730 l 1,21,-1
 289 558 l 1,22,-1
 442 558 l 1,23,-1
 472 730 l 1,24,-1
 546 730 l 1,25,-1
 516 558 l 1,26,-1
 622 558 l 1,27,-1
 622 488 l 1,0,-1
390 262 m 1,28,-1
 429 488 l 1,29,-1
 276 488 l 1,30,-1
 237 262 l 1,31,-1
 390 262 l 1,28,-1
EndSplineSet
EndChar

StartChar: slash
Encoding: 47 47 449
Width: 455
Flags: W
LayerCount: 2
Fore
SplineSet
359 750 m 1,0,-1
 440 750 l 1,1,-1
 96 -40 l 1,2,-1
 14 -40 l 1,3,-1
 359 750 l 1,0,-1
EndSplineSet
EndChar

StartChar: backslash
Encoding: 92 92 450
Width: 455
Flags: W
LayerCount: 2
Fore
SplineSet
440 -40 m 1,0,-1
 359 -40 l 1,1,-1
 14 750 l 1,2,-1
 96 750 l 1,3,-1
 440 -40 l 1,0,-1
EndSplineSet
EndChar

StartChar: parenleft
Encoding: 40 40 451
Width: 357
Flags: W
LayerCount: 2
Fore
SplineSet
120.5 95 m 128,-1,1
 85 206 85 206 85 330 c 0,2,3
 85 580 85 580 226 770 c 1,4,-1
 305 770 l 1,5,6
 234 671 234 671 200.5 563.5 c 128,-1,7
 167 456 167 456 167 330 c 256,8,9
 167 204 167 204 200.5 96.5 c 128,-1,10
 234 -11 234 -11 305 -110 c 1,11,-1
 226 -110 l 1,12,0
 156 -16 156 -16 120.5 95 c 128,-1,1
EndSplineSet
Substitution2: "'aalt' Access All Alternates in Latin lookup 0 subtable" uniFF08
EndChar

StartChar: parenright
Encoding: 41 41 452
Width: 357
Flags: W
LayerCount: 2
Fore
SplineSet
52 -110 m 1,0,1
 123 -11 123 -11 156.5 96.5 c 128,-1,2
 190 204 190 204 190 330 c 256,3,4
 190 456 190 456 156.5 563.5 c 128,-1,5
 123 671 123 671 52 770 c 1,6,-1
 131 770 l 1,7,8
 272 580 272 580 272 330 c 0,9,10
 272 206 272 206 236.5 95 c 128,-1,11
 201 -16 201 -16 131 -110 c 1,12,-1
 52 -110 l 1,0,1
EndSplineSet
Substitution2: "'aalt' Access All Alternates in Latin lookup 0 subtable" uniFF09
EndChar

StartChar: braceleft
Encoding: 123 123 453
Width: 476
Flags: W
LayerCount: 2
Fore
SplineSet
218.5 -74.5 m 128,-1,1
 186 -39 186 -39 186 40 c 2,2,-1
 186 170 l 2,3,4
 186 230 186 230 164.5 261.5 c 128,-1,5
 143 293 143 293 103 293 c 2,6,-1
 56 293 l 1,7,-1
 56 367 l 1,8,-1
 103 367 l 2,9,10
 143 367 143 367 164.5 398.5 c 128,-1,11
 186 430 186 430 186 490 c 2,12,-1
 186 620 l 2,13,14
 186 699 186 699 218.5 734.5 c 128,-1,15
 251 770 251 770 323 770 c 2,16,-1
 420 770 l 1,17,-1
 420 700 l 1,18,-1
 360 700 l 2,19,20
 321 700 321 700 300.5 690.5 c 128,-1,21
 280 681 280 681 271.5 657.5 c 128,-1,22
 263 634 263 634 263 590 c 2,23,-1
 263 482 l 2,24,25
 263 423 263 423 243 386 c 128,-1,26
 223 349 223 349 182 331 c 1,27,-1
 182 329 l 1,28,29
 223 311 223 311 243 274 c 128,-1,30
 263 237 263 237 263 178 c 2,31,-1
 263 70 l 2,32,33
 263 26 263 26 271.5 2.5 c 128,-1,34
 280 -21 280 -21 300.5 -30.5 c 128,-1,35
 321 -40 321 -40 360 -40 c 2,36,-1
 420 -40 l 1,37,-1
 420 -110 l 1,38,-1
 323 -110 l 2,39,0
 251 -110 251 -110 218.5 -74.5 c 128,-1,1
EndSplineSet
EndChar

StartChar: braceright
Encoding: 125 125 454
Width: 476
Flags: W
LayerCount: 2
Fore
SplineSet
57 -110 m 1,0,-1
 57 -40 l 1,1,-1
 117 -40 l 2,2,3
 156 -40 156 -40 176 -30.5 c 128,-1,4
 196 -21 196 -21 204.5 2.5 c 128,-1,5
 213 26 213 26 213 70 c 2,6,-1
 213 178 l 2,7,8
 213 237 213 237 233 274 c 128,-1,9
 253 311 253 311 294 329 c 1,10,-1
 294 331 l 1,11,12
 253 349 253 349 233 386 c 128,-1,13
 213 423 213 423 213 482 c 2,14,-1
 213 590 l 2,15,16
 213 634 213 634 204.5 657.5 c 128,-1,17
 196 681 196 681 176 690.5 c 128,-1,18
 156 700 156 700 117 700 c 2,19,-1
 57 700 l 1,20,-1
 57 770 l 1,21,-1
 153 770 l 2,22,23
 225 770 225 770 257.5 734.5 c 128,-1,24
 290 699 290 699 290 620 c 2,25,-1
 290 490 l 2,26,27
 290 430 290 430 311.5 398.5 c 128,-1,28
 333 367 333 367 373 367 c 2,29,-1
 420 367 l 1,30,-1
 420 293 l 1,31,-1
 373 293 l 2,32,33
 333 293 333 293 311.5 261.5 c 128,-1,34
 290 230 290 230 290 170 c 2,35,-1
 290 40 l 2,36,37
 290 -39 290 -39 257.5 -74.5 c 128,-1,38
 225 -110 225 -110 153 -110 c 2,39,-1
 57 -110 l 1,0,-1
EndSplineSet
EndChar

StartChar: bracketleft
Encoding: 91 91 455
Width: 414
Flags: W
LayerCount: 2
Fore
SplineSet
94 770 m 1,0,-1
 367 770 l 1,1,-1
 367 700 l 1,2,-1
 170 700 l 1,3,-1
 170 -40 l 1,4,-1
 367 -40 l 1,5,-1
 367 -110 l 1,6,-1
 94 -110 l 1,7,-1
 94 770 l 1,0,-1
EndSplineSet
EndChar

StartChar: bracketright
Encoding: 93 93 456
Width: 414
Flags: W
LayerCount: 2
Fore
SplineSet
320 -110 m 1,0,-1
 47 -110 l 1,1,-1
 47 -40 l 1,2,-1
 244 -40 l 1,3,-1
 244 700 l 1,4,-1
 47 700 l 1,5,-1
 47 770 l 1,6,-1
 320 770 l 1,7,-1
 320 -110 l 1,0,-1
EndSplineSet
EndChar

StartChar: hyphen
Encoding: 45 45 457
Width: 409
Flags: W
LayerCount: 2
Fore
SplineSet
56 327 m 1,0,-1
 353 327 l 1,1,-1
 353 253 l 1,2,-1
 56 253 l 1,3,-1
 56 327 l 1,0,-1
EndSplineSet
EndChar

StartChar: endash
Encoding: 8211 8211 459
Width: 500
Flags: W
LayerCount: 2
Fore
SplineSet
0 327 m 1,0,-1
 500 327 l 1,1,-1
 500 253 l 1,2,-1
 0 253 l 1,3,-1
 0 327 l 1,0,-1
EndSplineSet
EndChar

StartChar: emdash
Encoding: 8212 8212 460
Width: 1000
Flags: W
LayerCount: 2
Fore
SplineSet
0 327 m 1,0,-1
 1000 327 l 1,1,-1
 1000 253 l 1,2,-1
 0 253 l 1,3,-1
 0 327 l 1,0,-1
EndSplineSet
EndChar

StartChar: uni2015
Encoding: 8213 8213 461
Width: 1000
Flags: W
LayerCount: 2
Fore
SplineSet
50 397 m 1,0,-1
 950 397 l 1,1,-1
 950 323 l 1,2,-1
 50 323 l 1,3,-1
 50 397 l 1,0,-1
EndSplineSet
EndChar

StartChar: underscore
Encoding: 95 95 462
Width: 587
Flags: W
LayerCount: 2
Fore
SplineSet
0 -83 m 1,0,-1
 587 -83 l 1,1,-1
 587 -147 l 1,2,-1
 0 -147 l 1,3,-1
 0 -83 l 1,0,-1
EndSplineSet
EndChar

StartChar: quoteleft
Encoding: 8216 8216 467
Width: 255
Flags: W
LayerCount: 2
Fore
SplineSet
126 470 m 1,0,-1
 32 470 l 1,1,-1
 145 770 l 1,2,-1
 219 770 l 1,3,-1
 126 470 l 1,0,-1
EndSplineSet
EndChar

StartChar: quoteright
Encoding: 8217 8217 468
Width: 255
Flags: W
LayerCount: 2
Fore
SplineSet
136 770 m 1,0,-1
 230 770 l 1,1,-1
 117 470 l 1,2,-1
 43 470 l 1,3,-1
 136 770 l 1,0,-1
EndSplineSet
EndChar

StartChar: guillemotleft
Encoding: 171 171 469
Width: 465
Flags: W
LayerCount: 2
Fore
SplineSet
12 290 m 1,0,-1
 168 520 l 1,1,-1
 244 520 l 1,2,-1
 86 290 l 1,3,-1
 244 60 l 1,4,-1
 168 60 l 1,5,-1
 12 290 l 1,0,-1
196 290 m 1,6,-1
 351 520 l 1,7,-1
 427 520 l 1,8,-1
 269 290 l 1,9,-1
 427 60 l 1,10,-1
 351 60 l 1,11,-1
 196 290 l 1,6,-1
EndSplineSet
EndChar

StartChar: guillemotright
Encoding: 187 187 470
Width: 465
Flags: W
LayerCount: 2
Fore
SplineSet
113 60 m 1,0,-1
 38 60 l 1,1,-1
 195 290 l 1,2,-1
 38 520 l 1,3,-1
 113 520 l 1,4,-1
 269 290 l 1,5,-1
 113 60 l 1,0,-1
297 60 m 1,6,-1
 221 60 l 1,7,-1
 379 290 l 1,8,-1
 221 520 l 1,9,-1
 297 520 l 1,10,-1
 453 290 l 1,11,-1
 297 60 l 1,6,-1
EndSplineSet
EndChar

StartChar: guilsinglleft
Encoding: 8249 8249 471
Width: 285
Flags: W
LayerCount: 2
Fore
SplineSet
12 290 m 1,0,-1
 170 520 l 1,1,-1
 247 520 l 1,2,-1
 87 290 l 1,3,-1
 247 60 l 1,4,-1
 170 60 l 1,5,-1
 12 290 l 1,0,-1
EndSplineSet
EndChar

StartChar: guilsinglright
Encoding: 8250 8250 472
Width: 285
Flags: W
LayerCount: 2
Fore
SplineSet
114 60 m 1,0,-1
 38 60 l 1,1,-1
 198 290 l 1,2,-1
 38 520 l 1,3,-1
 114 520 l 1,4,-1
 272 290 l 1,5,-1
 114 60 l 1,0,-1
EndSplineSet
EndChar

StartChar: quotedbl
Encoding: 34 34 473
Width: 461
Flags: W
LayerCount: 2
Fore
SplineSet
85 770 m 1,0,-1
 176 770 l 1,1,-1
 166 470 l 1,2,-1
 94 470 l 1,3,-1
 85 770 l 1,0,-1
286 770 m 1,4,-1
 377 770 l 1,5,-1
 367 470 l 1,6,-1
 296 470 l 1,7,-1
 286 770 l 1,4,-1
EndSplineSet
EndChar

StartChar: quotesingle
Encoding: 39 39 474
Width: 263
Flags: W
LayerCount: 2
Fore
SplineSet
85 770 m 1,0,-1
 178 770 l 1,1,-1
 168 470 l 1,2,-1
 95 470 l 1,3,-1
 85 770 l 1,0,-1
EndSplineSet
EndChar

StartChar: uni20B5
Encoding: 8373 8373 476
Width: 705
Flags: W
LayerCount: 2
Fore
SplineSet
654 56 m 1,0,1
 565 -1 565 -1 448 -9 c 1,2,-1
 448 -105 l 1,3,-1
 378 -105 l 1,4,-1
 378 -9 l 1,5,6
 275 -2 275 -2 199 45 c 128,-1,7
 123 92 123 92 82.5 174 c 128,-1,8
 42 256 42 256 42 365 c 256,9,10
 42 474 42 474 82.5 556 c 128,-1,11
 123 638 123 638 199 685 c 128,-1,12
 275 732 275 732 378 739 c 1,13,-1
 378 835 l 1,14,-1
 448 835 l 1,15,-1
 448 739 l 1,16,17
 565 731 565 731 654 674 c 1,18,-1
 620 609 l 1,19,20
 539 659 539 659 448 666 c 1,21,-1
 448 64 l 1,22,23
 539 71 539 71 620 121 c 1,24,-1
 654 56 l 1,0,1
189.5 155.5 m 128,-1,26
 258 76 258 76 378 65 c 1,27,-1
 378 665 l 1,28,29
 258 654 258 654 189.5 574.5 c 128,-1,30
 121 495 121 495 121 365 c 256,31,25
 121 235 121 235 189.5 155.5 c 128,-1,26
EndSplineSet
EndChar

StartChar: cent
Encoding: 162 162 477
Width: 540
Flags: W
LayerCount: 2
Fore
SplineSet
475 27 m 1,0,1
 419 -2 419 -2 349 -8 c 1,2,-1
 349 -105 l 1,3,-1
 289 -105 l 1,4,-1
 289 -9 l 1,5,6
 170 -3 170 -3 104 68 c 128,-1,7
 38 139 38 139 38 260 c 256,8,9
 38 381 38 381 104 452 c 128,-1,10
 170 523 170 523 289 529 c 1,11,-1
 289 625 l 1,12,-1
 349 625 l 1,13,-1
 349 528 l 1,14,15
 419 522 419 522 475 493 c 1,16,-1
 455 430 l 1,17,18
 404 455 404 455 349 461 c 1,19,-1
 349 59 l 1,20,21
 404 65 404 65 455 90 c 1,22,-1
 475 27 l 1,0,1
160.5 117.5 m 128,-1,24
 206 65 206 65 289 58 c 1,25,-1
 289 462 l 1,26,27
 206 455 206 455 160.5 402.5 c 128,-1,28
 115 350 115 350 115 260 c 256,29,23
 115 170 115 170 160.5 117.5 c 128,-1,24
EndSplineSet
EndChar

StartChar: colonmonetary
Encoding: 8353 8353 478
Width: 705
Flags: W
LayerCount: 2
Fore
SplineSet
654 56 m 1,0,1
 580 8 580 8 480 -6 c 1,2,-1
 472 -105 l 1,3,-1
 405 -105 l 1,4,-1
 413 -10 l 1,5,6
 361 -10 361 -10 311 1 c 1,7,-1
 302 -105 l 1,8,-1
 235 -105 l 1,9,-1
 246 21 l 1,10,11
 148 62 148 62 95 150.5 c 128,-1,12
 42 239 42 239 42 365 c 0,13,14
 42 509 42 509 112 604 c 128,-1,15
 182 699 182 699 306 728 c 1,16,-1
 315 835 l 1,17,-1
 382 835 l 1,18,-1
 374 739 l 1,19,20
 387 740 387 740 413 740 c 0,21,22
 449 740 449 740 477 736 c 1,23,-1
 485 835 l 1,24,-1
 552 835 l 1,25,-1
 542 723 l 1,26,27
 604 706 604 706 654 674 c 1,28,-1
 620 609 l 1,29,30
 576 636 576 636 536 648 c 1,31,-1
 487 69 l 1,32,33
 556 82 556 82 620 121 c 1,34,-1
 654 56 l 1,0,1
419 63 m 1,35,-1
 470 663 l 1,36,37
 446 667 446 667 414 667 c 0,38,39
 389 667 389 667 367 664 c 1,40,-1
 317 76 l 1,41,42
 360 63 360 63 414 63 c 2,43,-1
 419 63 l 1,35,-1
155 207 m 128,-1,45
 189 140 189 140 253 103 c 1,46,-1
 299 649 l 1,47,48
 214 619 214 619 167.5 545 c 128,-1,49
 121 471 121 471 121 365 c 0,50,44
 121 274 121 274 155 207 c 128,-1,45
EndSplineSet
EndChar

StartChar: currency
Encoding: 164 164 479
Width: 690
Flags: W
LayerCount: 2
Fore
SplineSet
531 228 m 1,1,-1
 624 135 l 1,2,-1
 574 85 l 1,3,-1
 481 178 l 1,4,5
 420 135 420 135 346 135 c 0,6,7
 270 135 270 135 210 179 c 1,8,-1
 116 85 l 1,9,-1
 65 135 l 1,10,-1
 160 230 l 1,11,12
 116 290 116 290 116 365 c 0,13,14
 116 438 116 438 159 499 c 1,15,-1
 65 594 l 1,16,-1
 116 644 l 1,17,-1
 209 550 l 1,18,19
 270 595 270 595 346 595 c 0,20,21
 421 595 421 595 481 551 c 1,22,-1
 574 645 l 1,23,-1
 625 594 l 1,24,-1
 532 501 l 1,25,26
 576 441 576 441 576 365 c 0,27,0
 576 291 576 291 531 228 c 1,1,-1
424 229.5 m 128,-1,29
 460 251 460 251 481.5 287 c 128,-1,30
 503 323 503 323 503 365 c 256,31,32
 503 407 503 407 481.5 443 c 128,-1,33
 460 479 460 479 424 500.5 c 128,-1,34
 388 522 388 522 346 522 c 256,35,36
 304 522 304 522 268 501 c 128,-1,37
 232 480 232 480 211 444 c 128,-1,38
 190 408 190 408 190 365 c 0,39,40
 190 323 190 323 211 287 c 128,-1,41
 232 251 232 251 268 229.5 c 128,-1,42
 304 208 304 208 346 208 c 256,43,28
 388 208 388 208 424 229.5 c 128,-1,29
EndSplineSet
EndChar

StartChar: dollar
Encoding: 36 36 480
Width: 631
Flags: W
LayerCount: 2
Fore
SplineSet
515.5 52.5 m 128,-1,1
 457 0 457 0 351 -8 c 1,2,-1
 351 -105 l 1,3,-1
 281 -105 l 1,4,-1
 281 -9 l 1,5,6
 217 -5 217 -5 159 13 c 128,-1,7
 101 31 101 31 57 61 c 1,8,-1
 81 132 l 1,9,10
 123 103 123 103 174.5 85.5 c 128,-1,11
 226 68 226 68 281 64 c 1,12,-1
 281 353 l 1,13,14
 166 395 166 395 116.5 443 c 128,-1,15
 67 491 67 491 67 562 c 0,16,17
 67 641 67 641 122 686 c 128,-1,18
 177 731 177 731 281 739 c 1,19,-1
 281 835 l 1,20,-1
 351 835 l 1,21,-1
 351 739 l 1,22,23
 474 733 474 733 562 683 c 1,24,-1
 543 612 l 1,25,26
 448 662 448 662 351 666 c 1,27,-1
 351 413 l 1,28,29
 433 383 433 383 481.5 351.5 c 128,-1,30
 530 320 530 320 552 281.5 c 128,-1,31
 574 243 574 243 574 192 c 0,32,0
 574 105 574 105 515.5 52.5 c 128,-1,1
180.5 493.5 m 128,-1,34
 210 465 210 465 281 438 c 1,35,-1
 281 665 l 1,36,37
 151 653 151 653 151 562 c 0,38,33
 151 522 151 522 180.5 493.5 c 128,-1,34
457 104.5 m 128,-1,40
 494 137 494 137 494 190 c 0,41,42
 494 237 494 237 461.5 268.5 c 128,-1,43
 429 300 429 300 351 329 c 1,44,-1
 351 65 l 1,45,39
 420 72 420 72 457 104.5 c 128,-1,40
EndSplineSet
EndChar

StartChar: dong
Encoding: 8363 8363 481
Width: 699
Flags: W
LayerCount: 2
Fore
SplineSet
639 680 m 1,0,-1
 639 620 l 1,1,-1
 526 620 l 1,2,-1
 526 150 l 1,3,-1
 450 150 l 1,4,-1
 449 208 l 1,5,-1
 447 208 l 1,6,7
 421 177 421 177 372.5 159.5 c 128,-1,8
 324 142 324 142 268 142 c 0,9,10
 171 142 171 142 117 199 c 128,-1,11
 63 256 63 256 63 358 c 256,12,13
 63 460 63 460 117 517 c 128,-1,14
 171 574 171 574 268 574 c 0,15,16
 324 574 324 574 371.5 556.5 c 128,-1,17
 419 539 419 539 445 508 c 1,18,-1
 447 508 l 1,19,-1
 447 620 l 1,20,-1
 219 620 l 1,21,-1
 219 680 l 1,22,-1
 447 680 l 1,23,-1
 447 750 l 1,24,-1
 526 750 l 1,25,-1
 526 680 l 1,26,-1
 639 680 l 1,0,-1
369.5 221 m 128,-1,28
 406 239 406 239 426.5 270 c 128,-1,29
 447 301 447 301 447 340 c 2,30,-1
 447 376 l 2,31,32
 447 415 447 415 426.5 446.5 c 128,-1,33
 406 478 406 478 370 495.5 c 128,-1,34
 334 513 334 513 289 513 c 0,35,36
 221 513 221 513 181.5 471.5 c 128,-1,37
 142 430 142 430 142 358 c 256,38,39
 142 286 142 286 181.5 244.5 c 128,-1,40
 221 203 221 203 289 203 c 0,41,27
 333 203 333 203 369.5 221 c 128,-1,28
68 0 m 1,42,-1
 68 60 l 1,43,-1
 639 60 l 1,44,-1
 639 0 l 1,45,-1
 68 0 l 1,42,-1
EndSplineSet
EndChar

StartChar: Euro
Encoding: 8364 8364 482
Width: 780
GlyphClass: 2
Flags: W
AnchorPoint: "Anchor-1" 472 730 basechar 0
AnchorPoint: "Anchor-0" 472 0 basechar 0
LayerCount: 2
Fore
SplineSet
695 121 m 1,1,-1
 729 56 l 1,2,3
 630 -10 630 -10 495 -10 c 0,4,5
 358 -10 358 -10 267.5 57.5 c 128,-1,6
 177 125 177 125 147 247 c 1,7,-1
 34 247 l 1,8,-1
 34 313 l 1,9,-1
 136 313 l 1,10,11
 134 347 134 347 134 365 c 256,12,13
 134 383 134 383 136 417 c 1,14,-1
 34 417 l 1,15,-1
 34 483 l 1,16,-1
 148 483 l 1,17,18
 177 605 177 605 268 672.5 c 128,-1,19
 359 740 359 740 495 740 c 0,20,21
 630 740 630 740 729 674 c 1,22,-1
 695 609 l 1,23,24
 605 667 605 667 498 667 c 0,25,26
 399 667 399 667 330 618.5 c 128,-1,27
 261 570 261 570 233 483 c 1,28,-1
 634 483 l 1,29,-1
 634 417 l 1,30,-1
 219 417 l 1,31,32
 216 392 216 392 216 365 c 0,33,34
 216 339 216 339 219 313 c 1,35,-1
 634 313 l 1,36,-1
 634 247 l 1,37,-1
 233 247 l 1,38,39
 261 160 261 160 330 111.5 c 128,-1,40
 399 63 399 63 498 63 c 0,41,0
 605 63 605 63 695 121 c 1,1,-1
EndSplineSet
EndChar

StartChar: florin
Encoding: 402 402 483
Width: 473
Flags: W
LayerCount: 2
Fore
SplineSet
23 -105 m 1,1,-1
 36 -40 l 1,2,3
 72 -53 72 -53 111 -53 c 0,4,5
 158 -53 158 -53 177 -29 c 128,-1,6
 196 -5 196 -5 196 53 c 2,7,-1
 196 341 l 1,8,-1
 53 341 l 1,9,-1
 53 407 l 1,10,-1
 196 407 l 1,11,-1
 196 567 l 2,12,13
 196 740 196 740 350 740 c 0,14,15
 401 740 401 740 450 725 c 1,16,-1
 436 660 l 1,17,18
 400 673 400 673 362 673 c 0,19,20
 315 673 315 673 295.5 649 c 128,-1,21
 276 625 276 625 276 567 c 2,22,-1
 276 407 l 1,23,-1
 446 407 l 1,24,-1
 446 341 l 1,25,-1
 276 341 l 1,26,-1
 276 53 l 2,27,28
 276 -34 276 -34 238 -77 c 128,-1,29
 200 -120 200 -120 122 -120 c 0,30,0
 73 -120 73 -120 23 -105 c 1,1,-1
EndSplineSet
EndChar

StartChar: franc
Encoding: 8355 8355 484
Width: 631
Flags: W
LayerCount: 2
Fore
SplineSet
579 657 m 1,0,-1
 216 657 l 1,1,-1
 216 433 l 1,2,-1
 559 433 l 1,3,-1
 559 361 l 1,4,-1
 216 361 l 1,5,-1
 216 178 l 1,6,-1
 474 178 l 1,7,-1
 474 112 l 1,8,-1
 216 112 l 1,9,-1
 216 0 l 1,10,-1
 136 0 l 1,11,-1
 136 112 l 1,12,-1
 27 112 l 1,13,-1
 27 178 l 1,14,-1
 136 178 l 1,15,-1
 136 730 l 1,16,-1
 579 730 l 1,17,-1
 579 657 l 1,0,-1
EndSplineSet
EndChar

StartChar: uni20B2
Encoding: 8370 8370 485
Width: 791
Flags: W
LayerCount: 2
Fore
SplineSet
719 418 m 1,0,-1
 719 46 l 1,1,2
 664 20 664 20 590 5 c 128,-1,3
 516 -10 516 -10 442 -10 c 2,4,-1
 423 -10 l 1,5,-1
 423 -105 l 1,6,-1
 353 -105 l 1,7,-1
 353 -4 l 1,8,9
 205 19 205 19 123.5 115 c 128,-1,10
 42 211 42 211 42 365 c 256,11,12
 42 519 42 519 123.5 615 c 128,-1,13
 205 711 205 711 353 734 c 1,14,-1
 353 835 l 1,15,-1
 423 835 l 1,16,-1
 423 740 l 1,17,-1
 442 740 l 2,18,19
 589 740 589 740 692 678 c 1,20,-1
 660 615 l 1,21,22
 565 668 565 668 440 668 c 2,23,-1
 423 668 l 1,24,-1
 423 418 l 1,25,-1
 719 418 l 1,0,-1
181 167 m 128,-1,27
 241 91 241 91 353 70 c 1,28,-1
 353 660 l 1,29,30
 241 639 241 639 181 563 c 128,-1,31
 121 487 121 487 121 365 c 256,32,26
 121 243 121 243 181 167 c 128,-1,27
544.5 71 m 128,-1,34
 597 80 597 80 639 97 c 1,35,-1
 639 348 l 1,36,-1
 423 348 l 1,37,-1
 423 62 l 1,38,-1
 440 62 l 2,39,33
 492 62 492 62 544.5 71 c 128,-1,34
EndSplineSet
EndChar

StartChar: uni20AD
Encoding: 8365 8365 486
Width: 734
GlyphClass: 2
Flags: W
AnchorPoint: "Anchor-1" 351 730 basechar 0
AnchorPoint: "Anchor-0" 351 0 basechar 0
LayerCount: 2
Fore
SplineSet
666 420 m 1,0,-1
 666 353 l 1,1,-1
 323 353 l 1,2,-1
 666 0 l 1,3,-1
 565 0 l 1,4,-1
 224 353 l 1,5,-1
 216 353 l 1,6,-1
 216 0 l 1,7,-1
 136 0 l 1,8,-1
 136 353 l 1,9,-1
 27 353 l 1,10,-1
 27 420 l 1,11,-1
 136 420 l 1,12,-1
 136 730 l 1,13,-1
 216 730 l 1,14,-1
 216 420 l 1,15,-1
 223 420 l 1,16,-1
 554 730 l 1,17,-1
 656 730 l 1,18,-1
 325 420 l 1,19,-1
 666 420 l 1,0,-1
EndSplineSet
EndChar

StartChar: lira
Encoding: 8356 8356 487
Width: 660
Flags: W
LayerCount: 2
Fore
SplineSet
594 72 m 1,0,-1
 594 0 l 1,1,-1
 94 0 l 1,2,-1
 94 72 l 1,3,4
 141 75 141 75 172.5 120.5 c 128,-1,5
 204 166 204 166 204 238 c 2,6,-1
 204 267 l 1,7,-1
 94 267 l 1,8,-1
 94 334 l 1,9,-1
 204 334 l 1,10,-1
 204 437 l 1,11,-1
 94 437 l 1,12,-1
 94 504 l 1,13,-1
 204 504 l 1,14,-1
 204 540 l 2,15,16
 204 636 204 636 262 688 c 128,-1,17
 320 740 320 740 429 740 c 0,18,19
 499 740 499 740 564 714 c 1,20,-1
 547 644 l 1,21,22
 496 668 496 668 437 668 c 0,23,24
 359 668 359 668 321.5 633.5 c 128,-1,25
 284 599 284 599 284 528 c 2,26,-1
 284 504 l 1,27,-1
 532 504 l 1,28,-1
 532 437 l 1,29,-1
 284 437 l 1,30,-1
 284 334 l 1,31,-1
 532 334 l 1,32,-1
 532 267 l 1,33,-1
 284 267 l 1,34,-1
 284 238 l 2,35,36
 284 183 284 183 263.5 139.5 c 128,-1,37
 243 96 243 96 208 74 c 1,38,-1
 208 72 l 1,39,-1
 594 72 l 1,0,-1
EndSplineSet
EndChar

StartChar: uni20BA
Encoding: 8378 8378 488
Width: 674
Flags: W
LayerCount: 2
Fore
SplineSet
635 340 m 1,0,1
 635 217 635 217 587 140 c 128,-1,2
 539 63 539 63 438 26.5 c 128,-1,3
 337 -10 337 -10 175 -10 c 2,4,-1
 135 -10 l 1,5,-1
 135 360 l 1,6,-1
 27 340 l 1,7,-1
 27 407 l 1,8,-1
 135 427 l 1,9,-1
 135 530 l 1,10,-1
 27 510 l 1,11,-1
 27 577 l 1,12,-1
 135 597 l 1,13,-1
 135 730 l 1,14,-1
 217 730 l 1,15,-1
 217 612 l 1,16,-1
 465 657 l 1,17,-1
 465 590 l 1,18,-1
 217 545 l 1,19,-1
 217 442 l 1,20,-1
 465 487 l 1,21,-1
 465 420 l 1,22,-1
 217 375 l 1,23,-1
 217 67 l 1,24,-1
 231 67 l 2,25,26
 405 67 405 67 483.5 132 c 128,-1,27
 562 197 562 197 562 340 c 1,28,-1
 635 340 l 1,0,1
EndSplineSet
EndChar

StartChar: uni20BC
Encoding: 8380 8380 489
Width: 769
Flags: W
LayerCount: 2
Fore
SplineSet
623.5 669 m 128,-1,1
 693 598 693 598 693 460 c 2,2,-1
 693 0 l 1,3,-1
 613 0 l 1,4,-1
 613 451 l 2,5,6
 613 562 613 562 566 614.5 c 128,-1,7
 519 667 519 667 420 667 c 1,8,-1
 420 0 l 1,9,-1
 350 0 l 1,10,-1
 350 667 l 1,11,12
 251 667 251 667 203.5 614.5 c 128,-1,13
 156 562 156 562 156 451 c 2,14,-1
 156 0 l 1,15,-1
 76 0 l 1,16,-1
 76 460 l 2,17,18
 76 598 76 598 145.5 669 c 128,-1,19
 215 740 215 740 350 740 c 1,20,-1
 350 835 l 1,21,-1
 420 835 l 1,22,-1
 420 740 l 1,23,0
 554 740 554 740 623.5 669 c 128,-1,1
EndSplineSet
EndChar

StartChar: uni20A6
Encoding: 8358 8358 490
Width: 822
GlyphClass: 2
Flags: W
AnchorPoint: "Anchor-1" 411 730 basechar 0
AnchorPoint: "Anchor-0" 411 0 basechar 0
LayerCount: 2
Fore
SplineSet
795 417 m 1,0,-1
 686 417 l 1,1,-1
 686 313 l 1,2,-1
 795 313 l 1,3,-1
 795 247 l 1,4,-1
 686 247 l 1,5,-1
 686 0 l 1,6,-1
 595 0 l 1,7,-1
 441 247 l 1,8,-1
 216 247 l 1,9,-1
 216 0 l 1,10,-1
 136 0 l 1,11,-1
 136 247 l 1,12,-1
 27 247 l 1,13,-1
 27 313 l 1,14,-1
 136 313 l 1,15,-1
 136 417 l 1,16,-1
 27 417 l 1,17,-1
 27 483 l 1,18,-1
 136 483 l 1,19,-1
 136 730 l 1,20,-1
 227 730 l 1,21,-1
 381 483 l 1,22,-1
 606 483 l 1,23,-1
 606 730 l 1,24,-1
 686 730 l 1,25,-1
 686 483 l 1,26,-1
 795 483 l 1,27,-1
 795 417 l 1,0,-1
216 603 m 1,28,-1
 216 483 l 1,29,-1
 293 483 l 1,30,-1
 218 603 l 1,31,-1
 216 603 l 1,28,-1
216 417 m 1,32,-1
 216 313 l 1,33,-1
 399 313 l 1,34,-1
 334 417 l 1,35,-1
 216 417 l 1,32,-1
606 313 m 1,36,-1
 606 417 l 1,37,-1
 423 417 l 1,38,-1
 488 313 l 1,39,-1
 606 313 l 1,36,-1
606 127 m 1,40,-1
 606 247 l 1,41,-1
 529 247 l 1,42,-1
 604 127 l 1,43,-1
 606 127 l 1,40,-1
EndSplineSet
EndChar

StartChar: peseta
Encoding: 8359 8359 491
Width: 719
Flags: W
LayerCount: 2
Fore
SplineSet
708 462 m 1,0,-1
 617 462 l 1,1,2
 607 360 607 360 535.5 311.5 c 128,-1,3
 464 263 464 263 326 263 c 2,4,-1
 216 263 l 1,5,-1
 216 0 l 1,6,-1
 136 0 l 1,7,-1
 136 462 l 1,8,-1
 27 462 l 1,9,-1
 27 529 l 1,10,-1
 136 529 l 1,11,-1
 136 730 l 1,12,-1
 313 730 l 2,13,14
 460 730 460 730 534 681 c 128,-1,15
 608 632 608 632 618 529 c 1,16,-1
 708 529 l 1,17,-1
 708 462 l 1,0,-1
216 529 m 1,18,-1
 536 529 l 1,19,20
 527 597 527 597 474 628.5 c 128,-1,21
 421 660 421 660 316 660 c 2,22,-1
 216 660 l 1,23,-1
 216 529 l 1,18,-1
473.5 362.5 m 128,-1,25
 526 394 526 394 536 462 c 1,26,-1
 216 462 l 1,27,-1
 216 331 l 1,28,-1
 316 331 l 2,29,24
 421 331 421 331 473.5 362.5 c 128,-1,25
EndSplineSet
EndChar

StartChar: uni20B1
Encoding: 8369 8369 492
Width: 719
Flags: W
LayerCount: 2
Fore
SplineSet
708 547 m 1,0,-1
 615 547 l 1,1,2
 619 526 619 526 619 496 c 0,3,4
 619 465 619 465 615 444 c 1,5,-1
 708 444 l 1,6,-1
 708 377 l 1,7,-1
 594 377 l 1,8,9
 564 319 564 319 497.5 291 c 128,-1,10
 431 263 431 263 326 263 c 2,11,-1
 216 263 l 1,12,-1
 216 0 l 1,13,-1
 136 0 l 1,14,-1
 136 377 l 1,15,-1
 27 377 l 1,16,-1
 27 444 l 1,17,-1
 136 444 l 1,18,-1
 136 547 l 1,19,-1
 27 547 l 1,20,-1
 27 614 l 1,21,-1
 136 614 l 1,22,-1
 136 730 l 1,23,-1
 313 730 l 2,24,25
 425 730 425 730 494.5 701.5 c 128,-1,26
 564 673 564 673 594 614 c 1,27,-1
 708 614 l 1,28,-1
 708 547 l 1,0,-1
216 614 m 1,29,-1
 494 614 l 1,30,31
 441 660 441 660 316 660 c 2,32,-1
 216 660 l 1,33,-1
 216 614 l 1,29,-1
533 547 m 1,35,-1
 216 547 l 1,36,-1
 216 444 l 1,37,-1
 532 444 l 1,38,39
 538 468 538 468 538 496 c 0,40,34
 538 522 538 522 533 547 c 1,35,-1
494 377 m 1,42,-1
 216 377 l 1,43,-1
 216 331 l 1,44,-1
 316 331 l 2,45,41
 441 331 441 331 494 377 c 1,42,-1
EndSplineSet
EndChar

StartChar: uni20BD
Encoding: 8381 8381 493
Width: 648
Flags: W
LayerCount: 2
Fore
SplineSet
216 285 m 1,0,-1
 216 181 l 1,1,-1
 474 181 l 1,2,-1
 474 115 l 1,3,-1
 216 115 l 1,4,-1
 216 0 l 1,5,-1
 136 0 l 1,6,-1
 136 115 l 1,7,-1
 27 115 l 1,8,-1
 27 181 l 1,9,-1
 136 181 l 1,10,-1
 136 285 l 1,11,-1
 27 285 l 1,12,-1
 27 351 l 1,13,-1
 136 351 l 1,14,-1
 136 730 l 1,15,-1
 313 730 l 2,16,17
 470 730 470 730 544.5 675.5 c 128,-1,18
 619 621 619 621 619 505 c 0,19,20
 619 393 619 393 547 339 c 128,-1,21
 475 285 475 285 326 285 c 2,22,-1
 216 285 l 1,0,-1
216 351 m 1,23,-1
 316 351 l 2,24,25
 433 351 433 351 485.5 387.5 c 128,-1,26
 538 424 538 424 538 504 c 256,27,28
 538 584 538 584 485.5 620.5 c 128,-1,29
 433 657 433 657 316 657 c 2,30,-1
 216 657 l 1,31,-1
 216 351 l 1,23,-1
EndSplineSet
EndChar

StartChar: uni20B9
Encoding: 8377 8377 494
Width: 635
Flags: W
LayerCount: 2
Fore
SplineSet
584 663 m 1,0,-1
 435 663 l 1,1,2
 484 626 484 626 493 557 c 1,3,-1
 584 557 l 1,4,-1
 584 490 l 1,5,-1
 493 490 l 1,6,7
 482 408 482 408 419.5 366 c 128,-1,8
 357 324 357 324 238 319 c 1,9,-1
 519 0 l 1,10,-1
 413 0 l 1,11,-1
 133 318 l 1,12,-1
 52 318 l 1,13,-1
 52 390 l 1,14,-1
 202 390 l 2,15,16
 300 390 300 390 350.5 414 c 128,-1,17
 401 438 401 438 411 490 c 1,18,-1
 52 490 l 1,19,-1
 52 557 l 1,20,-1
 411 557 l 1,21,22
 400 609 400 609 349.5 633 c 128,-1,23
 299 657 299 657 202 657 c 2,24,-1
 52 657 l 1,25,-1
 52 730 l 1,26,-1
 584 730 l 1,27,-1
 584 663 l 1,0,-1
EndSplineSet
EndChar

StartChar: sterling
Encoding: 163 163 495
Width: 660
Flags: W
LayerCount: 2
Fore
SplineSet
594 72 m 1,0,-1
 594 0 l 1,1,-1
 94 0 l 1,2,-1
 94 72 l 1,3,4
 141 75 141 75 172.5 120.5 c 128,-1,5
 204 166 204 166 204 238 c 2,6,-1
 204 352 l 1,7,-1
 94 352 l 1,8,-1
 94 419 l 1,9,-1
 204 419 l 1,10,-1
 204 540 l 2,11,12
 204 636 204 636 262 688 c 128,-1,13
 320 740 320 740 429 740 c 0,14,15
 499 740 499 740 564 714 c 1,16,-1
 547 644 l 1,17,18
 496 668 496 668 437 668 c 0,19,20
 359 668 359 668 321.5 633.5 c 128,-1,21
 284 599 284 599 284 528 c 2,22,-1
 284 419 l 1,23,-1
 532 419 l 1,24,-1
 532 352 l 1,25,-1
 284 352 l 1,26,-1
 284 238 l 2,27,28
 284 183 284 183 263.5 139.5 c 128,-1,29
 243 96 243 96 208 74 c 1,30,-1
 208 72 l 1,31,-1
 594 72 l 1,0,-1
EndSplineSet
EndChar

StartChar: uni20A9
Encoding: 8361 8361 496
Width: 995
GlyphClass: 2
Flags: W
AnchorPoint: "Anchor-1" 499 730 basechar 0
AnchorPoint: "Anchor-0" 499 0 basechar 0
LayerCount: 2
Fore
SplineSet
967 417 m 1,0,-1
 854 417 l 1,1,-1
 828 313 l 1,2,-1
 967 313 l 1,3,-1
 967 247 l 1,4,-1
 813 247 l 1,5,-1
 753 0 l 1,6,-1
 651 0 l 1,7,-1
 581 247 l 1,8,-1
 416 247 l 1,9,-1
 346 0 l 1,10,-1
 245 0 l 1,11,-1
 185 247 l 1,12,-1
 27 247 l 1,13,-1
 27 313 l 1,14,-1
 170 313 l 1,15,-1
 144 417 l 1,16,-1
 27 417 l 1,17,-1
 27 483 l 1,18,-1
 129 483 l 1,19,-1
 69 730 l 1,20,-1
 151 730 l 1,21,-1
 207 483 l 1,22,-1
 407 483 l 1,23,-1
 448 630 l 1,24,-1
 549 630 l 1,25,-1
 590 483 l 1,26,-1
 791 483 l 1,27,-1
 847 730 l 1,28,-1
 929 730 l 1,29,-1
 869 483 l 1,30,-1
 967 483 l 1,31,-1
 967 417 l 1,0,-1
563 313 m 1,32,-1
 500 536 l 1,33,-1
 498 536 l 1,34,-1
 435 313 l 1,35,-1
 563 313 l 1,32,-1
222 417 m 1,36,-1
 246 313 l 1,37,-1
 359 313 l 1,38,-1
 388 417 l 1,39,-1
 222 417 l 1,36,-1
752 313 m 1,40,-1
 776 417 l 1,41,-1
 609 417 l 1,42,-1
 638 313 l 1,43,-1
 752 313 l 1,40,-1
298 95 m 1,44,-1
 341 247 l 1,45,-1
 261 247 l 1,46,-1
 296 95 l 1,47,-1
 298 95 l 1,44,-1
702 95 m 1,48,-1
 737 247 l 1,49,-1
 657 247 l 1,50,-1
 700 95 l 1,51,-1
 702 95 l 1,48,-1
EndSplineSet
EndChar

StartChar: yen
Encoding: 165 165 497
Width: 643
Flags: W
LayerCount: 2
Fore
SplineSet
635 730 m 1,0,-1
 401 367 l 1,1,-1
 578 367 l 1,2,-1
 578 300 l 1,3,-1
 363 300 l 1,4,-1
 363 197 l 1,5,-1
 578 197 l 1,6,-1
 578 130 l 1,7,-1
 363 130 l 1,8,-1
 363 0 l 1,9,-1
 280 0 l 1,10,-1
 280 130 l 1,11,-1
 65 130 l 1,12,-1
 65 197 l 1,13,-1
 280 197 l 1,14,-1
 280 300 l 1,15,-1
 65 300 l 1,16,-1
 65 367 l 1,17,-1
 242 367 l 1,18,-1
 8 730 l 1,19,-1
 101 730 l 1,20,-1
 321 383 l 1,21,-1
 323 383 l 1,22,-1
 543 730 l 1,23,-1
 635 730 l 1,0,-1
EndSplineSet
EndChar

StartChar: uni2215
Encoding: 8725 8725 499
Width: 429
Flags: W
LayerCount: 2
Fore
SplineSet
333 730 m 1,0,-1
 414 730 l 1,1,-1
 96 0 l 1,2,-1
 14 0 l 1,3,-1
 333 730 l 1,0,-1
EndSplineSet
EndChar

StartChar: plus
Encoding: 43 43 500
Width: 693
Flags: W
LayerCount: 2
Fore
SplineSet
310 253 m 1,0,-1
 56 253 l 1,1,-1
 56 327 l 1,2,-1
 310 327 l 1,3,-1
 310 580 l 1,4,-1
 383 580 l 1,5,-1
 383 327 l 1,6,-1
 636 327 l 1,7,-1
 636 253 l 1,8,-1
 383 253 l 1,9,-1
 383 0 l 1,10,-1
 310 0 l 1,11,-1
 310 253 l 1,0,-1
EndSplineSet
EndChar

StartChar: minus
Encoding: 8722 8722 501
Width: 693
Flags: W
LayerCount: 2
Fore
SplineSet
56 327 m 1,0,-1
 636 327 l 1,1,-1
 636 253 l 1,2,-1
 56 253 l 1,3,-1
 56 327 l 1,0,-1
EndSplineSet
EndChar

StartChar: multiply
Encoding: 215 215 502
Width: 606
Flags: W
LayerCount: 2
Fore
SplineSet
561 81 m 1,0,-1
 512 32 l 1,1,-1
 303 241 l 1,2,-1
 94 32 l 1,3,-1
 45 81 l 1,4,-1
 254 290 l 1,5,-1
 45 499 l 1,6,-1
 94 548 l 1,7,-1
 303 339 l 1,8,-1
 512 548 l 1,9,-1
 561 499 l 1,10,-1
 352 290 l 1,11,-1
 561 81 l 1,0,-1
EndSplineSet
EndChar

StartChar: divide
Encoding: 247 247 503
Width: 693
Flags: W
LayerCount: 2
Fore
SplineSet
306 477 m 128,-1,1
 289 494 289 494 289 517 c 256,2,3
 289 540 289 540 306 556.5 c 128,-1,4
 323 573 323 573 346 573 c 256,5,6
 369 573 369 573 386 556.5 c 128,-1,7
 403 540 403 540 403 517 c 256,8,9
 403 494 403 494 386 477 c 128,-1,10
 369 460 369 460 346 460 c 256,11,0
 323 460 323 460 306 477 c 128,-1,1
56 327 m 1,12,-1
 636 327 l 1,13,-1
 636 253 l 1,14,-1
 56 253 l 1,15,-1
 56 327 l 1,12,-1
306 24 m 128,-1,17
 289 41 289 41 289 64 c 256,18,19
 289 87 289 87 306 103.5 c 128,-1,20
 323 120 323 120 346 120 c 256,21,22
 369 120 369 120 386 103.5 c 128,-1,23
 403 87 403 87 403 64 c 256,24,25
 403 41 403 41 386 24 c 128,-1,26
 369 7 369 7 346 7 c 256,27,16
 323 7 323 7 306 24 c 128,-1,17
EndSplineSet
EndChar

StartChar: equal
Encoding: 61 61 504
Width: 767
Flags: W
LayerCount: 2
Fore
SplineSet
94 440 m 1,0,-1
 674 440 l 1,1,-1
 674 369 l 1,2,-1
 94 369 l 1,3,-1
 94 440 l 1,0,-1
94 211 m 1,4,-1
 674 211 l 1,5,-1
 674 140 l 1,6,-1
 94 140 l 1,7,-1
 94 211 l 1,4,-1
EndSplineSet
EndChar

StartChar: notequal
Encoding: 8800 8800 505
Width: 767
Flags: W
LayerCount: 2
Fore
SplineSet
674 369 m 1,0,-1
 448 369 l 1,1,-1
 397 211 l 1,2,-1
 674 211 l 1,3,-1
 674 140 l 1,4,-1
 374 140 l 1,5,-1
 319 -27 l 1,6,-1
 248 -5 l 1,7,-1
 295 140 l 1,8,-1
 94 140 l 1,9,-1
 94 211 l 1,10,-1
 319 211 l 1,11,-1
 370 369 l 1,12,-1
 94 369 l 1,13,-1
 94 440 l 1,14,-1
 393 440 l 1,15,-1
 448 607 l 1,16,-1
 519 585 l 1,17,-1
 472 440 l 1,18,-1
 674 440 l 1,19,-1
 674 369 l 1,0,-1
EndSplineSet
EndChar

StartChar: greater
Encoding: 62 62 506
Width: 721
Flags: W
LayerCount: 2
Fore
SplineSet
85 97 m 1,0,-1
 602 289 l 1,1,-1
 602 291 l 1,2,-1
 85 483 l 1,3,-1
 85 564 l 1,4,-1
 665 336 l 1,5,-1
 665 244 l 1,6,-1
 85 16 l 1,7,-1
 85 97 l 1,0,-1
EndSplineSet
EndChar

StartChar: less
Encoding: 60 60 507
Width: 721
Flags: W
LayerCount: 2
Fore
SplineSet
56 244 m 1,0,-1
 56 336 l 1,1,-1
 636 564 l 1,2,-1
 636 483 l 1,3,-1
 120 291 l 1,4,-1
 120 289 l 1,5,-1
 636 97 l 1,6,-1
 636 16 l 1,7,-1
 56 244 l 1,0,-1
EndSplineSet
EndChar

StartChar: greaterequal
Encoding: 8805 8805 508
Width: 709
Flags: W
LayerCount: 2
Fore
SplineSet
76 179 m 1,0,-1
 76 259 l 1,1,-1
 593 452 l 1,2,-1
 593 454 l 1,3,-1
 76 646 l 1,4,-1
 76 727 l 1,5,-1
 656 498 l 1,6,-1
 656 407 l 1,7,-1
 76 179 l 1,0,-1
76 0 m 1,8,-1
 76 71 l 1,9,-1
 656 71 l 1,10,-1
 656 0 l 1,11,-1
 76 0 l 1,8,-1
EndSplineSet
EndChar

StartChar: lessequal
Encoding: 8804 8804 509
Width: 709
Flags: W
LayerCount: 2
Fore
SplineSet
53 498 m 1,0,-1
 633 727 l 1,1,-1
 633 646 l 1,2,-1
 116 454 l 1,3,-1
 116 452 l 1,4,-1
 633 259 l 1,5,-1
 633 179 l 1,6,-1
 53 407 l 1,7,-1
 53 498 l 1,0,-1
53 71 m 1,8,-1
 633 71 l 1,9,-1
 633 0 l 1,10,-1
 53 0 l 1,11,-1
 53 71 l 1,8,-1
EndSplineSet
EndChar

StartChar: plusminus
Encoding: 177 177 510
Width: 767
Flags: W
LayerCount: 2
Fore
SplineSet
347 417 m 1,0,-1
 94 417 l 1,1,-1
 94 488 l 1,2,-1
 347 488 l 1,3,-1
 347 730 l 1,4,-1
 420 730 l 1,5,-1
 420 488 l 1,6,-1
 674 488 l 1,7,-1
 674 417 l 1,8,-1
 420 417 l 1,9,-1
 420 175 l 1,10,-1
 347 175 l 1,11,-1
 347 417 l 1,0,-1
94 71 m 1,12,-1
 674 71 l 1,13,-1
 674 0 l 1,14,-1
 94 0 l 1,15,-1
 94 71 l 1,12,-1
EndSplineSet
EndChar

StartChar: approxequal
Encoding: 8776 8776 511
Width: 736
Flags: W
LayerCount: 2
Fore
SplineSet
105.5 450.5 m 128,-1,1
 136 491 136 491 198 491 c 0,2,3
 266 491 266 491 387 438 c 0,4,5
 437 416 437 416 470 406.5 c 128,-1,6
 503 397 503 397 528 397 c 0,7,8
 562 397 562 397 576.5 416 c 128,-1,9
 591 435 591 435 591 481 c 1,10,-1
 661 481 l 1,11,12
 661 320 661 320 538 320 c 0,13,14
 473 320 473 320 349 373 c 0,15,16
 298 396 298 396 265.5 405.5 c 128,-1,17
 233 415 233 415 208 415 c 0,18,19
 173 415 173 415 159 395.5 c 128,-1,20
 145 376 145 376 145 327 c 1,21,-1
 75 327 l 1,22,0
 75 410 75 410 105.5 450.5 c 128,-1,1
105.5 214 m 128,-1,24
 136 255 136 255 198 255 c 0,25,26
 264 255 264 255 387 201 c 0,27,28
 439 179 439 179 471 169.5 c 128,-1,29
 503 160 503 160 528 160 c 0,30,31
 562 160 562 160 576.5 179 c 128,-1,32
 591 198 591 198 591 245 c 1,33,-1
 661 245 l 1,34,35
 661 83 661 83 538 83 c 0,36,37
 472 83 472 83 349 137 c 0,38,39
 297 159 297 159 265 168.5 c 128,-1,40
 233 178 233 178 208 178 c 0,41,42
 173 178 173 178 159 158.5 c 128,-1,43
 145 139 145 139 145 90 c 1,44,-1
 75 90 l 1,45,23
 75 173 75 173 105.5 214 c 128,-1,24
EndSplineSet
EndChar

StartChar: asciitilde
Encoding: 126 126 512
Width: 699
Flags: W
LayerCount: 2
Fore
SplineSet
179 387 m 0,1,2
 245 387 245 387 369 333 c 0,3,4
 419 311 419 311 452 301 c 128,-1,5
 485 291 485 291 509 291 c 0,6,7
 544 291 544 291 558 310.5 c 128,-1,8
 572 330 572 330 572 377 c 1,9,-1
 643 377 l 1,10,11
 643 214 643 214 520 214 c 0,12,13
 451 214 451 214 330 268 c 0,14,15
 280 291 280 291 247.5 300.5 c 128,-1,16
 215 310 215 310 190 310 c 0,17,18
 155 310 155 310 141 289.5 c 128,-1,19
 127 269 127 269 127 220 c 1,20,-1
 56 220 l 1,21,0
 56 387 56 387 179 387 c 0,1,2
EndSplineSet
EndChar

StartChar: logicalnot
Encoding: 172 172 513
Width: 723
Flags: W
LayerCount: 2
Fore
SplineSet
556 367 m 1,0,-1
 56 367 l 1,1,-1
 56 440 l 1,2,-1
 630 440 l 1,3,-1
 630 140 l 1,4,-1
 556 140 l 1,5,-1
 556 367 l 1,0,-1
EndSplineSet
EndChar

StartChar: asciicircum
Encoding: 94 94 514
Width: 602
Flags: W
LayerCount: 2
Fore
SplineSet
248 730 m 1,0,-1
 355 730 l 1,1,-1
 588 280 l 1,2,-1
 499 280 l 1,3,-1
 302 674 l 1,4,-1
 300 674 l 1,5,-1
 103 280 l 1,6,-1
 14 280 l 1,7,-1
 248 730 l 1,0,-1
EndSplineSet
EndChar

StartChar: uni00B5
Encoding: 181 181 515
Width: 575
GlyphClass: 2
Flags: W
AnchorPoint: "Anchor-3" 489 480 basechar 0
AnchorPoint: "Anchor-2" 499 0 basechar 0
AnchorPoint: "Anchor-1" 288 520 basechar 0
AnchorPoint: "Anchor-0" 288 0 basechar 0
LayerCount: 2
Fore
SplineSet
499 520 m 1,0,-1
 499 0 l 1,1,-1
 423 0 l 1,2,-1
 423 86 l 1,3,-1
 421 86 l 1,4,5
 389 41 389 41 339.5 15.5 c 128,-1,6
 290 -10 290 -10 232 -10 c 0,7,8
 182 -10 182 -10 148 9 c 1,9,-1
 148 -220 l 1,10,-1
 69 -220 l 1,11,-1
 69 520 l 1,12,-1
 148 520 l 1,13,-1
 148 214 l 2,14,15
 148 57 148 57 253 57 c 0,16,17
 297 57 297 57 335.5 83 c 128,-1,18
 374 109 374 109 397 153 c 128,-1,19
 420 197 420 197 420 247 c 2,20,-1
 420 520 l 1,21,-1
 499 520 l 1,0,-1
EndSplineSet
EndChar

StartChar: percent
Encoding: 37 37 516
Width: 858
Flags: W
LayerCount: 2
Fore
SplineSet
82.5 342 m 128,-1,1
 43 398 43 398 43 511 c 256,2,3
 43 624 43 624 82.5 680 c 128,-1,4
 122 736 122 736 203 736 c 0,5,6
 363 736 363 736 363 511 c 256,7,8
 363 286 363 286 203 286 c 0,9,0
 122 286 122 286 82.5 342 c 128,-1,1
594 730 m 1,10,-1
 671 730 l 1,11,-1
 264 0 l 1,12,-1
 187 0 l 1,13,-1
 594 730 l 1,10,-1
268 391 m 128,-1,15
 289 429 289 429 289 511 c 256,16,17
 289 593 289 593 268 631 c 128,-1,18
 247 669 247 669 203 669 c 256,19,20
 159 669 159 669 138 631 c 128,-1,21
 117 593 117 593 117 511 c 256,22,23
 117 429 117 429 138 391 c 128,-1,24
 159 353 159 353 203 353 c 256,25,14
 247 353 247 353 268 391 c 128,-1,15
495 219 m 256,27,28
 495 444 495 444 655 444 c 0,29,30
 736 444 736 444 775.5 388 c 128,-1,31
 815 332 815 332 815 219 c 256,32,33
 815 106 815 106 775.5 50 c 128,-1,34
 736 -6 736 -6 655 -6 c 0,35,26
 495 -6 495 -6 495 219 c 256,27,28
720 99 m 128,-1,37
 741 137 741 137 741 219 c 256,38,39
 741 301 741 301 720 339 c 128,-1,40
 699 377 699 377 655 377 c 256,41,42
 611 377 611 377 590 339 c 128,-1,43
 569 301 569 301 569 219 c 256,44,45
 569 137 569 137 590 99 c 128,-1,46
 611 61 611 61 655 61 c 256,47,36
 699 61 699 61 720 99 c 128,-1,37
EndSplineSet
EndChar

StartChar: at
Encoding: 64 64 518
Width: 825
Flags: W
LayerCount: 2
Fore
SplineSet
587 461 m 1,0,-1
 587 119 l 1,1,-1
 691 119 l 1,2,3
 722 181 722 181 722 260 c 0,4,5
 722 351 722 351 683 421.5 c 128,-1,6
 644 492 644 492 574 531 c 128,-1,7
 504 570 504 570 413 570 c 0,8,9
 323 570 323 570 252 530.5 c 128,-1,10
 181 491 181 491 141.5 420.5 c 128,-1,11
 102 350 102 350 102 260 c 256,12,13
 102 170 102 170 141.5 99.5 c 128,-1,14
 181 29 181 29 252 -10.5 c 128,-1,15
 323 -50 323 -50 413 -50 c 0,16,17
 522 -50 522 -50 604 10 c 1,18,-1
 639 -38 l 1,19,20
 544 -110 544 -110 413 -110 c 0,21,22
 306 -110 306 -110 221.5 -62.5 c 128,-1,23
 137 -15 137 -15 89.5 69 c 128,-1,24
 42 153 42 153 42 260 c 256,25,26
 42 367 42 367 89.5 451 c 128,-1,27
 137 535 137 535 221.5 582.5 c 128,-1,28
 306 630 306 630 413 630 c 256,29,30
 520 630 520 630 604 583 c 128,-1,31
 688 536 688 536 735 452 c 128,-1,32
 782 368 782 368 782 260 c 0,33,34
 782 144 782 144 729 59 c 1,35,-1
 511 59 l 1,36,-1
 510 126 l 1,37,-1
 508 126 l 1,38,39
 464 50 464 50 377 50 c 0,40,41
 303 50 303 50 259 106 c 128,-1,42
 215 162 215 162 215 260 c 256,43,44
 215 358 215 358 259 414 c 128,-1,45
 303 470 303 470 377 470 c 0,46,47
 464 470 464 470 508 394 c 1,48,-1
 510 394 l 1,49,-1
 511 461 l 1,50,-1
 587 461 l 1,0,-1
508 272 m 2,51,52
 508 337 508 337 480 372 c 128,-1,53
 452 407 452 407 401 407 c 0,54,55
 351 407 351 407 322.5 368 c 128,-1,56
 294 329 294 329 294 260 c 256,57,58
 294 191 294 191 322.5 152 c 128,-1,59
 351 113 351 113 401 113 c 0,60,61
 452 113 452 113 480 148 c 128,-1,62
 508 183 508 183 508 248 c 2,63,-1
 508 272 l 2,51,52
EndSplineSet
EndChar

StartChar: ampersand
Encoding: 38 38 519
Width: 685
Flags: W
LayerCount: 2
Fore
SplineSet
626 -9 m 1,0,-1
 540 79 l 1,1,2
 423 -10 423 -10 284 -10 c 0,3,4
 172 -10 172 -10 107.5 39 c 128,-1,5
 43 88 43 88 43 173 c 0,6,7
 43 215 43 215 60 250 c 128,-1,8
 77 285 77 285 116 320.5 c 128,-1,9
 155 356 155 356 225 401 c 1,10,-1
 217 410 l 2,11,12
 160 469 160 469 137 512 c 128,-1,13
 114 555 114 555 114 599 c 0,14,15
 114 666 114 666 164 703 c 128,-1,16
 214 740 214 740 304 740 c 256,17,18
 394 740 394 740 445 703 c 128,-1,19
 496 666 496 666 496 599 c 0,20,21
 496 546 496 546 459.5 498.5 c 128,-1,22
 423 451 423 451 336 392 c 1,23,-1
 517 203 l 1,24,-1
 518 413 l 1,25,-1
 591 413 l 1,26,-1
 590 128 l 1,27,-1
 683 31 l 1,28,-1
 626 -9 l 1,0,-1
212.5 532.5 m 128,-1,30
 234 499 234 499 288 442 c 1,31,32
 361 491 361 491 390 525.5 c 128,-1,33
 419 560 419 560 419 597 c 0,34,35
 419 637 419 637 390 658 c 128,-1,36
 361 679 361 679 306 679 c 256,37,38
 251 679 251 679 221 657.5 c 128,-1,39
 191 636 191 636 191 597 c 0,40,29
 191 566 191 566 212.5 532.5 c 128,-1,30
488 132 m 1,42,-1
 274 352 l 1,43,44
 189 298 189 298 156.5 260.5 c 128,-1,45
 124 223 124 223 124 179 c 0,46,47
 124 122 124 122 167.5 89.5 c 128,-1,48
 211 57 211 57 287 57 c 0,49,41
 402 57 402 57 488 132 c 1,42,-1
EndSplineSet
EndChar

StartChar: paragraph
Encoding: 182 182 520
Width: 606
Flags: W
LayerCount: 2
Fore
SplineSet
126 301 m 128,-1,1
 73 332 73 332 42 385 c 128,-1,2
 11 438 11 438 11 500 c 256,3,4
 11 562 11 562 42 615 c 128,-1,5
 73 668 73 668 126 699 c 128,-1,6
 179 730 179 730 241 730 c 2,7,-1
 521 730 l 1,8,-1
 521 -110 l 1,9,-1
 451 -110 l 1,10,-1
 451 667 l 1,11,-1
 311 667 l 1,12,-1
 311 -110 l 1,13,-1
 241 -110 l 1,14,-1
 241 270 l 1,15,0
 179 270 179 270 126 301 c 128,-1,1
EndSplineSet
EndChar

StartChar: section
Encoding: 167 167 521
Width: 545
Flags: W
LayerCount: 2
Fore
SplineSet
473 43 m 0,1,2
 473 -34 473 -34 420 -77 c 128,-1,3
 367 -120 367 -120 273 -120 c 0,4,5
 173 -120 173 -120 80 -75 c 1,6,-1
 101 -12 l 1,7,8
 144 -34 144 -34 183.5 -43.5 c 128,-1,9
 223 -53 223 -53 266 -53 c 0,10,11
 330 -53 330 -53 364 -28.5 c 128,-1,12
 398 -4 398 -4 398 43 c 0,13,14
 398 86 398 86 369.5 111.5 c 128,-1,15
 341 137 341 137 270 152 c 0,16,17
 167 172 167 172 117.5 216 c 128,-1,18
 68 260 68 260 68 330 c 0,19,20
 68 409 68 409 131 456 c 1,21,22
 73 500 73 500 73 577 c 256,23,24
 73 654 73 654 125.5 697 c 128,-1,25
 178 740 178 740 272 740 c 0,26,27
 372 740 372 740 466 695 c 1,28,-1
 444 632 l 1,29,30
 401 654 401 654 361.5 663.5 c 128,-1,31
 322 673 322 673 279 673 c 0,32,33
 215 673 215 673 181 648 c 128,-1,34
 147 623 147 623 147 577 c 0,35,36
 147 534 147 534 176 508.5 c 128,-1,37
 205 483 205 483 276 468 c 0,38,39
 378 448 378 448 427.5 404 c 128,-1,40
 477 360 477 360 477 290 c 0,41,42
 477 211 477 211 414 164 c 1,43,0
 473 122 473 122 473 43 c 0,1,2
167.5 259 m 128,-1,45
 200 233 200 233 279 217 c 0,46,47
 330 205 330 205 357 194 c 1,48,49
 382 210 382 210 396.5 235 c 128,-1,50
 411 260 411 260 411 290 c 0,51,52
 411 335 411 335 378.5 361 c 128,-1,53
 346 387 346 387 266 403 c 0,54,55
 215 415 215 415 188 426 c 1,56,57
 163 410 163 410 149 385 c 128,-1,58
 135 360 135 360 135 330 c 0,59,44
 135 285 135 285 167.5 259 c 128,-1,45
EndSplineSet
EndChar

StartChar: copyright
Encoding: 169 169 522
Width: 821
Flags: W
LayerCount: 2
Fore
SplineSet
226 46.5 m 128,-1,1
 141 96 141 96 91.5 180.5 c 128,-1,2
 42 265 42 265 42 365 c 256,3,4
 42 465 42 465 91.5 549.5 c 128,-1,5
 141 634 141 634 226 683.5 c 128,-1,6
 311 733 311 733 411 733 c 256,7,8
 511 733 511 733 595.5 683.5 c 128,-1,9
 680 634 680 634 729.5 549.5 c 128,-1,10
 779 465 779 465 779 365 c 256,11,12
 779 265 779 265 729.5 180.5 c 128,-1,13
 680 96 680 96 595.5 46.5 c 128,-1,14
 511 -3 511 -3 411 -3 c 256,15,0
 311 -3 311 -3 226 46.5 c 128,-1,1
569 92.5 m 128,-1,17
 641 135 641 135 683.5 207 c 128,-1,18
 726 279 726 279 726 365 c 256,19,20
 726 451 726 451 683.5 523 c 128,-1,21
 641 595 641 595 569 637.5 c 128,-1,22
 497 680 497 680 411 680 c 256,23,24
 325 680 325 680 252.5 637.5 c 128,-1,25
 180 595 180 595 138 523 c 128,-1,26
 96 451 96 451 96 365 c 256,27,28
 96 279 96 279 138 207 c 128,-1,29
 180 135 180 135 252.5 92.5 c 128,-1,30
 325 50 325 50 411 50 c 256,31,16
 497 50 497 50 569 92.5 c 128,-1,17
263 200.5 m 128,-1,33
 205 261 205 261 205 365 c 256,34,35
 205 469 205 469 263.5 529.5 c 128,-1,36
 322 590 322 590 422 590 c 0,37,38
 503 590 503 590 563 551 c 1,39,-1
 528 491 l 1,40,41
 481 523 481 523 424 523 c 0,42,43
 357 523 357 523 318.5 481 c 128,-1,44
 280 439 280 439 280 365 c 256,45,46
 280 291 280 291 318 249 c 128,-1,47
 356 207 356 207 424 207 c 0,48,49
 481 207 481 207 528 239 c 1,50,-1
 563 179 l 1,51,52
 503 140 503 140 422 140 c 0,53,32
 321 140 321 140 263 200.5 c 128,-1,33
EndSplineSet
EndChar

StartChar: registered
Encoding: 174 174 523
Width: 821
Flags: W
LayerCount: 2
Fore
SplineSet
595.5 683.5 m 128,-1,1
 680 634 680 634 729.5 549.5 c 128,-1,2
 779 465 779 465 779 365 c 256,3,4
 779 265 779 265 729.5 180.5 c 128,-1,5
 680 96 680 96 595.5 46.5 c 128,-1,6
 511 -3 511 -3 411 -3 c 256,7,8
 311 -3 311 -3 226 46.5 c 128,-1,9
 141 96 141 96 91.5 180.5 c 128,-1,10
 42 265 42 265 42 365 c 256,11,12
 42 465 42 465 91.5 549.5 c 128,-1,13
 141 634 141 634 226 683.5 c 128,-1,14
 311 733 311 733 411 733 c 256,15,0
 511 733 511 733 595.5 683.5 c 128,-1,1
569 92.5 m 128,-1,17
 641 135 641 135 683.5 207 c 128,-1,18
 726 279 726 279 726 365 c 256,19,20
 726 451 726 451 683.5 523 c 128,-1,21
 641 595 641 595 569 637.5 c 128,-1,22
 497 680 497 680 411 680 c 256,23,24
 325 680 325 680 252.5 637.5 c 128,-1,25
 180 595 180 595 138 523 c 128,-1,26
 96 451 96 451 96 365 c 256,27,28
 96 279 96 279 138 207 c 128,-1,29
 180 135 180 135 252.5 92.5 c 128,-1,30
 325 50 325 50 411 50 c 256,31,16
 497 50 497 50 569 92.5 c 128,-1,17
536 366.5 m 128,-1,33
 502 335 502 335 431 329 c 1,34,-1
 593 146 l 1,35,-1
 503 146 l 1,36,-1
 352 327 l 1,37,-1
 350 327 l 1,38,-1
 350 146 l 1,39,-1
 277 146 l 1,40,-1
 277 584 l 1,41,-1
 386 584 l 2,42,43
 481 584 481 584 525.5 553 c 128,-1,44
 570 522 570 522 570 456 c 0,45,32
 570 398 570 398 536 366.5 c 128,-1,33
350 524 m 1,46,-1
 350 385 l 1,47,-1
 388 385 l 2,48,49
 446 385 446 385 470.5 401 c 128,-1,50
 495 417 495 417 495 454 c 256,51,52
 495 491 495 491 470 507.5 c 128,-1,53
 445 524 445 524 388 524 c 2,54,-1
 350 524 l 1,46,-1
EndSplineSet
EndChar

StartChar: trademark
Encoding: 8482 8482 524
Width: 760
Flags: W
LayerCount: 2
Fore
SplineSet
137 672 m 1,0,-1
 28 672 l 1,1,-1
 28 730 l 1,2,-1
 315 730 l 1,3,-1
 315 672 l 1,4,-1
 205 672 l 1,5,-1
 205 365 l 1,6,-1
 137 365 l 1,7,-1
 137 672 l 1,0,-1
371 730 m 1,8,-1
 456 730 l 1,9,-1
 545 533 l 1,10,-1
 546 533 l 1,11,-1
 635 730 l 1,12,-1
 720 730 l 1,13,-1
 720 365 l 1,14,-1
 653 365 l 1,15,-1
 653 610 l 1,16,-1
 652 610 l 1,17,-1
 576 443 l 1,18,-1
 515 443 l 1,19,-1
 439 610 l 1,20,-1
 438 610 l 1,21,-1
 438 365 l 1,22,-1
 371 365 l 1,23,-1
 371 730 l 1,8,-1
EndSplineSet
EndChar

StartChar: degree
Encoding: 176 176 525
Width: 412
Flags: W
LayerCount: 2
Fore
SplineSet
121.5 422.5 m 128,-1,1
 83 445 83 445 60.5 484 c 128,-1,2
 38 523 38 523 38 568 c 256,3,4
 38 613 38 613 60.5 651.5 c 128,-1,5
 83 690 83 690 121.5 712.5 c 128,-1,6
 160 735 160 735 206 735 c 0,7,8
 251 735 251 735 289.5 712.5 c 128,-1,9
 328 690 328 690 350.5 651.5 c 128,-1,10
 373 613 373 613 373 568 c 256,11,12
 373 523 373 523 350.5 484 c 128,-1,13
 328 445 328 445 289.5 422.5 c 128,-1,14
 251 400 251 400 206 400 c 0,15,0
 160 400 160 400 121.5 422.5 c 128,-1,1
281.5 491.5 m 128,-1,17
 313 523 313 523 313 568 c 0,18,19
 313 612 313 612 281.5 643.5 c 128,-1,20
 250 675 250 675 206 675 c 0,21,22
 161 675 161 675 129.5 643.5 c 128,-1,23
 98 612 98 612 98 568 c 0,24,25
 98 523 98 523 129.5 491.5 c 128,-1,26
 161 460 161 460 206 460 c 0,27,16
 250 460 250 460 281.5 491.5 c 128,-1,17
EndSplineSet
EndChar

StartChar: bar
Encoding: 124 124 526
Width: 264
Flags: W
LayerCount: 2
Fore
SplineSet
94 810 m 1,0,-1
 170 810 l 1,1,-1
 170 -220 l 1,2,-1
 94 -220 l 1,3,-1
 94 810 l 1,0,-1
EndSplineSet
EndChar

StartChar: brokenbar
Encoding: 166 166 527
Width: 264
Flags: W
LayerCount: 2
Fore
SplineSet
94 810 m 1,0,-1
 170 810 l 1,1,-1
 170 370 l 1,2,-1
 94 370 l 1,3,-1
 94 810 l 1,0,-1
94 220 m 1,4,-1
 170 220 l 1,5,-1
 170 -220 l 1,6,-1
 94 -220 l 1,7,-1
 94 220 l 1,4,-1
EndSplineSet
EndChar

StartChar: dagger
Encoding: 8224 8224 528
Width: 502
Flags: W
LayerCount: 2
Fore
SplineSet
213 453 m 1,0,-1
 28 453 l 1,1,-1
 28 520 l 1,2,-1
 213 520 l 1,3,-1
 213 730 l 1,4,-1
 289 730 l 1,5,-1
 289 520 l 1,6,-1
 474 520 l 1,7,-1
 474 453 l 1,8,-1
 289 453 l 1,9,-1
 289 -110 l 1,10,-1
 213 -110 l 1,11,-1
 213 453 l 1,0,-1
EndSplineSet
EndChar

StartChar: daggerdbl
Encoding: 8225 8225 529
Width: 524
Flags: W
LayerCount: 2
Fore
SplineSet
224 100 m 1,0,-1
 39 100 l 1,1,-1
 39 167 l 1,2,-1
 224 167 l 1,3,-1
 224 453 l 1,4,-1
 39 453 l 1,5,-1
 39 520 l 1,6,-1
 224 520 l 1,7,-1
 224 730 l 1,8,-1
 300 730 l 1,9,-1
 300 520 l 1,10,-1
 485 520 l 1,11,-1
 485 453 l 1,12,-1
 300 453 l 1,13,-1
 300 167 l 1,14,-1
 485 167 l 1,15,-1
 485 100 l 1,16,-1
 300 100 l 1,17,-1
 300 -110 l 1,18,-1
 224 -110 l 1,19,-1
 224 100 l 1,0,-1
EndSplineSet
EndChar

StartChar: uni2116
Encoding: 8470 8470 530
Width: 1182
GlyphClass: 2
Flags: W
AnchorPoint: "Anchor-1" 360 730 basechar 0
AnchorPoint: "Anchor-0" 360 0 basechar 0
LayerCount: 2
Fore
SplineSet
782.5 365 m 128,-1,1
 731 422 731 422 731 524 c 0,2,3
 731 627 731 627 782.5 683.5 c 128,-1,4
 834 740 834 740 927 740 c 256,5,6
 1020 740 1020 740 1071.5 683.5 c 128,-1,7
 1123 627 1123 627 1123 524 c 0,8,9
 1123 422 1123 422 1071.5 365 c 128,-1,10
 1020 308 1020 308 927 308 c 256,11,0
 834 308 834 308 782.5 365 c 128,-1,1
176 730 m 1,12,-1
 553 127 l 1,13,-1
 555 127 l 1,14,-1
 555 730 l 1,15,-1
 635 730 l 1,16,-1
 635 0 l 1,17,-1
 544 0 l 1,18,-1
 167 603 l 1,19,-1
 165 603 l 1,20,-1
 165 0 l 1,21,-1
 85 0 l 1,22,-1
 85 730 l 1,23,-1
 176 730 l 1,12,-1
1016 409 m 128,-1,25
 1047 449 1047 449 1047 524 c 256,26,27
 1047 599 1047 599 1016 639 c 128,-1,28
 985 679 985 679 927 679 c 256,29,30
 869 679 869 679 838 639 c 128,-1,31
 807 599 807 599 807 524 c 256,32,33
 807 449 807 449 838 409 c 128,-1,34
 869 369 869 369 927 369 c 256,35,24
 985 369 985 369 1016 409 c 128,-1,25
741 243 m 1,36,-1
 1113 243 l 1,37,-1
 1113 180 l 1,38,-1
 741 180 l 1,39,-1
 741 243 l 1,36,-1
EndSplineSet
Ligature2: "'ordn' Ordinals in Latin lookup 9 subtable" N o period
EndChar

StartChar: uni0308
Encoding: 776 776 533
Width: 0
GlyphClass: 4
Flags: W
AnchorPoint: "Anchor-10" -205 717 basemark 0
AnchorPoint: "Anchor-10" -205 520 mark 0
AnchorPoint: "Anchor-6" -205 520 mark 0
AnchorPoint: "Anchor-1" -205 520 mark 0
LayerCount: 2
Fore
SplineSet
-381 717 m 1,0,-1
 -277 717 l 1,1,-1
 -277 613 l 1,2,-1
 -381 613 l 1,3,-1
 -381 717 l 1,0,-1
-132 717 m 1,4,-1
 -28 717 l 1,5,-1
 -28 613 l 1,6,-1
 -132 613 l 1,7,-1
 -132 717 l 1,4,-1
EndSplineSet
EndChar

StartChar: uni0307
Encoding: 775 775 534
Width: 0
GlyphClass: 4
Flags: W
AnchorPoint: "Anchor-10" -80 717 basemark 0
AnchorPoint: "Anchor-10" -80 520 mark 0
AnchorPoint: "Anchor-6" -80 520 mark 0
AnchorPoint: "Anchor-1" -80 520 mark 0
LayerCount: 2
Fore
SplineSet
-132 717 m 1,0,-1
 -28 717 l 1,1,-1
 -28 613 l 1,2,-1
 -132 613 l 1,3,-1
 -132 717 l 1,0,-1
EndSplineSet
EndChar

StartChar: gravecomb
Encoding: 768 768 535
Width: 0
GlyphClass: 4
Flags: W
AnchorPoint: "Anchor-10" -133 520 mark 0
AnchorPoint: "Anchor-6" -133 520 mark 0
AnchorPoint: "Anchor-1" -133 520 mark 0
LayerCount: 2
Fore
SplineSet
-247 770 m 1,0,-1
 -146 770 l 1,1,-1
 -43 560 l 1,2,-1
 -124 560 l 1,3,-1
 -247 770 l 1,0,-1
EndSplineSet
EndChar

StartChar: acutecomb
Encoding: 769 769 536
Width: 0
GlyphClass: 4
Flags: W
AnchorPoint: "Anchor-10" -140 520 mark 0
AnchorPoint: "Anchor-6" -140 520 mark 0
AnchorPoint: "Anchor-1" -140 520 mark 0
LayerCount: 2
Fore
SplineSet
-149 560 m 1,0,-1
 -230 560 l 1,1,-1
 -127 770 l 1,2,-1
 -26 770 l 1,3,-1
 -149 560 l 1,0,-1
EndSplineSet
EndChar

StartChar: uni0302
Encoding: 770 770 538
Width: 0
GlyphClass: 4
Flags: W
AnchorPoint: "Anchor-10" -231 520 mark 0
AnchorPoint: "Anchor-6" -231 520 mark 0
AnchorPoint: "Anchor-1" -231 520 mark 0
LayerCount: 2
Fore
SplineSet
-300 770 m 1,0,-1
 -162 770 l 1,1,-1
 -26 560 l 1,2,-1
 -121 560 l 1,3,-1
 -230 732 l 1,4,-1
 -232 732 l 1,5,-1
 -341 560 l 1,6,-1
 -436 560 l 1,7,-1
 -300 770 l 1,0,-1
EndSplineSet
EndChar

StartChar: uni030C
Encoding: 780 780 539
Width: 0
GlyphClass: 4
Flags: W
AnchorPoint: "Anchor-10" -230 770 basemark 0
AnchorPoint: "Anchor-10" -230 520 mark 0
AnchorPoint: "Anchor-6" -230 520 mark 0
AnchorPoint: "Anchor-1" -230 520 mark 0
LayerCount: 2
Fore
SplineSet
-435 770 m 1,0,-1
 -340 770 l 1,1,-1
 -231 598 l 1,2,-1
 -229 598 l 1,3,-1
 -120 770 l 1,4,-1
 -25 770 l 1,5,-1
 -161 560 l 1,6,-1
 -299 560 l 1,7,-1
 -435 770 l 1,0,-1
EndSplineSet
EndChar

StartChar: uni0306
Encoding: 774 774 540
Width: 0
GlyphClass: 4
Flags: W
AnchorPoint: "Anchor-10" -207 520 mark 0
AnchorPoint: "Anchor-6" -207 520 mark 0
AnchorPoint: "Anchor-1" -207 520 mark 0
LayerCount: 2
Fore
SplineSet
-337.5 623 m 128,-1,1
 -390 666 -390 666 -396 734 c 1,2,-1
 -311 734 l 1,3,4
 -305 691 -305 691 -277.5 668 c 128,-1,5
 -250 645 -250 645 -206 645 c 256,6,7
 -162 645 -162 645 -135 668 c 128,-1,8
 -108 691 -108 691 -102 734 c 1,9,-1
 -17 734 l 1,10,11
 -23 666 -23 666 -75.5 623 c 128,-1,12
 -128 580 -128 580 -206 580 c 0,13,0
 -285 580 -285 580 -337.5 623 c 128,-1,1
EndSplineSet
EndChar

StartChar: uni030A
Encoding: 778 778 541
Width: 0
GlyphClass: 4
Flags: W
AnchorPoint: "Anchor-10" -164 723 basemark 0
AnchorPoint: "Anchor-10" -164 520 mark 0
AnchorPoint: "Anchor-6" -164 520 mark 0
AnchorPoint: "Anchor-1" -164 520 mark 0
LayerCount: 2
Fore
SplineSet
-234.5 537 m 128,-1,1
 -267 556 -267 556 -286 589 c 128,-1,2
 -305 622 -305 622 -305 660 c 256,3,4
 -305 698 -305 698 -286 731 c 128,-1,5
 -267 764 -267 764 -234.5 783 c 128,-1,6
 -202 802 -202 802 -163 802 c 0,7,8
 -125 802 -125 802 -92.5 783 c 128,-1,9
 -60 764 -60 764 -41 731 c 128,-1,10
 -22 698 -22 698 -22 660 c 256,11,12
 -22 622 -22 622 -41 589 c 128,-1,13
 -60 556 -60 556 -92.5 537 c 128,-1,14
 -125 518 -125 518 -163 518 c 0,15,0
 -202 518 -202 518 -234.5 537 c 128,-1,1
-105.5 602 m 128,-1,17
 -82 626 -82 626 -82 660 c 256,18,19
 -82 694 -82 694 -105.5 718 c 128,-1,20
 -129 742 -129 742 -163 742 c 256,21,22
 -197 742 -197 742 -221 718 c 128,-1,23
 -245 694 -245 694 -245 660 c 256,24,25
 -245 626 -245 626 -221 602 c 128,-1,26
 -197 578 -197 578 -163 578 c 256,27,16
 -129 578 -129 578 -105.5 602 c 128,-1,17
EndSplineSet
EndChar

StartChar: tildecomb
Encoding: 771 771 542
Width: 0
GlyphClass: 4
Flags: W
AnchorPoint: "Anchor-10" -218 744 basemark 0
AnchorPoint: "Anchor-10" -218 520 mark 0
AnchorPoint: "Anchor-6" -218 520 mark 0
AnchorPoint: "Anchor-1" -218 520 mark 0
LayerCount: 2
Fore
SplineSet
-229 633 m 0,1,2
 -275 666 -275 666 -302 666 c 0,3,4
 -318 666 -318 666 -325.5 650 c 128,-1,5
 -333 634 -333 634 -333 596 c 1,6,-1
 -407 596 l 1,7,8
 -407 671 -407 671 -385.5 707.5 c 128,-1,9
 -364 744 -364 744 -318 744 c 0,10,11
 -271 744 -271 744 -205 697 c 0,12,13
 -160 664 -160 664 -133 664 c 0,14,15
 -117 664 -117 664 -109.5 680 c 128,-1,16
 -102 696 -102 696 -102 734 c 1,17,-1
 -28 734 l 1,18,19
 -28 659 -28 659 -49.5 622.5 c 128,-1,20
 -71 586 -71 586 -116 586 c 256,21,0
 -161 586 -161 586 -229 633 c 0,1,2
EndSplineSet
EndChar

StartChar: uni0304
Encoding: 772 772 543
Width: 0
GlyphClass: 4
Flags: W
AnchorPoint: "Anchor-10" -210 697 basemark 0
AnchorPoint: "Anchor-10" -210 520 mark 0
AnchorPoint: "Anchor-6" -210 520 mark 0
AnchorPoint: "Anchor-1" -210 520 mark 0
LayerCount: 2
Fore
SplineSet
-391 697 m 1,0,-1
 -28 697 l 1,1,-1
 -28 633 l 1,2,-1
 -391 633 l 1,3,-1
 -391 697 l 1,0,-1
EndSplineSet
EndChar

StartChar: uni0305
Encoding: 773 773 544
Width: 0
GlyphClass: 4
Flags: W
LayerCount: 2
Fore
SplineSet
-587 863 m 1,0,-1
 0 863 l 1,1,-1
 0 800 l 1,2,-1
 -587 800 l 1,3,-1
 -587 863 l 1,0,-1
EndSplineSet
EndChar

StartChar: hookabovecomb
Encoding: 777 777 545
Width: 0
GlyphClass: 4
Flags: W
AnchorPoint: "Anchor-10" -176 770 basemark 0
AnchorPoint: "Anchor-10" -176 520 mark 0
AnchorPoint: "Anchor-6" -176 520 mark 0
AnchorPoint: "Anchor-1" -176 520 mark 0
LayerCount: 2
Fore
SplineSet
-116.5 627 m 128,-1,1
 -112 649 -112 649 -112 664 c 0,2,3
 -112 689 -112 689 -129 697.5 c 128,-1,4
 -146 706 -146 706 -192 706 c 0,5,6
 -254 706 -254 706 -315 689 c 1,7,-1
 -323 753 l 1,8,9
 -255 770 -255 770 -175 770 c 0,10,11
 -118 770 -118 770 -86.5 763 c 128,-1,12
 -55 756 -55 756 -41.5 739 c 128,-1,13
 -28 722 -28 722 -28 691 c 0,14,15
 -28 669 -28 669 -33 640 c 128,-1,16
 -38 611 -38 611 -46 590 c 1,17,-1
 -127 590 l 1,18,0
 -121 605 -121 605 -116.5 627 c 128,-1,1
EndSplineSet
EndChar

StartChar: uni030F
Encoding: 783 783 546
Width: 0
GlyphClass: 4
Flags: W
AnchorPoint: "Anchor-10" -236 770 basemark 0
AnchorPoint: "Anchor-10" -236 520 mark 0
AnchorPoint: "Anchor-6" -236 520 mark 0
AnchorPoint: "Anchor-1" -236 520 mark 0
LayerCount: 2
Fore
SplineSet
-457 770 m 1,0,-1
 -356 770 l 1,1,-1
 -253 560 l 1,2,-1
 -334 560 l 1,3,-1
 -457 770 l 1,0,-1
-247 770 m 1,4,-1
 -146 770 l 1,5,-1
 -43 560 l 1,6,-1
 -124 560 l 1,7,-1
 -247 770 l 1,4,-1
EndSplineSet
EndChar

StartChar: uni0311
Encoding: 785 785 547
Width: 0
GlyphClass: 4
Flags: W
AnchorPoint: "Anchor-10" -207 750 basemark 0
AnchorPoint: "Anchor-10" -207 520 mark 0
AnchorPoint: "Anchor-6" -207 520 mark 0
AnchorPoint: "Anchor-1" -207 520 mark 0
LayerCount: 2
Fore
SplineSet
-75.5 707 m 128,-1,1
 -23 664 -23 664 -17 596 c 1,2,-1
 -102 596 l 1,3,4
 -108 639 -108 639 -135 662 c 128,-1,5
 -162 685 -162 685 -206 685 c 256,6,7
 -250 685 -250 685 -277.5 662 c 128,-1,8
 -305 639 -305 639 -311 596 c 1,9,-1
 -396 596 l 1,10,11
 -390 664 -390 664 -337.5 707 c 128,-1,12
 -285 750 -285 750 -206 750 c 0,13,0
 -128 750 -128 750 -75.5 707 c 128,-1,1
EndSplineSet
EndChar

StartChar: uni0312
Encoding: 786 786 548
Width: 0
GlyphClass: 4
Flags: W
AnchorPoint: "Anchor-10" -145 770 basemark 0
AnchorPoint: "Anchor-10" -145 520 mark 0
AnchorPoint: "Anchor-6" -145 520 mark 0
AnchorPoint: "Anchor-1" -145 520 mark 0
LayerCount: 2
Fore
SplineSet
-124 770 m 1,0,-1
 -43 770 l 1,1,-1
 -146 560 l 1,2,-1
 -247 560 l 1,3,-1
 -124 770 l 1,0,-1
EndSplineSet
EndChar

StartChar: uni031B
Encoding: 795 795 549
Width: 0
GlyphClass: 4
Flags: W
AnchorPoint: "Anchor-11" -64 770 basemark 0
AnchorPoint: "Anchor-11" -278 618 mark 0
AnchorPoint: "Anchor-7" -278 618 mark 0
AnchorPoint: "Anchor-3" -278 618 mark 0
LayerCount: 2
Fore
SplineSet
-291 553 m 1,1,-1
 -278 618 l 1,2,3
 -269 609 -269 609 -254.5 604 c 128,-1,4
 -240 599 -240 599 -225 599 c 0,5,6
 -196 599 -196 599 -181 617 c 128,-1,7
 -166 635 -166 635 -166 669 c 0,8,9
 -166 692 -166 692 -172 721.5 c 128,-1,10
 -178 751 -178 751 -186 770 c 1,11,-1
 -104 770 l 1,12,13
 -85 713 -85 713 -85 659 c 0,14,15
 -85 598 -85 598 -115 564 c 128,-1,16
 -145 530 -145 530 -199 530 c 0,17,0
 -243 530 -243 530 -291 553 c 1,1,-1
EndSplineSet
EndChar

StartChar: uni0326
Encoding: 806 806 552
Width: 0
GlyphClass: 4
Flags: W
AnchorPoint: "Anchor-10" -140 -290 mark 0
AnchorPoint: "Anchor-9" -128 -210 basemark 0
AnchorPoint: "Anchor-6" -140 -290 mark 0
AnchorPoint: "Anchor-1" -140 -290 mark 0
LayerCount: 2
Fore
SplineSet
-149 -250 m 1,0,-1
 -230 -250 l 1,1,-1
 -127 -40 l 1,2,-1
 -26 -40 l 1,3,-1
 -149 -250 l 1,0,-1
EndSplineSet
EndChar

StartChar: uni0327
Encoding: 807 807 553
Width: 0
GlyphClass: 4
Flags: W
AnchorPoint: "Anchor-8" -228 0 mark 0
LayerCount: 2
Fore
SplineSet
-317 -197 m 1,1,-1
 -303 -134 l 1,2,3
 -262 -153 -262 -153 -212 -153 c 0,4,5
 -175 -153 -175 -153 -153 -142 c 128,-1,6
 -131 -131 -131 -131 -131 -107 c 0,7,8
 -131 -82 -131 -82 -156 -54.5 c 128,-1,9
 -181 -27 -181 -27 -228 0 c 1,10,-1
 -158 21 l 1,11,12
 -56 -45 -56 -45 -56 -120 c 0,13,14
 -56 -164 -56 -164 -93.5 -191 c 128,-1,15
 -131 -218 -131 -218 -206 -218 c 0,16,0
 -269 -218 -269 -218 -317 -197 c 1,1,-1
EndSplineSet
EndChar

StartChar: uni0328
Encoding: 808 808 554
Width: 0
GlyphClass: 4
Flags: W
AnchorPoint: "Anchor-5" -145 0 mark 0
AnchorPoint: "Anchor-2" -145 0 mark 0
LayerCount: 2
Fore
SplineSet
-279.5 -191 m 128,-1,1
 -317 -164 -317 -164 -317 -120 c 0,2,3
 -317 -45 -317 -45 -215 21 c 1,4,-1
 -145 0 l 1,5,6
 -192 -27 -192 -27 -217 -54.5 c 128,-1,7
 -242 -82 -242 -82 -242 -107 c 0,8,9
 -242 -131 -242 -131 -220 -142 c 128,-1,10
 -198 -153 -198 -153 -161 -153 c 0,11,12
 -111 -153 -111 -153 -70 -134 c 1,13,-1
 -56 -197 l 1,14,15
 -104 -218 -104 -218 -167 -218 c 0,16,0
 -242 -218 -242 -218 -279.5 -191 c 128,-1,1
EndSplineSet
EndChar

StartChar: uni0370
Encoding: 880 880 570
Width: 577
Flags: W
LayerCount: 2
Fore
SplineSet
532 425 m 1,0,-1
 532 361 l 1,1,-1
 165 361 l 1,2,-1
 165 0 l 1,3,-1
 85 0 l 1,4,-1
 85 730 l 1,5,-1
 165 730 l 1,6,-1
 165 425 l 1,7,-1
 532 425 l 1,0,-1
EndSplineSet
EndChar

StartChar: uni0371
Encoding: 881 881 571
Width: 447
Flags: W
LayerCount: 2
Fore
SplineSet
402 310 m 1,0,-1
 402 250 l 1,1,-1
 148 250 l 1,2,-1
 148 0 l 1,3,-1
 75 0 l 1,4,-1
 75 520 l 1,5,-1
 148 520 l 1,6,-1
 148 310 l 1,7,-1
 402 310 l 1,0,-1
EndSplineSet
EndChar

StartChar: uni0372
Encoding: 882 882 572
Width: 710
Flags: W
LayerCount: 2
Fore
SplineSet
315 662 m 1,0,-1
 142 662 l 1,1,-1
 142 363 l 1,2,-1
 65 363 l 1,3,-1
 65 730 l 1,4,-1
 645 730 l 1,5,-1
 645 363 l 1,6,-1
 568 363 l 1,7,-1
 568 662 l 1,8,-1
 395 662 l 1,9,-1
 395 0 l 1,10,-1
 315 0 l 1,11,-1
 315 662 l 1,0,-1
EndSplineSet
EndChar

StartChar: uni0373
Encoding: 883 883 573
Width: 586
Flags: W
LayerCount: 2
Fore
SplineSet
256 670 m 1,0,-1
 126 670 l 1,1,-1
 126 463 l 1,2,-1
 60 463 l 1,3,-1
 60 730 l 1,4,-1
 526 730 l 1,5,-1
 526 463 l 1,6,-1
 460 463 l 1,7,-1
 460 670 l 1,8,-1
 330 670 l 1,9,-1
 330 0 l 1,10,-1
 256 0 l 1,11,-1
 256 670 l 1,0,-1
EndSplineSet
EndChar

StartChar: uni0374
Encoding: 884 884 574
Width: 288
Flags: W
LayerCount: 2
Fore
SplineSet
70 523 m 1,0,-1
 143 770 l 1,1,-1
 243 770 l 1,2,-1
 143 523 l 1,3,-1
 70 523 l 1,0,-1
EndSplineSet
EndChar

StartChar: uni0375
Encoding: 885 885 575
Width: 289
Flags: W
LayerCount: 2
Fore
SplineSet
146 -110 m 1,0,-1
 45 -110 l 1,1,-1
 145 137 l 1,2,-1
 219 137 l 1,3,-1
 146 -110 l 1,0,-1
EndSplineSet
EndChar

StartChar: uni0376
Encoding: 886 886 576
Width: 714
Flags: W
LayerCount: 2
Fore
SplineSet
629 0 m 1,0,-1
 550 0 l 1,1,-1
 550 600 l 1,2,-1
 548 600 l 1,3,-1
 168 0 l 1,4,-1
 85 0 l 1,5,-1
 85 730 l 1,6,-1
 164 730 l 1,7,-1
 164 130 l 1,8,-1
 166 130 l 1,9,-1
 546 730 l 1,10,-1
 629 730 l 1,11,-1
 629 0 l 1,0,-1
EndSplineSet
EndChar

StartChar: uni0377
Encoding: 887 887 577
Width: 606
Flags: W
LayerCount: 2
Fore
SplineSet
151 102 m 1,0,-1
 153 102 l 1,1,-1
 449 520 l 1,2,-1
 531 520 l 1,3,-1
 531 0 l 1,4,-1
 455 0 l 1,5,-1
 455 418 l 1,6,-1
 453 418 l 1,7,-1
 157 0 l 1,8,-1
 75 0 l 1,9,-1
 75 520 l 1,10,-1
 151 520 l 1,11,-1
 151 102 l 1,0,-1
EndSplineSet
EndChar

StartChar: uni037A
Encoding: 890 890 578
Width: 363
Flags: W
LayerCount: 2
Fore
SplineSet
162 -110 m 2,0,1
 162 -175 162 -175 172.5 -189 c 128,-1,2
 183 -203 183 -203 232 -203 c 0,3,4
 272 -203 272 -203 308 -189 c 1,5,-1
 318 -242 l 1,6,7
 270 -257 270 -257 220 -257 c 0,8,9
 137 -257 137 -257 111 -228.5 c 128,-1,10
 85 -200 85 -200 85 -110 c 2,11,-1
 85 -60 l 1,12,-1
 162 -60 l 1,13,-1
 162 -110 l 2,0,1
EndSplineSet
EndChar

StartChar: uni037B
Encoding: 891 891 579
Width: 521
Flags: W
LayerCount: 2
Fore
SplineSet
84 84 m 1,0,1
 148 50 148 50 218 50 c 0,2,3
 301 50 301 50 353 107 c 128,-1,4
 405 164 405 164 405 260 c 0,5,6
 405 360 405 360 355.5 414.5 c 128,-1,7
 306 469 306 469 218 469 c 0,8,9
 151 469 151 469 84 434 c 1,10,-1
 65 495 l 1,11,12
 140 530 140 530 221 530 c 0,13,14
 343 530 343 530 412 458.5 c 128,-1,15
 481 387 481 387 481 260 c 0,16,17
 481 137 481 137 409 63.5 c 128,-1,18
 337 -10 337 -10 221 -10 c 0,19,20
 140 -10 140 -10 65 25 c 1,21,-1
 84 84 l 1,0,1
EndSplineSet
EndChar

StartChar: uni037C
Encoding: 892 892 580
Width: 521
Flags: W
LayerCount: 2
Fore
SplineSet
283 207 m 1,0,-1
 283 313 l 1,1,-1
 356 313 l 1,2,-1
 356 207 l 1,3,-1
 283 207 l 1,0,-1
437 434 m 1,4,5
 370 469 370 469 303 469 c 0,6,7
 215 469 215 469 165.5 414.5 c 128,-1,8
 116 360 116 360 116 260 c 0,9,10
 116 164 116 164 168 107 c 128,-1,11
 220 50 220 50 303 50 c 0,12,13
 373 50 373 50 437 84 c 1,14,-1
 456 25 l 1,15,16
 381 -10 381 -10 300 -10 c 0,17,18
 184 -10 184 -10 112 63.5 c 128,-1,19
 40 137 40 137 40 260 c 0,20,21
 40 387 40 387 109 458.5 c 128,-1,22
 178 530 178 530 300 530 c 0,23,24
 381 530 381 530 456 495 c 1,25,-1
 437 434 l 1,4,5
EndSplineSet
EndChar

StartChar: uni037D
Encoding: 893 893 581
Width: 521
Flags: W
LayerCount: 2
Fore
SplineSet
165 207 m 1,0,-1
 165 313 l 1,1,-1
 238 313 l 1,2,-1
 238 207 l 1,3,-1
 165 207 l 1,0,-1
84 434 m 1,4,-1
 65 495 l 1,5,6
 140 530 140 530 221 530 c 0,7,8
 343 530 343 530 412 458.5 c 128,-1,9
 481 387 481 387 481 260 c 0,10,11
 481 137 481 137 409 63.5 c 128,-1,12
 337 -10 337 -10 221 -10 c 0,13,14
 140 -10 140 -10 65 25 c 1,15,-1
 84 84 l 1,16,17
 148 50 148 50 218 50 c 0,18,19
 301 50 301 50 353 107 c 128,-1,20
 405 164 405 164 405 260 c 0,21,22
 405 360 405 360 355.5 414.5 c 128,-1,23
 306 469 306 469 218 469 c 0,24,25
 151 469 151 469 84 434 c 1,4,-1
EndSplineSet
EndChar

StartChar: uni037E
Encoding: 894 894 582
Width: 384
Flags: W
LayerCount: 2
Fore
SplineSet
153 137 m 1,0,-1
 254 137 l 1,1,-1
 154 -110 l 1,2,-1
 80 -110 l 1,3,-1
 153 137 l 1,0,-1
148 387 m 1,4,-1
 148 527 l 1,5,-1
 242 527 l 1,6,-1
 242 387 l 1,7,-1
 148 387 l 1,4,-1
EndSplineSet
EndChar

StartChar: tonos
Encoding: 900 900 583
Width: 330
Flags: W
LayerCount: 2
Fore
SplineSet
145 590 m 1,0,-1
 70 590 l 1,1,-1
 183 757 l 1,2,-1
 285 757 l 1,3,-1
 145 590 l 1,0,-1
EndSplineSet
EndChar

StartChar: dieresistonos
Encoding: 901 901 584
Width: 431
Flags: W
LayerCount: 2
Fore
SplineSet
221 790 m 1,0,-1
 146 790 l 1,1,-1
 259 957 l 1,2,-1
 361 957 l 1,3,-1
 221 790 l 1,0,-1
270 610 m 1,4,-1
 270 737 l 1,5,-1
 344 737 l 1,6,-1
 344 610 l 1,7,-1
 270 610 l 1,4,-1
70 610 m 1,8,-1
 70 737 l 1,9,-1
 144 737 l 1,10,-1
 144 610 l 1,11,-1
 70 610 l 1,8,-1
EndSplineSet
EndChar

StartChar: Alphatonos
Encoding: 902 902 585
Width: 696
Flags: W
LayerCount: 2
Fore
SplineSet
349 658 m 1,0,-1
 347 658 l 1,1,-1
 216 277 l 1,2,-1
 480 277 l 1,3,-1
 349 658 l 1,0,-1
100 590 m 1,4,-1
 25 590 l 1,5,-1
 138 757 l 1,6,-1
 240 757 l 1,7,-1
 100 590 l 1,4,-1
502 213 m 1,8,-1
 194 213 l 1,9,-1
 120 0 l 1,10,-1
 37 0 l 1,11,-1
 304 730 l 1,12,-1
 394 730 l 1,13,-1
 661 0 l 1,14,-1
 575 0 l 1,15,-1
 502 213 l 1,8,-1
EndSplineSet
EndChar

StartChar: anoteleia
Encoding: 903 903 586
Width: 284
Flags: W
LayerCount: 2
Fore
SplineSet
95 220 m 1,0,-1
 95 360 l 1,1,-1
 189 360 l 1,2,-1
 189 220 l 1,3,-1
 95 220 l 1,0,-1
EndSplineSet
EndChar

StartChar: Epsilontonos
Encoding: 904 904 587
Width: 773
Flags: W
LayerCount: 2
Fore
SplineSet
351 663 m 1,0,-1
 351 425 l 1,1,-1
 678 425 l 1,2,-1
 678 361 l 1,3,-1
 351 361 l 1,4,-1
 351 67 l 1,5,-1
 698 67 l 1,6,-1
 698 0 l 1,7,-1
 271 0 l 1,8,-1
 271 730 l 1,9,-1
 698 730 l 1,10,-1
 698 663 l 1,11,-1
 351 663 l 1,0,-1
100 590 m 1,12,-1
 25 590 l 1,13,-1
 138 757 l 1,14,-1
 240 757 l 1,15,-1
 100 590 l 1,12,-1
EndSplineSet
EndChar

StartChar: Etatonos
Encoding: 905 905 588
Width: 892
Flags: W
LayerCount: 2
Fore
SplineSet
347 730 m 1,0,-1
 347 425 l 1,1,-1
 727 425 l 1,2,-1
 727 730 l 1,3,-1
 807 730 l 1,4,-1
 807 0 l 1,5,-1
 727 0 l 1,6,-1
 727 361 l 1,7,-1
 347 361 l 1,8,-1
 347 0 l 1,9,-1
 267 0 l 1,10,-1
 267 730 l 1,11,-1
 347 730 l 1,0,-1
100 590 m 1,12,-1
 25 590 l 1,13,-1
 138 757 l 1,14,-1
 240 757 l 1,15,-1
 100 590 l 1,12,-1
EndSplineSet
EndChar

StartChar: Iotatonos
Encoding: 906 906 589
Width: 493
Flags: W
LayerCount: 2
Fore
SplineSet
291 0 m 1,0,-1
 291 730 l 1,1,-1
 378 730 l 1,2,-1
 378 0 l 1,3,-1
 291 0 l 1,0,-1
120 590 m 1,4,-1
 45 590 l 1,5,-1
 159 757 l 1,6,-1
 260 757 l 1,7,-1
 120 590 l 1,4,-1
EndSplineSet
EndChar

StartChar: Omicrontonos
Encoding: 908 908 590
Width: 923
Flags: W
LayerCount: 2
Fore
SplineSet
526 673 m 128,-1,1
 402 673 402 673 326.5 589.5 c 128,-1,2
 251 506 251 506 251 365 c 128,-1,3
 251 224 251 224 326.5 140.5 c 128,-1,4
 402 57 402 57 526 57 c 128,-1,5
 650 57 650 57 725.5 140.5 c 128,-1,6
 801 224 801 224 801 365 c 128,-1,7
 801 506 801 506 725.5 589.5 c 128,-1,0
 650 673 650 673 526 673 c 128,-1,1
100 590 m 1,8,-1
 25 590 l 1,9,-1
 138 757 l 1,10,-1
 240 757 l 1,11,-1
 100 590 l 1,8,-1
526 -10 m 128,-1,13
 365 -10 365 -10 267 92.5 c 128,-1,14
 169 195 169 195 169 365 c 128,-1,15
 169 535 169 535 267 637.5 c 128,-1,16
 365 740 365 740 526 740 c 128,-1,17
 687 740 687 740 785 637.5 c 128,-1,18
 883 535 883 535 883 365 c 128,-1,19
 883 195 883 195 785 92.5 c 128,-1,12
 687 -10 687 -10 526 -10 c 128,-1,13
EndSplineSet
EndChar

StartChar: Upsilontonos
Encoding: 910 910 591
Width: 897
Flags: W
LayerCount: 2
Fore
SplineSet
351 730 m 1,0,-1
 563 376 l 1,1,-1
 565 376 l 1,2,-1
 776 730 l 1,3,-1
 867 730 l 1,4,-1
 604 309 l 1,5,-1
 604 0 l 1,6,-1
 521 0 l 1,7,-1
 521 309 l 1,8,-1
 257 730 l 1,9,-1
 351 730 l 1,0,-1
100 590 m 1,10,-1
 25 590 l 1,11,-1
 138 757 l 1,12,-1
 240 757 l 1,13,-1
 100 590 l 1,10,-1
EndSplineSet
EndChar

StartChar: Omegatonos
Encoding: 911 911 592
Width: 951
Flags: W
LayerCount: 2
Fore
SplineSet
526 740 m 128,-1,1
 685 740 685 740 784 640.5 c 128,-1,2
 883 541 883 541 883 385 c 0,3,4
 883 168 883 168 728 67 c 1,5,-1
 728 65 l 1,6,-1
 896 65 l 1,7,-1
 896 0 l 1,8,-1
 583 0 l 1,9,-1
 583 65 l 1,10,11
 682 84 682 84 741.5 166 c 128,-1,12
 801 248 801 248 801 372 c 0,13,14
 801 509 801 509 725.5 591 c 128,-1,15
 650 673 650 673 526 673 c 128,-1,16
 402 673 402 673 326.5 591 c 128,-1,17
 251 509 251 509 251 372 c 0,18,19
 251 248 251 248 310.5 166 c 128,-1,20
 370 84 370 84 469 65 c 1,21,-1
 469 0 l 1,22,-1
 156 0 l 1,23,-1
 156 65 l 1,24,-1
 324 65 l 1,25,-1
 324 67 l 1,26,27
 169 168 169 168 169 385 c 0,28,29
 169 541 169 541 268 640.5 c 128,-1,0
 367 740 367 740 526 740 c 128,-1,1
100 590 m 1,30,-1
 25 590 l 1,31,-1
 138 757 l 1,32,-1
 240 757 l 1,33,-1
 100 590 l 1,30,-1
EndSplineSet
EndChar

StartChar: iotadieresistonos
Encoding: 912 912 593
Width: 473
Flags: W
LayerCount: 2
Fore
SplineSet
241 520 m 1,0,-1
 241 167 l 2,1,2
 241 96 241 96 259.5 73 c 128,-1,3
 278 50 278 50 328 50 c 0,4,5
 374 50 374 50 416 67 c 1,6,-1
 428 8 l 1,7,8
 377 -10 377 -10 318 -10 c 0,9,10
 233 -10 233 -10 198 26.5 c 128,-1,11
 163 63 163 63 163 153 c 2,12,-1
 163 520 l 1,13,-1
 241 520 l 1,0,-1
265 610 m 1,14,-1
 265 737 l 1,15,-1
 338 737 l 1,16,-1
 338 610 l 1,17,-1
 265 610 l 1,14,-1
65 610 m 1,18,-1
 65 737 l 1,19,-1
 138 737 l 1,20,-1
 138 610 l 1,21,-1
 65 610 l 1,18,-1
234 790 m 1,22,-1
 159 790 l 1,23,-1
 272 957 l 1,24,-1
 374 957 l 1,25,-1
 234 790 l 1,22,-1
EndSplineSet
EndChar

StartChar: Alpha
Encoding: 913 913 594
Width: 694
Flags: W
LayerCount: 2
Fore
SplineSet
35 0 m 1,0,-1
 302 730 l 1,1,-1
 392 730 l 1,2,-1
 659 0 l 1,3,-1
 573 0 l 1,4,-1
 500 213 l 1,5,-1
 192 213 l 1,6,-1
 118 0 l 1,7,-1
 35 0 l 1,0,-1
214 277 m 1,8,-1
 478 277 l 1,9,-1
 347 658 l 1,10,-1
 345 658 l 1,11,-1
 214 277 l 1,8,-1
EndSplineSet
EndChar

StartChar: Gamma
Encoding: 915 915 596
Width: 556
Flags: W
LayerCount: 2
Fore
SplineSet
168 660 m 1,0,-1
 168 0 l 1,1,-1
 85 0 l 1,2,-1
 85 730 l 1,3,-1
 501 730 l 1,4,-1
 501 660 l 1,5,-1
 168 660 l 1,0,-1
EndSplineSet
EndChar

StartChar: uni0394
Encoding: 916 916 597
Width: 694
Flags: W
LayerCount: 2
Fore
SplineSet
347 658 m 1,0,-1
 345 658 l 1,1,-1
 141 66 l 1,2,-1
 550 66 l 1,3,-1
 347 658 l 1,0,-1
573 0 m 1,4,-1
 118 0 l 1,5,-1
 94 0 l 1,6,-1
 35 0 l 1,7,-1
 302 730 l 1,8,-1
 392 730 l 1,9,-1
 659 0 l 1,10,-1
 600 0 l 1,11,-1
 573 0 l 1,4,-1
EndSplineSet
EndChar

StartChar: Epsilon
Encoding: 917 917 598
Width: 587
Flags: W
LayerCount: 2
Fore
SplineSet
165 663 m 1,0,-1
 165 425 l 1,1,-1
 492 425 l 1,2,-1
 492 361 l 1,3,-1
 165 361 l 1,4,-1
 165 67 l 1,5,-1
 512 67 l 1,6,-1
 512 0 l 1,7,-1
 85 0 l 1,8,-1
 85 730 l 1,9,-1
 512 730 l 1,10,-1
 512 663 l 1,11,-1
 165 663 l 1,0,-1
EndSplineSet
EndChar

StartChar: Zeta
Encoding: 918 918 599
Width: 636
Flags: W
LayerCount: 2
Fore
SplineSet
75 663 m 1,0,-1
 75 730 l 1,1,-1
 561 730 l 1,2,-1
 561 663 l 1,3,-1
 168 69 l 1,4,-1
 168 67 l 1,5,-1
 561 67 l 1,6,-1
 561 0 l 1,7,-1
 75 0 l 1,8,-1
 75 67 l 1,9,-1
 468 661 l 1,10,-1
 468 663 l 1,11,-1
 75 663 l 1,0,-1
EndSplineSet
EndChar

StartChar: Eta
Encoding: 919 919 600
Width: 710
Flags: W
LayerCount: 2
Fore
SplineSet
165 730 m 1,0,-1
 165 425 l 1,1,-1
 545 425 l 1,2,-1
 545 730 l 1,3,-1
 625 730 l 1,4,-1
 625 0 l 1,5,-1
 545 0 l 1,6,-1
 545 361 l 1,7,-1
 165 361 l 1,8,-1
 165 0 l 1,9,-1
 85 0 l 1,10,-1
 85 730 l 1,11,-1
 165 730 l 1,0,-1
EndSplineSet
EndChar

StartChar: Theta
Encoding: 920 920 601
Width: 794
Flags: W
LayerCount: 2
Fore
SplineSet
210 332 m 1,0,-1
 210 398 l 1,1,-1
 584 398 l 1,2,-1
 584 332 l 1,3,-1
 210 332 l 1,0,-1
40 365 m 128,-1,5
 40 535 40 535 138 637.5 c 128,-1,6
 236 740 236 740 397 740 c 128,-1,7
 558 740 558 740 656 637.5 c 128,-1,8
 754 535 754 535 754 365 c 128,-1,9
 754 195 754 195 656 92.5 c 128,-1,10
 558 -10 558 -10 397 -10 c 128,-1,11
 236 -10 236 -10 138 92.5 c 128,-1,4
 40 195 40 195 40 365 c 128,-1,5
397 57 m 128,-1,13
 521 57 521 57 596.5 140.5 c 128,-1,14
 672 224 672 224 672 365 c 128,-1,15
 672 506 672 506 596.5 589.5 c 128,-1,16
 521 673 521 673 397 673 c 128,-1,17
 273 673 273 673 197.5 589.5 c 128,-1,18
 122 506 122 506 122 365 c 128,-1,19
 122 224 122 224 197.5 140.5 c 128,-1,12
 273 57 273 57 397 57 c 128,-1,13
EndSplineSet
EndChar

StartChar: Iota
Encoding: 921 921 602
Width: 316
Flags: W
LayerCount: 2
Fore
SplineSet
115 0 m 1,0,-1
 115 730 l 1,1,-1
 201 730 l 1,2,-1
 201 0 l 1,3,-1
 115 0 l 1,0,-1
EndSplineSet
EndChar

StartChar: Kappa
Encoding: 922 922 603
Width: 633
Flags: W
LayerCount: 2
Fore
SplineSet
167 356 m 1,0,-1
 165 356 l 1,1,-1
 165 0 l 1,2,-1
 85 0 l 1,3,-1
 85 730 l 1,4,-1
 165 730 l 1,5,-1
 165 405 l 1,6,-1
 167 405 l 1,7,-1
 491 730 l 1,8,-1
 588 730 l 1,9,-1
 237 380 l 1,10,-1
 598 0 l 1,11,-1
 502 0 l 1,12,-1
 167 356 l 1,0,-1
EndSplineSet
EndChar

StartChar: Lambda
Encoding: 923 923 604
Width: 694
Flags: W
LayerCount: 2
Fore
SplineSet
659 0 m 1,0,-1
 573 0 l 1,1,-1
 347 658 l 1,2,-1
 345 658 l 1,3,-1
 118 0 l 1,4,-1
 35 0 l 1,5,-1
 302 730 l 1,6,-1
 392 730 l 1,7,-1
 659 0 l 1,0,-1
EndSplineSet
EndChar

StartChar: Mu
Encoding: 924 924 605
Width: 856
Flags: W
LayerCount: 2
Fore
SplineSet
691 0 m 1,0,-1
 691 596 l 1,1,-1
 689 596 l 1,2,-1
 464 217 l 1,3,-1
 389 217 l 1,4,-1
 164 596 l 1,5,-1
 162 596 l 1,6,-1
 162 0 l 1,7,-1
 85 0 l 1,8,-1
 85 730 l 1,9,-1
 166 730 l 1,10,-1
 426 290 l 1,11,-1
 428 290 l 1,12,-1
 687 730 l 1,13,-1
 771 730 l 1,14,-1
 771 0 l 1,15,-1
 691 0 l 1,0,-1
EndSplineSet
EndChar

StartChar: Nu
Encoding: 925 925 606
Width: 714
Flags: W
LayerCount: 2
Fore
SplineSet
85 0 m 1,0,-1
 85 730 l 1,1,-1
 168 730 l 1,2,-1
 548 130 l 1,3,-1
 550 130 l 1,4,-1
 550 730 l 1,5,-1
 629 730 l 1,6,-1
 629 0 l 1,7,-1
 546 0 l 1,8,-1
 166 600 l 1,9,-1
 164 600 l 1,10,-1
 164 0 l 1,11,-1
 85 0 l 1,0,-1
EndSplineSet
EndChar

StartChar: Xi
Encoding: 926 926 607
Width: 606
Flags: W
LayerCount: 2
Fore
SplineSet
75 0 m 1,0,-1
 75 67 l 1,1,-1
 531 67 l 1,2,-1
 531 0 l 1,3,-1
 75 0 l 1,0,-1
95 361 m 1,4,-1
 95 425 l 1,5,-1
 511 425 l 1,6,-1
 511 361 l 1,7,-1
 95 361 l 1,4,-1
75 663 m 1,8,-1
 75 730 l 1,9,-1
 531 730 l 1,10,-1
 531 663 l 1,11,-1
 75 663 l 1,8,-1
EndSplineSet
EndChar

StartChar: Pi
Encoding: 928 928 609
Width: 710
Flags: W
LayerCount: 2
Fore
SplineSet
85 730 m 1,0,-1
 625 730 l 1,1,-1
 625 0 l 1,2,-1
 545 0 l 1,3,-1
 545 663 l 1,4,-1
 165 663 l 1,5,-1
 165 0 l 1,6,-1
 85 0 l 1,7,-1
 85 730 l 1,0,-1
EndSplineSet
EndChar

StartChar: Sigma
Encoding: 931 931 611
Width: 567
Flags: W
LayerCount: 2
Fore
SplineSet
158 663 m 1,0,-1
 371 382 l 1,1,-1
 158 67 l 1,2,-1
 497 67 l 1,3,-1
 497 0 l 1,4,-1
 70 0 l 1,5,-1
 70 67 l 1,6,-1
 283 382 l 1,7,-1
 70 663 l 1,8,-1
 70 730 l 1,9,-1
 497 730 l 1,10,-1
 497 663 l 1,11,-1
 158 663 l 1,0,-1
EndSplineSet
EndChar

StartChar: Tau
Encoding: 932 932 612
Width: 654
Flags: W
LayerCount: 2
Fore
SplineSet
60 730 m 1,0,-1
 594 730 l 1,1,-1
 594 662 l 1,2,-1
 367 662 l 1,3,-1
 367 0 l 1,4,-1
 287 0 l 1,5,-1
 287 662 l 1,6,-1
 60 662 l 1,7,-1
 60 730 l 1,0,-1
EndSplineSet
EndChar

StartChar: Upsilon
Encoding: 933 933 613
Width: 670
Flags: W
LayerCount: 2
Fore
SplineSet
124 730 m 1,0,-1
 335 376 l 1,1,-1
 337 376 l 1,2,-1
 549 730 l 1,3,-1
 640 730 l 1,4,-1
 377 309 l 1,5,-1
 377 0 l 1,6,-1
 293 0 l 1,7,-1
 293 309 l 1,8,-1
 30 730 l 1,9,-1
 124 730 l 1,0,-1
EndSplineSet
EndChar

StartChar: Phi
Encoding: 934 934 614
Width: 730
Flags: W
LayerCount: 2
Fore
SplineSet
405 165 m 1,0,1
 504 174 504 174 559.5 227.5 c 128,-1,2
 615 281 615 281 615 370 c 128,-1,3
 615 459 615 459 559.5 512.5 c 128,-1,4
 504 566 504 566 405 575 c 1,5,-1
 405 165 l 1,0,1
405 642 m 1,6,7
 540 632 540 632 617.5 559 c 128,-1,8
 695 486 695 486 695 370 c 128,-1,9
 695 254 695 254 617.5 181 c 128,-1,10
 540 108 540 108 405 98 c 1,11,-1
 405 0 l 1,12,-1
 325 0 l 1,13,-1
 325 98 l 1,14,15
 190 108 190 108 112.5 181 c 128,-1,16
 35 254 35 254 35 370 c 128,-1,17
 35 486 35 486 112.5 559 c 128,-1,18
 190 632 190 632 325 642 c 1,19,-1
 325 730 l 1,20,-1
 405 730 l 1,21,-1
 405 642 l 1,6,7
325 575 m 1,22,23
 226 566 226 566 170.5 512.5 c 128,-1,24
 115 459 115 459 115 370 c 128,-1,25
 115 281 115 281 170.5 227.5 c 128,-1,26
 226 174 226 174 325 165 c 1,27,-1
 325 575 l 1,22,23
EndSplineSet
EndChar

StartChar: Chi
Encoding: 935 935 615
Width: 650
Flags: W
LayerCount: 2
Fore
SplineSet
325 314 m 1,0,-1
 323 314 l 1,1,-1
 136 0 l 1,2,-1
 45 0 l 1,3,-1
 274 370 l 1,4,-1
 50 730 l 1,5,-1
 143 730 l 1,6,-1
 325 426 l 1,7,-1
 327 426 l 1,8,-1
 510 730 l 1,9,-1
 600 730 l 1,10,-1
 376 370 l 1,11,-1
 605 0 l 1,12,-1
 511 0 l 1,13,-1
 325 314 l 1,0,-1
EndSplineSet
EndChar

StartChar: Psi
Encoding: 936 936 616
Width: 794
Flags: W
LayerCount: 2
Fore
SplineSet
437 225 m 1,0,1
 645 243 645 243 645 448 c 2,2,-1
 645 730 l 1,3,-1
 724 730 l 1,4,-1
 724 453 l 2,5,6
 724 176 724 176 437 158 c 1,7,-1
 437 0 l 1,8,-1
 357 0 l 1,9,-1
 357 158 l 1,10,11
 70 176 70 176 70 453 c 2,12,-1
 70 730 l 1,13,-1
 149 730 l 1,14,-1
 149 448 l 2,15,16
 149 243 149 243 357 225 c 1,17,-1
 357 730 l 1,18,-1
 437 730 l 1,19,-1
 437 225 l 1,0,1
EndSplineSet
EndChar

StartChar: uni03A9
Encoding: 937 937 617
Width: 850
Flags: W
LayerCount: 2
Fore
SplineSet
425 740 m 128,-1,1
 584 740 584 740 683 640.5 c 128,-1,2
 782 541 782 541 782 385 c 0,3,4
 782 172 782 172 634 67 c 1,5,-1
 634 65 l 1,6,-1
 795 65 l 1,7,-1
 795 0 l 1,8,-1
 482 0 l 1,9,-1
 482 65 l 1,10,11
 581 84 581 84 640.5 166 c 128,-1,12
 700 248 700 248 700 372 c 0,13,14
 700 509 700 509 624.5 591 c 128,-1,15
 549 673 549 673 425 673 c 128,-1,16
 301 673 301 673 225.5 591 c 128,-1,17
 150 509 150 509 150 372 c 0,18,19
 150 248 150 248 209.5 166 c 128,-1,20
 269 84 269 84 368 65 c 1,21,-1
 368 0 l 1,22,-1
 55 0 l 1,23,-1
 55 65 l 1,24,-1
 216 65 l 1,25,-1
 216 67 l 1,26,27
 68 172 68 172 68 385 c 0,28,29
 68 541 68 541 167 640.5 c 128,-1,0
 266 740 266 740 425 740 c 128,-1,1
EndSplineSet
EndChar

StartChar: Iotadieresis
Encoding: 938 938 618
Width: 314
Flags: W
LayerCount: 2
Fore
SplineSet
220 810 m 1,0,-1
 220 937 l 1,1,-1
 294 937 l 1,2,-1
 294 810 l 1,3,-1
 220 810 l 1,0,-1
20 810 m 1,4,-1
 20 937 l 1,5,-1
 94 937 l 1,6,-1
 94 810 l 1,7,-1
 20 810 l 1,4,-1
114 0 m 1,8,-1
 114 730 l 1,9,-1
 200 730 l 1,10,-1
 200 0 l 1,11,-1
 114 0 l 1,8,-1
EndSplineSet
EndChar

StartChar: Upsilondieresis
Encoding: 939 939 619
Width: 670
Flags: W
LayerCount: 2
Fore
SplineSet
398 810 m 1,0,-1
 398 937 l 1,1,-1
 472 937 l 1,2,-1
 472 810 l 1,3,-1
 398 810 l 1,0,-1
198 810 m 1,4,-1
 198 937 l 1,5,-1
 272 937 l 1,6,-1
 272 810 l 1,7,-1
 198 810 l 1,4,-1
124 730 m 1,8,-1
 335 376 l 1,9,-1
 337 376 l 1,10,-1
 549 730 l 1,11,-1
 640 730 l 1,12,-1
 377 309 l 1,13,-1
 377 0 l 1,14,-1
 293 0 l 1,15,-1
 293 309 l 1,16,-1
 30 730 l 1,17,-1
 124 730 l 1,8,-1
EndSplineSet
EndChar

StartChar: alphatonos
Encoding: 940 940 620
Width: 639
Flags: W
LayerCount: 2
Fore
SplineSet
314 590 m 1,0,-1
 239 590 l 1,1,-1
 353 757 l 1,2,-1
 454 757 l 1,3,-1
 314 590 l 1,0,-1
493 246 m 1,4,5
 539 138 539 138 589 0 c 1,6,-1
 513 0 l 1,7,8
 478 105 478 105 455 165 c 1,9,10
 364 -10 364 -10 240 -10 c 0,11,12
 153 -10 153 -10 99 61.5 c 128,-1,13
 45 133 45 133 45 260 c 128,-1,14
 45 387 45 387 99.5 458.5 c 128,-1,15
 154 530 154 530 240 530 c 0,16,17
 304 530 304 530 350.5 490 c 128,-1,18
 397 450 397 450 455 329 c 1,19,20
 485 425 485 425 506 520 c 1,21,-1
 579 520 l 1,22,23
 539 361 539 361 493 246 c 1,4,5
425 244 m 1,24,25
 371 377 371 377 329.5 423.5 c 128,-1,26
 288 470 288 470 240 470 c 0,27,28
 185 470 185 470 153 416.5 c 128,-1,29
 121 363 121 363 121 260 c 0,30,31
 121 160 121 160 156 105 c 128,-1,32
 191 50 191 50 247 50 c 0,33,34
 347 50 347 50 425 244 c 1,24,25
EndSplineSet
EndChar

StartChar: epsilontonos
Encoding: 941 941 621
Width: 524
Flags: W
LayerCount: 2
Fore
SplineSet
183 277 m 1,0,-1
 183 279 l 1,1,2
 120 293 120 293 86.5 327 c 128,-1,3
 53 361 53 361 53 402 c 0,4,5
 53 459 53 459 113.5 494.5 c 128,-1,6
 174 530 174 530 281 530 c 0,7,8
 378 530 378 530 472 493 c 1,9,-1
 454 437 l 1,10,11
 367 472 367 472 288 472 c 0,12,13
 130 472 130 472 130 392 c 0,14,15
 130 307 130 307 341 307 c 2,16,-1
 385 307 l 1,17,-1
 385 248 l 1,18,-1
 341 248 l 2,19,20
 224 248 224 248 172.5 223 c 128,-1,21
 121 198 121 198 121 148 c 0,22,23
 121 50 121 50 285 50 c 0,24,25
 368 50 368 50 460 83 c 1,26,-1
 479 27 l 1,27,28
 380 -10 380 -10 281 -10 c 0,29,30
 167 -10 167 -10 106 30 c 128,-1,31
 45 70 45 70 45 140 c 0,32,33
 45 188 45 188 79.5 226.5 c 128,-1,34
 114 265 114 265 183 277 c 1,0,-1
255 590 m 1,35,-1
 180 590 l 1,36,-1
 294 757 l 1,37,-1
 395 757 l 1,38,-1
 255 590 l 1,35,-1
EndSplineSet
EndChar

StartChar: etatonos
Encoding: 942 942 622
Width: 568
Flags: W
LayerCount: 2
Fore
SplineSet
75 520 m 1,0,-1
 145 520 l 1,1,-1
 146 427 l 1,2,-1
 148 427 l 1,3,4
 178 475 178 475 224.5 502.5 c 128,-1,5
 271 530 271 530 325 530 c 0,6,7
 413 530 413 530 455.5 475.5 c 128,-1,8
 498 421 498 421 498 303 c 2,9,-1
 498 -220 l 1,10,-1
 426 -220 l 1,11,-1
 426 297 l 2,12,13
 426 394 426 394 398 431.5 c 128,-1,14
 370 469 370 469 302 469 c 0,15,16
 244 469 244 469 196 411.5 c 128,-1,17
 148 354 148 354 148 278 c 2,18,-1
 148 0 l 1,19,-1
 75 0 l 1,20,-1
 75 520 l 1,0,-1
269 590 m 1,21,-1
 194 590 l 1,22,-1
 307 757 l 1,23,-1
 409 757 l 1,24,-1
 269 590 l 1,21,-1
EndSplineSet
EndChar

StartChar: iotatonos
Encoding: 943 943 623
Width: 440
Flags: W
LayerCount: 2
Fore
SplineSet
188 520 m 1,0,-1
 188 167 l 2,1,2
 188 96 188 96 206.5 73 c 128,-1,3
 225 50 225 50 275 50 c 0,4,5
 321 50 321 50 363 67 c 1,6,-1
 375 8 l 1,7,8
 324 -10 324 -10 265 -10 c 0,9,10
 180 -10 180 -10 145 26.5 c 128,-1,11
 110 63 110 63 110 153 c 2,12,-1
 110 520 l 1,13,-1
 188 520 l 1,0,-1
110 590 m 1,14,-1
 223 757 l 1,15,-1
 325 757 l 1,16,-1
 185 590 l 1,17,-1
 110 590 l 1,14,-1
EndSplineSet
EndChar

StartChar: upsilondieresistonos
Encoding: 944 944 624
Width: 572
Flags: W
LayerCount: 2
Fore
SplineSet
353 610 m 1,0,-1
 353 737 l 1,1,-1
 427 737 l 1,2,-1
 427 610 l 1,3,-1
 353 610 l 1,0,-1
153 610 m 1,4,-1
 153 737 l 1,5,-1
 227 737 l 1,6,-1
 227 610 l 1,7,-1
 153 610 l 1,4,-1
388 524 m 1,8,-1
 459 539 l 1,9,10
 517 400 517 400 517 277 c 0,11,12
 517 -10 517 -10 287 -10 c 0,13,14
 173 -10 173 -10 121.5 39.5 c 128,-1,15
 70 89 70 89 70 197 c 2,16,-1
 70 520 l 1,17,-1
 142 520 l 1,18,-1
 142 203 l 2,19,20
 142 123 142 123 176 88 c 128,-1,21
 210 53 210 53 286 53 c 0,22,23
 365 53 365 53 404.5 108.5 c 128,-1,24
 444 164 444 164 444 285 c 0,25,26
 444 397 444 397 388 524 c 1,8,-1
274 790 m 1,27,-1
 199 790 l 1,28,-1
 312 957 l 1,29,-1
 414 957 l 1,30,-1
 274 790 l 1,27,-1
EndSplineSet
EndChar

StartChar: alpha
Encoding: 945 945 625
Width: 639
Flags: W
LayerCount: 2
Fore
SplineSet
493 246 m 1,0,1
 539 138 539 138 589 0 c 1,2,-1
 513 0 l 1,3,4
 478 105 478 105 455 165 c 1,5,6
 364 -10 364 -10 240 -10 c 0,7,8
 153 -10 153 -10 99 61.5 c 128,-1,9
 45 133 45 133 45 260 c 128,-1,10
 45 387 45 387 99.5 458.5 c 128,-1,11
 154 530 154 530 240 530 c 0,12,13
 304 530 304 530 350.5 490 c 128,-1,14
 397 450 397 450 455 329 c 1,15,16
 485 425 485 425 506 520 c 1,17,-1
 579 520 l 1,18,19
 539 361 539 361 493 246 c 1,0,1
425 244 m 1,20,21
 371 377 371 377 329.5 423.5 c 128,-1,22
 288 470 288 470 240 470 c 0,23,24
 185 470 185 470 153 416.5 c 128,-1,25
 121 363 121 363 121 260 c 0,26,27
 121 160 121 160 156 105 c 128,-1,28
 191 50 191 50 247 50 c 0,29,30
 347 50 347 50 425 244 c 1,20,21
EndSplineSet
EndChar

StartChar: beta
Encoding: 946 946 626
Width: 580
Flags: W
AnchorPoint: "Anchor-0" 293 -220 basechar 0
LayerCount: 2
Fore
SplineSet
80 -220 m 1,0,-1
 80 523 l 2,1,2
 80 740 80 740 294 740 c 0,3,4
 391 740 391 740 449 690 c 128,-1,5
 507 640 507 640 507 563 c 0,6,7
 507 501 507 501 467 457 c 128,-1,8
 427 413 427 413 357 398 c 1,9,-1
 357 396 l 1,10,11
 445 383 445 383 492.5 334 c 128,-1,12
 540 285 540 285 540 210 c 0,13,14
 540 103 540 103 471 46.5 c 128,-1,15
 402 -10 402 -10 265 -10 c 0,16,17
 219 -10 219 -10 154 3 c 1,18,-1
 154 -220 l 1,19,-1
 80 -220 l 1,0,-1
154 67 m 1,20,21
 212 52 212 52 264 52 c 0,22,23
 468 52 468 52 468 217 c 0,24,25
 468 293 468 293 412.5 328.5 c 128,-1,26
 357 364 357 364 234 364 c 2,27,-1
 207 364 l 1,28,-1
 207 421 l 1,29,-1
 234 421 l 2,30,31
 438 421 438 421 438 553 c 0,32,33
 438 609 438 609 399.5 643 c 128,-1,34
 361 677 361 677 297 677 c 0,35,36
 221 677 221 677 187.5 643 c 128,-1,37
 154 609 154 609 154 532 c 2,38,-1
 154 67 l 1,20,21
EndSplineSet
EndChar

StartChar: gamma
Encoding: 947 947 627
Width: 576
Flags: W
LayerCount: 2
Fore
SplineSet
290 110 m 1,0,1
 339 300 339 300 462 520 c 1,2,-1
 541 520 l 1,3,4
 387 269 387 269 325 20 c 1,5,-1
 325 -220 l 1,6,-1
 251 -220 l 1,7,-1
 251 20 l 1,8,9
 189 269 189 269 35 520 c 1,10,-1
 117 520 l 1,11,12
 238 304 238 304 288 110 c 1,13,-1
 290 110 l 1,0,1
EndSplineSet
EndChar

StartChar: delta
Encoding: 948 948 628
Width: 570
Flags: W
LayerCount: 2
Fore
SplineSet
266 473 m 0,0,1
 194 465 194 465 154.5 410 c 128,-1,2
 115 355 115 355 115 260 c 0,3,4
 115 161 115 161 160.5 105.5 c 128,-1,5
 206 50 206 50 285 50 c 128,-1,6
 364 50 364 50 409.5 105.5 c 128,-1,7
 455 161 455 161 455 260 c 0,8,9
 455 458 455 458 281 471 c 0,10,11
 276 471 276 471 266 473 c 0,0,1
170 496 m 1,12,13
 93 529 93 529 93 607 c 0,14,15
 93 668 93 668 143 704 c 128,-1,16
 193 740 193 740 285 740 c 0,17,18
 381 740 381 740 462 700 c 1,19,-1
 445 641 l 1,20,21
 368 680 368 680 285 680 c 0,22,23
 167 680 167 680 167 607 c 0,24,25
 167 538 167 538 282 530 c 0,26,27
 530 513 530 513 530 260 c 0,28,29
 530 136 530 136 463 63 c 128,-1,30
 396 -10 396 -10 285 -10 c 128,-1,31
 174 -10 174 -10 107 63 c 128,-1,32
 40 136 40 136 40 260 c 0,33,34
 40 436 40 436 170 496 c 1,12,13
EndSplineSet
EndChar

StartChar: epsilon
Encoding: 949 949 629
Width: 524
Flags: W
LayerCount: 2
Fore
SplineSet
183 277 m 1,0,-1
 183 279 l 1,1,2
 120 293 120 293 86.5 327 c 128,-1,3
 53 361 53 361 53 402 c 0,4,5
 53 459 53 459 113.5 494.5 c 128,-1,6
 174 530 174 530 281 530 c 0,7,8
 378 530 378 530 472 493 c 1,9,-1
 454 437 l 1,10,11
 367 472 367 472 288 472 c 0,12,13
 130 472 130 472 130 392 c 0,14,15
 130 307 130 307 341 307 c 2,16,-1
 385 307 l 1,17,-1
 385 248 l 1,18,-1
 341 248 l 2,19,20
 224 248 224 248 172.5 223 c 128,-1,21
 121 198 121 198 121 148 c 0,22,23
 121 50 121 50 285 50 c 0,24,25
 368 50 368 50 460 83 c 1,26,-1
 479 27 l 1,27,28
 380 -10 380 -10 281 -10 c 0,29,30
 167 -10 167 -10 106 30 c 128,-1,31
 45 70 45 70 45 140 c 0,32,33
 45 188 45 188 79.5 226.5 c 128,-1,34
 114 265 114 265 183 277 c 1,0,-1
EndSplineSet
EndChar

